{"glyphs":{"0":{"ha":949,"x_min":54,"x_max":926,"o":"m 404 -14 q 147 67 240 -12 q 54 283 54 146 q 60 351 54 319 q 85 486 68 408 q 118 625 101 564 q 574 986 213 985 q 831 905 735 985 q 926 689 926 825 q 921 625 926 669 q 863 351 900 492 q 706 81 815 175 q 404 -14 596 -12 m 425 196 q 594 358 553 196 q 650 617 625 476 q 656 675 656 658 q 632 753 656 726 q 554 779 608 779 q 447 738 488 779 q 386 617 407 697 q 331 358 356 501 q 325 299 325 329 q 349 222 325 247 q 425 196 372 196 z "},"1":{"ha":696,"x_min":74,"x_max":721,"o":"m 294 0 q 271 10 279 0 q 265 35 263 19 l 401 668 l 193 532 q 171 524 181 524 q 144 540 154 524 l 76 663 q 74 675 74 671 q 80 697 74 686 q 97 714 86 708 l 472 963 q 506 972 490 972 l 690 972 q 713 962 706 972 q 718 938 721 951 l 526 35 q 511 10 524 19 q 485 0 499 0 l 294 0 z "},"2":{"ha":911,"x_min":-7,"x_max":915,"o":"m 24 0 q 1 10 8 0 q -4 35 -7 21 l 18 139 q 68 208 28 182 l 225 335 q 458 491 381 436 q 581 591 536 546 q 635 676 626 636 q 639 708 639 693 q 554 779 639 779 q 463 747 499 779 q 407 665 426 714 q 353 633 392 633 l 169 633 q 149 642 156 633 q 146 663 143 651 q 231 828 167 754 q 390 947 294 903 q 597 990 486 990 q 833 928 750 990 q 915 756 915 865 q 908 689 915 718 q 808 509 888 590 q 582 333 729 428 l 443 218 l 793 218 q 816 208 808 218 q 821 183 824 199 l 790 35 q 775 10 788 21 q 747 0 763 0 l 24 0 z "},"3":{"ha":924,"x_min":26,"x_max":949,"o":"m 383 -14 q 178 22 258 -14 q 62 113 97 57 q 26 228 26 168 q 29 258 26 239 q 43 279 32 271 q 67 288 54 288 l 258 288 q 283 281 275 288 q 299 261 292 275 q 429 193 310 193 q 540 225 496 193 q 597 311 585 257 q 600 339 600 331 q 481 415 600 415 l 325 415 q 301 426 310 415 q 297 451 293 436 l 314 533 q 347 581 322 565 l 610 764 l 226 764 q 203 774 211 764 q 199 799 196 785 l 228 936 q 243 962 231 951 q 271 972 256 972 l 918 972 q 941 962 933 972 q 946 936 949 951 l 919 813 q 888 767 913 783 l 642 579 l 650 576 q 812 510 753 561 q 871 367 871 458 q 863 294 871 335 q 775 131 843 201 q 605 24 707 61 q 383 -14 503 -14 z "},"4":{"ha":972,"x_min":-4,"x_max":926,"o":"m 471 0 q 448 10 456 0 q 443 35 440 21 l 475 188 l 26 188 q 4 197 13 188 q -1 222 -4 207 l 29 363 q 51 403 33 385 l 572 949 q 628 972 596 972 l 858 972 q 881 962 874 972 q 886 938 889 951 l 772 403 l 894 403 q 919 392 911 403 q 924 368 926 382 l 893 222 q 878 198 890 208 q 850 188 865 188 l 726 188 l 694 35 q 679 10 692 19 q 653 0 667 0 l 471 0 m 306 393 l 525 393 l 590 700 l 306 393 z "},"5":{"ha":903,"x_min":10,"x_max":901,"o":"m 375 -15 q 178 19 261 -15 q 53 110 96 53 q 10 239 10 168 q 13 278 10 265 q 24 299 14 290 q 47 307 35 307 l 243 307 q 272 299 261 307 q 283 281 282 292 q 396 193 296 193 q 504 229 456 193 q 567 331 553 265 q 569 363 569 342 q 541 436 569 410 q 460 463 513 463 q 401 453 425 463 q 354 429 378 444 q 313 413 328 413 l 119 413 q 99 424 106 413 q 97 449 93 435 l 250 931 q 272 962 257 951 q 306 972 288 972 l 869 972 q 893 963 885 972 q 899 938 901 953 l 869 799 q 853 774 865 783 q 826 764 840 764 l 424 764 l 369 593 q 451 628 408 617 q 561 640 494 640 q 701 607 638 640 q 802 515 765 574 q 839 379 839 456 q 832 313 839 351 q 685 72 800 160 q 375 -15 571 -15 z "},"6":{"ha":910,"x_min":39,"x_max":883,"o":"m 392 -14 q 204 20 283 -14 q 82 116 125 54 q 39 261 39 178 q 47 335 39 296 q 226 619 74 457 l 539 944 q 594 972 563 972 l 789 972 q 808 963 801 972 q 813 942 815 954 q 808 930 811 935 q 803 924 804 925 l 563 671 q 601 675 579 675 q 740 637 675 671 q 844 543 804 603 q 883 406 883 483 q 876 340 883 378 q 787 162 856 243 q 615 33 718 81 q 392 -14 513 -14 m 433 194 q 546 232 496 194 q 610 336 596 269 q 614 371 614 356 q 580 449 614 421 q 493 478 546 478 q 380 440 431 478 q 315 336 329 403 q 311 303 311 318 q 345 223 311 251 q 433 194 379 194 z "},"7":{"ha":804,"x_min":101,"x_max":901,"o":"m 126 0 q 108 9 114 0 q 104 31 101 18 q 110 43 108 42 l 579 754 l 167 754 q 144 765 151 754 q 139 790 136 775 l 171 936 q 186 962 174 951 q 214 972 199 972 l 871 972 q 894 962 886 972 q 899 936 901 951 l 871 807 q 842 743 865 776 l 372 33 q 315 0 350 0 l 126 0 z "},"8":{"ha":942,"x_min":31,"x_max":908,"o":"m 401 -14 q 202 22 286 -14 q 74 117 118 57 q 31 250 31 176 q 36 299 31 265 q 99 428 50 371 q 217 515 149 485 q 170 581 188 543 q 153 664 153 619 q 158 713 153 690 q 226 853 174 792 q 367 951 279 915 q 571 986 456 986 q 751 954 675 986 q 868 867 828 922 q 908 744 908 813 q 904 700 908 724 q 859 593 892 638 q 769 515 826 549 q 838 440 814 486 q 861 339 861 394 q 856 283 861 307 q 712 68 826 150 q 401 -14 597 -14 m 506 588 q 619 626 572 589 q 667 718 667 663 q 638 778 667 756 q 556 801 608 801 q 441 765 488 801 q 394 669 394 728 q 423 609 394 631 q 506 588 451 588 m 415 169 q 543 212 489 169 q 597 318 597 254 q 563 388 597 363 q 474 414 529 414 q 345 373 399 414 q 292 265 292 332 q 325 195 292 221 q 415 169 358 169 z "},"9":{"ha":897,"x_min":99,"x_max":931,"o":"m 171 0 q 152 9 158 0 q 149 31 146 18 q 158 49 150 40 l 410 314 q 371 311 389 310 q 235 348 297 315 q 136 438 174 381 q 99 569 99 494 q 107 638 99 603 q 190 809 126 729 q 354 938 253 889 q 583 986 456 986 q 841 913 751 986 q 931 719 931 839 q 922 647 931 685 q 861 508 906 571 q 736 358 817 446 l 704 325 l 422 28 q 367 0 399 0 l 171 0 m 482 500 q 592 538 544 500 q 653 639 639 575 q 657 674 657 658 q 626 750 657 722 q 542 778 594 778 q 433 740 481 778 q 372 639 386 703 q 368 604 368 621 q 399 528 368 556 q 482 500 431 500 z "},"\u0000":{"ha":0,"x_min":0,"x_max":0,"o":""},"\r":{"ha":296,"x_min":0,"x_max":0,"o":""}," ":{"ha":296,"x_min":0,"x_max":0,"o":""},"A":{"ha":1007,"x_min":-71,"x_max":918,"o":"m -44 0 q -64 8 -57 0 q -71 26 -71 15 q -67 42 -71 33 l 446 932 q 510 972 469 972 l 735 972 q 782 932 776 972 l 917 42 q 908 11 918 22 q 883 0 899 0 l 707 0 q 664 33 669 0 l 642 165 l 279 165 l 199 31 q 146 0 179 0 l -44 0 m 381 374 l 628 374 l 579 728 l 381 374 z "},"Á":{"ha":1007,"x_min":-71,"x_max":971,"o":"m -44 0 q -64 8 -57 0 q -71 26 -71 15 q -67 42 -71 33 l 446 932 q 510 972 469 972 l 735 972 q 782 932 776 972 l 917 42 q 908 11 918 22 q 883 0 899 0 l 707 0 q 664 33 669 0 l 642 165 l 279 165 l 199 31 q 146 0 179 0 l -44 0 m 381 374 l 628 374 l 579 728 l 381 374 m 540 1042 q 525 1047 531 1042 q 521 1063 519 1053 q 532 1081 524 1074 l 690 1233 q 719 1255 708 1250 q 747 1260 729 1260 l 950 1260 q 967 1253 961 1260 q 971 1235 972 1246 q 960 1215 968 1222 l 740 1063 q 713 1047 725 1051 q 683 1042 700 1042 l 540 1042 z "},"Ă":{"ha":1007,"x_min":-71,"x_max":917,"o":"m -44 0 q -64 8 -57 0 q -71 26 -71 15 q -67 42 -71 33 l 446 932 q 510 972 469 972 l 735 972 q 782 932 776 972 l 917 42 q 908 11 918 22 q 883 0 899 0 l 707 0 q 664 33 669 0 l 642 165 l 279 165 l 199 31 q 146 0 179 0 l -44 0 m 381 374 l 628 374 l 579 728 l 381 374 m 642 1032 q 501 1076 551 1032 q 450 1192 450 1121 q 454 1231 450 1210 q 465 1249 457 1242 q 486 1257 474 1257 l 585 1257 q 603 1249 597 1257 q 606 1231 608 1242 q 603 1201 603 1211 q 653 1149 603 1149 q 738 1231 719 1149 q 749 1249 740 1242 q 769 1257 757 1257 l 868 1257 q 886 1249 881 1257 q 889 1231 892 1242 q 812 1085 869 1139 q 642 1032 754 1032 z "},"Â":{"ha":1007,"x_min":-71,"x_max":917,"o":"m -44 0 q -64 8 -57 0 q -71 26 -71 15 q -67 42 -71 33 l 446 932 q 510 972 469 972 l 735 972 q 782 932 776 972 l 917 42 q 908 11 918 22 q 883 0 899 0 l 707 0 q 664 33 669 0 l 642 165 l 279 165 l 199 31 q 146 0 179 0 l -44 0 m 381 374 l 628 374 l 579 728 l 381 374 m 376 1042 q 360 1061 357 1042 q 371 1081 361 1072 l 551 1235 q 579 1254 568 1249 q 606 1260 590 1260 l 731 1260 q 754 1254 744 1260 q 774 1235 764 1249 l 888 1081 q 892 1061 894 1072 q 883 1047 889 1053 q 867 1042 876 1042 l 799 1042 q 756 1051 772 1042 l 649 1118 l 513 1051 q 465 1042 493 1042 l 376 1042 z "},"Ä":{"ha":1007,"x_min":-71,"x_max":933,"o":"m -44 0 q -64 8 -57 0 q -71 26 -71 15 q -67 42 -71 33 l 446 932 q 510 972 469 972 l 735 972 q 782 932 776 972 l 917 42 q 908 11 918 22 q 883 0 899 0 l 707 0 q 664 33 669 0 l 642 165 l 279 165 l 199 31 q 146 0 179 0 l -44 0 m 381 374 l 628 374 l 579 728 l 381 374 m 400 1042 q 379 1051 386 1042 q 375 1074 372 1060 l 403 1206 q 417 1228 406 1219 q 442 1238 428 1238 l 574 1238 q 594 1228 588 1238 q 599 1206 601 1219 l 571 1074 q 557 1051 568 1060 q 532 1042 546 1042 l 400 1042 m 733 1042 q 713 1051 719 1042 q 708 1074 706 1060 l 736 1206 q 750 1228 739 1219 q 775 1238 761 1238 l 907 1238 q 928 1228 921 1238 q 932 1206 935 1219 l 904 1074 q 890 1051 901 1060 q 865 1042 879 1042 l 733 1042 z "},"À":{"ha":1007,"x_min":-71,"x_max":917,"o":"m -44 0 q -64 8 -57 0 q -71 26 -71 15 q -67 42 -71 33 l 446 932 q 510 972 469 972 l 735 972 q 782 932 776 972 l 917 42 q 908 11 918 22 q 883 0 899 0 l 707 0 q 664 33 669 0 l 642 165 l 279 165 l 199 31 q 146 0 179 0 l -44 0 m 381 374 l 628 374 l 579 728 l 381 374 m 581 1042 q 553 1047 564 1042 q 532 1063 543 1051 l 379 1214 q 375 1226 375 1221 q 384 1250 375 1240 q 407 1260 393 1260 l 600 1260 q 627 1255 618 1260 q 646 1233 636 1250 l 739 1082 q 742 1069 742 1076 q 734 1049 742 1057 q 715 1042 726 1042 l 581 1042 z "},"Ā":{"ha":1007,"x_min":-71,"x_max":917,"o":"m -44 0 q -64 8 -57 0 q -71 26 -71 15 q -67 42 -71 33 l 446 932 q 510 972 469 972 l 735 972 q 782 932 776 972 l 917 42 q 908 11 918 22 q 883 0 899 0 l 707 0 q 664 33 669 0 l 642 165 l 279 165 l 199 31 q 146 0 179 0 l -44 0 m 381 374 l 628 374 l 579 728 l 381 374 m 408 1042 q 388 1051 394 1042 q 383 1074 381 1060 l 406 1179 q 419 1202 408 1193 q 444 1211 431 1211 l 885 1211 q 906 1202 899 1211 q 910 1179 913 1193 l 888 1074 q 874 1051 885 1060 q 849 1042 863 1042 l 408 1042 z "},"Ą":{"ha":1000,"x_min":-53,"x_max":929,"o":"m 783 -306 q 649 -262 693 -306 q 604 -144 604 -219 q 611 -83 604 -121 q 640 -17 619 -46 q 689 25 660 11 q 668 53 668 31 l 649 165 l 286 165 l 207 31 q 153 0 186 0 l -28 0 q -46 9 -39 0 q -50 29 -53 18 q -46 42 -50 36 l 467 932 q 531 972 488 972 l 747 972 q 794 932 789 972 l 928 42 q 928 35 929 39 q 928 29 928 31 q 914 9 925 18 q 892 0 903 0 l 849 0 q 779 -33 806 -1 q 753 -106 753 -65 q 769 -149 753 -132 q 819 -167 786 -167 l 836 -167 q 859 -177 851 -167 q 864 -201 867 -187 l 849 -271 q 833 -295 846 -285 q 806 -306 821 -306 l 783 -306 m 389 374 l 635 374 l 588 728 l 389 374 z "},"Å":{"ha":1007,"x_min":-71,"x_max":917,"o":"m -44 0 q -64 8 -57 0 q -71 26 -71 15 q -67 42 -71 33 l 446 932 q 510 972 469 972 l 735 972 q 782 932 776 972 l 917 42 q 908 11 918 22 q 883 0 899 0 l 707 0 q 664 33 669 0 l 642 165 l 279 165 l 199 31 q 146 0 179 0 l -44 0 m 381 374 l 628 374 l 579 728 l 381 374 m 631 1028 q 553 1055 583 1028 q 522 1125 522 1082 q 525 1150 522 1133 q 581 1239 538 1204 q 679 1274 625 1274 q 758 1247 728 1274 q 788 1176 788 1219 q 765 1101 788 1135 q 706 1047 743 1067 q 631 1028 669 1028 m 644 1108 q 682 1124 665 1108 q 699 1160 699 1139 q 690 1183 699 1174 q 665 1192 681 1192 q 628 1176 644 1192 q 613 1140 613 1161 q 621 1117 613 1126 q 644 1108 629 1108 z "},"Ã":{"ha":1007,"x_min":-71,"x_max":917,"o":"m -44 0 q -64 8 -57 0 q -71 26 -71 15 q -67 42 -71 33 l 446 932 q 510 972 469 972 l 735 972 q 782 932 776 972 l 917 42 q 908 11 918 22 q 883 0 899 0 l 707 0 q 664 33 669 0 l 642 165 l 279 165 l 199 31 q 146 0 179 0 l -44 0 m 381 374 l 628 374 l 579 728 l 381 374 m 729 1035 q 679 1042 700 1035 q 635 1064 658 1050 q 606 1077 621 1071 q 576 1083 590 1083 q 551 1077 561 1083 q 529 1060 540 1071 q 499 1042 514 1042 l 411 1042 q 395 1049 401 1042 q 392 1065 389 1056 q 421 1144 399 1101 q 483 1217 443 1186 q 579 1247 524 1247 q 627 1240 607 1247 q 672 1219 647 1233 q 703 1203 690 1208 q 732 1199 717 1199 q 756 1204 747 1199 q 778 1222 765 1210 q 808 1240 793 1240 l 896 1240 q 913 1233 907 1240 q 915 1215 918 1226 q 886 1138 908 1179 q 824 1065 864 1096 q 729 1035 785 1035 z "},"Æ":{"ha":1378,"x_min":-62,"x_max":1422,"o":"m -36 0 q -56 8 -49 0 q -62 25 -62 15 q -57 43 -62 36 l 454 933 q 479 961 464 950 q 515 972 494 972 l 1390 972 q 1414 962 1406 972 q 1419 936 1422 951 l 1390 799 q 1374 774 1386 783 q 1347 764 1363 764 l 936 764 l 897 588 l 1278 588 q 1301 577 1293 588 q 1307 551 1310 567 l 1279 425 q 1264 399 1276 410 q 1236 389 1251 389 l 856 389 l 817 208 l 1240 208 q 1263 198 1256 208 q 1268 172 1271 188 l 1239 35 q 1224 10 1236 19 q 1196 0 1211 0 l 557 0 q 534 10 542 0 q 529 35 526 21 l 557 165 l 286 165 l 206 31 q 153 0 186 0 l -36 0 m 388 374 l 600 374 l 683 761 l 603 761 l 388 374 z "},"Ǽ":{"ha":1378,"x_min":-62,"x_max":1421,"o":"m -36 0 q -56 8 -49 0 q -62 25 -62 15 q -57 43 -62 36 l 454 933 q 479 961 464 950 q 515 972 494 972 l 1390 972 q 1414 962 1406 972 q 1419 936 1422 951 l 1390 799 q 1374 774 1386 783 q 1347 764 1363 764 l 936 764 l 897 588 l 1278 588 q 1301 577 1293 588 q 1307 551 1310 567 l 1279 425 q 1264 399 1276 410 q 1236 389 1251 389 l 856 389 l 817 208 l 1240 208 q 1263 198 1256 208 q 1268 172 1271 188 l 1239 35 q 1224 10 1236 19 q 1196 0 1211 0 l 557 0 q 534 10 542 0 q 529 35 526 21 l 557 165 l 286 165 l 206 31 q 153 0 186 0 l -36 0 m 388 374 l 600 374 l 683 761 l 603 761 l 388 374 m 772 1042 q 757 1047 763 1042 q 753 1063 751 1053 q 764 1081 756 1074 l 922 1233 q 951 1255 940 1250 q 979 1260 961 1260 l 1182 1260 q 1199 1253 1193 1260 q 1203 1235 1204 1246 q 1192 1215 1200 1222 l 972 1063 q 944 1047 957 1051 q 915 1042 932 1042 l 772 1042 z "},"B":{"ha":983,"x_min":11,"x_max":975,"o":"m 43 0 q 19 10 28 0 q 14 35 11 19 l 206 936 q 221 962 208 951 q 249 972 233 972 l 658 972 q 891 915 807 972 q 975 753 975 857 q 968 694 975 729 q 908 578 953 625 q 813 508 863 531 q 882 443 856 486 q 908 344 908 400 q 903 296 908 329 q 774 76 872 151 q 503 0 676 0 l 43 0 m 564 588 q 660 625 622 588 q 697 715 697 663 q 676 767 697 749 q 613 785 656 785 l 435 785 l 392 588 l 564 588 m 493 188 q 584 219 546 188 q 631 296 622 251 q 635 326 635 313 q 611 384 635 363 q 540 406 588 406 l 354 406 l 307 188 l 493 188 z "},"C":{"ha":978,"x_min":49,"x_max":990,"o":"m 429 -14 q 152 63 256 -14 q 49 286 49 140 q 56 363 49 318 q 108 610 72 463 q 277 890 154 794 q 599 986 400 986 q 797 953 707 986 q 938 856 886 919 q 990 706 990 793 q 985 649 990 675 q 973 628 982 636 q 951 619 964 619 l 751 619 q 723 627 732 619 q 713 656 714 635 q 678 750 714 722 q 578 778 643 778 q 376 603 418 778 q 326 369 347 488 q 321 314 321 342 q 353 223 321 251 q 449 194 385 194 q 562 222 514 194 q 640 317 610 250 q 661 345 650 338 q 692 353 672 353 l 892 353 q 911 344 904 353 q 915 324 918 336 q 749 75 875 164 q 429 -14 622 -14 z "},"Ć":{"ha":978,"x_min":49,"x_max":990,"o":"m 429 -14 q 152 63 256 -14 q 49 286 49 140 q 56 363 49 318 q 108 610 72 463 q 277 890 154 794 q 599 986 400 986 q 797 953 707 986 q 938 856 886 919 q 990 706 990 793 q 985 649 990 675 q 973 628 982 636 q 951 619 964 619 l 751 619 q 723 627 732 619 q 713 656 714 635 q 678 750 714 722 q 578 778 643 778 q 376 603 418 778 q 326 369 347 488 q 321 314 321 342 q 353 223 321 251 q 449 194 385 194 q 562 222 514 194 q 640 317 610 250 q 661 345 650 338 q 692 353 672 353 l 892 353 q 911 344 904 353 q 915 324 918 336 q 749 75 875 164 q 429 -14 622 -14 m 543 1042 q 528 1047 533 1042 q 524 1063 522 1053 q 535 1081 526 1074 l 693 1233 q 722 1255 711 1250 q 750 1260 732 1260 l 953 1260 q 969 1253 964 1260 q 974 1235 975 1246 q 963 1215 971 1222 l 743 1063 q 715 1047 728 1051 q 686 1042 703 1042 l 543 1042 z "},"Č":{"ha":978,"x_min":49,"x_max":990,"o":"m 429 -14 q 152 63 256 -14 q 49 286 49 140 q 56 363 49 318 q 108 610 72 463 q 277 890 154 794 q 599 986 400 986 q 797 953 707 986 q 938 856 886 919 q 990 706 990 793 q 985 649 990 675 q 973 628 982 636 q 951 619 964 619 l 751 619 q 723 627 732 619 q 713 656 714 635 q 678 750 714 722 q 578 778 643 778 q 376 603 418 778 q 326 369 347 488 q 321 314 321 342 q 353 223 321 251 q 449 194 385 194 q 562 222 514 194 q 640 317 610 250 q 661 345 650 338 q 692 353 672 353 l 892 353 q 911 344 904 353 q 915 324 918 336 q 749 75 875 164 q 429 -14 622 -14 m 569 1042 q 546 1047 556 1042 q 525 1065 536 1051 l 413 1221 q 408 1233 408 1225 q 415 1252 408 1244 q 433 1260 422 1260 l 500 1260 q 544 1250 528 1260 l 651 1183 l 788 1250 q 833 1260 807 1260 l 922 1260 q 937 1254 932 1260 q 940 1240 942 1249 q 928 1221 938 1229 l 749 1065 q 721 1047 733 1051 q 694 1042 708 1042 l 569 1042 z "},"Ç":{"ha":981,"x_min":67,"x_max":1010,"o":"m 357 -306 q 284 -289 315 -306 q 253 -253 253 -272 q 264 -235 253 -243 l 294 -212 q 311 -206 303 -206 q 334 -215 317 -206 q 375 -224 351 -224 q 411 -212 396 -224 q 431 -182 426 -200 q 424 -154 433 -165 q 393 -143 414 -143 q 361 -148 381 -143 q 333 -153 342 -153 q 315 -144 321 -153 l 293 -117 q 289 -104 289 -111 q 303 -72 289 -92 l 344 -8 q 138 78 208 7 q 67 274 67 150 q 75 363 67 315 q 128 610 96 490 q 308 888 174 790 q 639 986 443 986 q 908 913 807 986 q 1010 711 1010 839 q 1004 649 1010 678 q 990 628 1001 636 q 967 619 979 619 l 769 619 q 742 627 750 619 q 732 656 735 635 q 694 751 728 724 q 594 778 660 778 q 468 736 518 778 q 394 603 418 694 q 346 369 365 476 q 340 315 340 343 q 471 194 340 194 q 582 222 535 194 q 660 317 629 250 q 681 345 669 338 q 713 353 693 353 l 910 353 q 930 344 922 353 q 933 324 938 336 q 837 143 910 219 q 657 26 764 67 q 426 -14 550 -14 l 389 -68 q 412 -62 399 -64 q 436 -60 425 -60 q 501 -83 478 -60 q 524 -149 524 -107 q 476 -260 524 -215 q 357 -306 429 -306 z "},"Ĉ":{"ha":978,"x_min":49,"x_max":990,"o":"m 429 -14 q 152 63 256 -14 q 49 286 49 140 q 56 363 49 318 q 108 610 72 463 q 277 890 154 794 q 599 986 400 986 q 797 953 707 986 q 938 856 886 919 q 990 706 990 793 q 985 649 990 675 q 973 628 982 636 q 951 619 964 619 l 751 619 q 723 627 732 619 q 713 656 714 635 q 678 750 714 722 q 578 778 643 778 q 376 603 418 778 q 326 369 347 488 q 321 314 321 342 q 353 223 321 251 q 449 194 385 194 q 562 222 514 194 q 640 317 610 250 q 661 345 650 338 q 692 353 672 353 l 892 353 q 911 344 904 353 q 915 324 918 336 q 749 75 875 164 q 429 -14 622 -14 m 372 1042 q 356 1061 353 1042 q 367 1081 357 1072 l 547 1235 q 575 1254 564 1249 q 601 1260 586 1260 l 726 1260 q 750 1254 740 1260 q 769 1235 760 1249 l 883 1081 q 888 1061 890 1072 q 878 1047 885 1053 q 863 1042 872 1042 l 794 1042 q 751 1051 768 1042 l 644 1118 l 508 1051 q 461 1042 489 1042 l 372 1042 z "},"Ċ":{"ha":978,"x_min":49,"x_max":990,"o":"m 429 -14 q 152 63 256 -14 q 49 286 49 140 q 56 363 49 318 q 108 610 72 463 q 277 890 154 794 q 599 986 400 986 q 797 953 707 986 q 938 856 886 919 q 990 706 990 793 q 985 649 990 675 q 973 628 982 636 q 951 619 964 619 l 751 619 q 723 627 732 619 q 713 656 714 635 q 678 750 714 722 q 578 778 643 778 q 376 603 418 778 q 326 369 347 488 q 321 314 321 342 q 353 223 321 251 q 449 194 385 194 q 562 222 514 194 q 640 317 610 250 q 661 345 650 338 q 692 353 672 353 l 892 353 q 911 344 904 353 q 915 324 918 336 q 749 75 875 164 q 429 -14 622 -14 m 550 1042 q 529 1051 536 1042 q 525 1074 522 1060 l 557 1221 q 569 1244 558 1235 q 594 1253 581 1253 l 743 1253 q 764 1244 757 1253 q 768 1221 771 1235 l 736 1074 q 722 1051 733 1060 q 697 1042 711 1042 l 550 1042 z "},"D":{"ha":997,"x_min":11,"x_max":978,"o":"m 43 0 q 19 10 28 0 q 14 35 11 19 l 206 936 q 221 962 208 951 q 249 972 233 972 l 590 972 q 788 936 700 972 q 926 831 875 900 q 978 664 978 761 q 971 593 978 635 q 926 381 951 481 q 763 91 876 182 q 438 0 650 0 l 43 0 m 451 208 q 589 250 538 208 q 663 383 640 292 q 707 590 692 507 q 711 640 711 618 q 674 733 711 703 q 563 764 638 764 l 431 764 l 311 208 l 451 208 z "},"Ð":{"ha":1021,"x_min":22,"x_max":1001,"o":"m 67 0 q 43 10 51 0 q 38 35 35 19 l 117 404 l 51 404 q 30 414 38 404 q 25 439 22 424 l 46 540 q 60 565 47 554 q 89 575 74 575 l 153 575 l 229 936 q 244 962 232 951 q 272 972 257 972 l 614 972 q 811 936 724 972 q 950 831 899 900 q 1001 664 1001 761 q 994 593 1001 635 q 950 381 975 481 q 787 91 900 182 q 461 0 674 0 l 67 0 m 475 208 q 613 250 561 208 q 686 383 664 292 q 731 590 715 507 q 735 640 735 618 q 698 733 735 703 q 586 764 661 764 l 454 764 l 414 575 l 535 575 q 557 565 549 575 q 563 540 565 556 l 542 439 q 526 415 539 425 q 499 404 514 404 l 376 404 l 335 208 l 475 208 z "},"Ď":{"ha":997,"x_min":13,"x_max":978,"o":"m 43 0 q 19 10 28 0 q 14 35 11 19 l 206 936 q 221 962 208 951 q 249 972 233 972 l 590 972 q 788 936 700 972 q 926 831 875 900 q 978 664 978 761 q 971 593 978 635 q 926 381 951 481 q 763 91 876 182 q 438 0 650 0 l 43 0 m 451 208 q 589 250 538 208 q 663 383 640 292 q 707 590 692 507 q 711 640 711 618 q 674 733 711 703 q 563 764 638 764 l 431 764 l 311 208 l 451 208 m 507 1042 q 483 1047 493 1042 q 463 1065 474 1051 l 350 1221 q 346 1233 346 1225 q 353 1252 346 1244 q 371 1260 360 1260 l 438 1260 q 482 1250 465 1260 l 589 1183 l 725 1250 q 771 1260 744 1260 l 860 1260 q 874 1254 869 1260 q 878 1240 879 1249 q 865 1221 875 1229 l 686 1065 q 658 1047 671 1051 q 632 1042 646 1042 l 507 1042 z "},"Đ":{"ha":1021,"x_min":22,"x_max":1001,"o":"m 67 0 q 43 10 51 0 q 38 35 35 19 l 117 404 l 51 404 q 30 414 38 404 q 25 439 22 424 l 46 540 q 60 565 47 554 q 89 575 74 575 l 153 575 l 229 936 q 244 962 232 951 q 272 972 257 972 l 614 972 q 811 936 724 972 q 950 831 899 900 q 1001 664 1001 761 q 994 593 1001 635 q 950 381 975 481 q 787 91 900 182 q 461 0 674 0 l 67 0 m 475 208 q 613 250 561 208 q 686 383 664 292 q 731 590 715 507 q 735 640 735 618 q 698 733 735 703 q 586 764 661 764 l 454 764 l 414 575 l 535 575 q 557 565 549 575 q 563 540 565 556 l 542 439 q 526 415 539 425 q 499 404 514 404 l 376 404 l 335 208 l 475 208 z "},"E":{"ha":890,"x_min":11,"x_max":935,"o":"m 43 0 q 19 10 28 0 q 14 35 11 19 l 206 936 q 221 962 208 951 q 249 972 233 972 l 904 972 q 927 962 919 972 q 932 936 935 951 l 903 799 q 888 774 900 783 q 860 764 875 764 l 421 764 l 382 588 l 792 588 q 815 577 807 588 q 819 551 822 567 l 793 425 q 778 399 790 410 q 750 389 765 389 l 340 389 l 303 208 l 753 208 q 776 198 768 208 q 781 172 783 188 l 751 35 q 736 10 749 19 q 710 0 724 0 l 43 0 z "},"É":{"ha":890,"x_min":13,"x_max":933,"o":"m 43 0 q 19 10 28 0 q 14 35 11 19 l 206 936 q 221 962 208 951 q 249 972 233 972 l 904 972 q 927 962 919 972 q 932 936 935 951 l 903 799 q 888 774 900 783 q 860 764 875 764 l 421 764 l 382 588 l 792 588 q 815 577 807 588 q 819 551 822 567 l 793 425 q 778 399 790 410 q 750 389 765 389 l 340 389 l 303 208 l 753 208 q 776 198 768 208 q 781 172 783 188 l 751 35 q 736 10 749 19 q 710 0 724 0 l 43 0 m 490 1042 q 475 1047 481 1042 q 471 1063 469 1053 q 482 1081 474 1074 l 640 1233 q 669 1255 658 1250 q 697 1260 679 1260 l 900 1260 q 917 1253 911 1260 q 921 1235 922 1246 q 910 1215 918 1222 l 690 1063 q 663 1047 675 1051 q 633 1042 650 1042 l 490 1042 z "},"Ĕ":{"ha":890,"x_min":13,"x_max":933,"o":"m 43 0 q 19 10 28 0 q 14 35 11 19 l 206 936 q 221 962 208 951 q 249 972 233 972 l 904 972 q 927 962 919 972 q 932 936 935 951 l 903 799 q 888 774 900 783 q 860 764 875 764 l 421 764 l 382 588 l 792 588 q 815 577 807 588 q 819 551 822 567 l 793 425 q 778 399 790 410 q 750 389 765 389 l 340 389 l 303 208 l 753 208 q 776 198 768 208 q 781 172 783 188 l 751 35 q 736 10 749 19 q 710 0 724 0 l 43 0 m 588 1032 q 447 1076 497 1032 q 396 1192 396 1121 q 400 1231 396 1210 q 411 1249 403 1242 q 432 1257 419 1257 l 531 1257 q 549 1249 543 1257 q 551 1231 554 1242 q 549 1201 549 1211 q 599 1149 549 1149 q 683 1231 665 1149 q 694 1249 686 1242 q 715 1257 703 1257 l 814 1257 q 832 1249 826 1257 q 835 1231 838 1242 q 758 1085 815 1139 q 588 1032 700 1032 z "},"Ě":{"ha":890,"x_min":13,"x_max":933,"o":"m 43 0 q 19 10 28 0 q 14 35 11 19 l 206 936 q 221 962 208 951 q 249 972 233 972 l 904 972 q 927 962 919 972 q 932 936 935 951 l 903 799 q 888 774 900 783 q 860 764 875 764 l 421 764 l 382 588 l 792 588 q 815 577 807 588 q 819 551 822 567 l 793 425 q 778 399 790 410 q 750 389 765 389 l 340 389 l 303 208 l 753 208 q 776 198 768 208 q 781 172 783 188 l 751 35 q 736 10 749 19 q 710 0 724 0 l 43 0 m 517 1042 q 493 1047 503 1042 q 472 1065 483 1051 l 360 1221 q 356 1233 356 1225 q 363 1252 356 1244 q 381 1260 369 1260 l 447 1260 q 492 1250 475 1260 l 599 1183 l 735 1250 q 781 1260 754 1260 l 869 1260 q 884 1254 879 1260 q 888 1240 889 1249 q 875 1221 885 1229 l 696 1065 q 668 1047 681 1051 q 642 1042 656 1042 l 517 1042 z "},"Ê":{"ha":890,"x_min":13,"x_max":933,"o":"m 43 0 q 19 10 28 0 q 14 35 11 19 l 206 936 q 221 962 208 951 q 249 972 233 972 l 904 972 q 927 962 919 972 q 932 936 935 951 l 903 799 q 888 774 900 783 q 860 764 875 764 l 421 764 l 382 588 l 792 588 q 815 577 807 588 q 819 551 822 567 l 793 425 q 778 399 790 410 q 750 389 765 389 l 340 389 l 303 208 l 753 208 q 776 198 768 208 q 781 172 783 188 l 751 35 q 736 10 749 19 q 710 0 724 0 l 43 0 m 325 1042 q 308 1061 306 1042 q 319 1081 310 1072 l 500 1235 q 528 1254 517 1249 q 554 1260 539 1260 l 679 1260 q 703 1254 693 1260 q 722 1235 713 1249 l 836 1081 q 840 1061 843 1072 q 831 1047 838 1053 q 815 1042 825 1042 l 747 1042 q 704 1051 721 1042 l 597 1118 l 461 1051 q 414 1042 442 1042 l 325 1042 z "},"Ë":{"ha":890,"x_min":13,"x_max":933,"o":"m 43 0 q 19 10 28 0 q 14 35 11 19 l 206 936 q 221 962 208 951 q 249 972 233 972 l 904 972 q 927 962 919 972 q 932 936 935 951 l 903 799 q 888 774 900 783 q 860 764 875 764 l 421 764 l 382 588 l 792 588 q 815 577 807 588 q 819 551 822 567 l 793 425 q 778 399 790 410 q 750 389 765 389 l 340 389 l 303 208 l 753 208 q 776 198 768 208 q 781 172 783 188 l 751 35 q 736 10 749 19 q 710 0 724 0 l 43 0 m 354 1042 q 333 1051 340 1042 q 329 1074 326 1060 l 357 1206 q 371 1228 360 1219 q 396 1238 382 1238 l 528 1238 q 549 1228 542 1238 q 553 1206 556 1219 l 525 1074 q 511 1051 522 1060 q 486 1042 500 1042 l 354 1042 m 688 1042 q 667 1051 674 1042 q 663 1074 660 1060 l 690 1206 q 704 1228 693 1219 q 729 1238 715 1238 l 861 1238 q 882 1228 875 1238 q 886 1206 889 1219 l 858 1074 q 844 1051 856 1060 q 819 1042 833 1042 l 688 1042 z "},"Ė":{"ha":890,"x_min":13,"x_max":933,"o":"m 43 0 q 19 10 28 0 q 14 35 11 19 l 206 936 q 221 962 208 951 q 249 972 233 972 l 904 972 q 927 962 919 972 q 932 936 935 951 l 903 799 q 888 774 900 783 q 860 764 875 764 l 421 764 l 382 588 l 792 588 q 815 577 807 588 q 819 551 822 567 l 793 425 q 778 399 790 410 q 750 389 765 389 l 340 389 l 303 208 l 753 208 q 776 198 768 208 q 781 172 783 188 l 751 35 q 736 10 749 19 q 710 0 724 0 l 43 0 m 514 1042 q 493 1051 500 1042 q 489 1074 486 1060 l 521 1221 q 533 1244 522 1235 q 558 1253 544 1253 l 707 1253 q 728 1244 721 1253 q 732 1221 735 1235 l 700 1074 q 686 1051 697 1060 q 661 1042 675 1042 l 514 1042 z "},"È":{"ha":890,"x_min":13,"x_max":933,"o":"m 43 0 q 19 10 28 0 q 14 35 11 19 l 206 936 q 221 962 208 951 q 249 972 233 972 l 904 972 q 927 962 919 972 q 932 936 935 951 l 903 799 q 888 774 900 783 q 860 764 875 764 l 421 764 l 382 588 l 792 588 q 815 577 807 588 q 819 551 822 567 l 793 425 q 778 399 790 410 q 750 389 765 389 l 340 389 l 303 208 l 753 208 q 776 198 768 208 q 781 172 783 188 l 751 35 q 736 10 749 19 q 710 0 724 0 l 43 0 m 543 1042 q 516 1047 526 1042 q 494 1063 506 1051 l 342 1214 q 338 1226 338 1221 q 347 1250 338 1240 q 369 1260 356 1260 l 563 1260 q 590 1255 581 1260 q 608 1233 599 1250 l 701 1082 q 704 1069 704 1076 q 697 1049 704 1057 q 678 1042 689 1042 l 543 1042 z "},"Ē":{"ha":890,"x_min":13,"x_max":933,"o":"m 43 0 q 19 10 28 0 q 14 35 11 19 l 206 936 q 221 962 208 951 q 249 972 233 972 l 904 972 q 927 962 919 972 q 932 936 935 951 l 903 799 q 888 774 900 783 q 860 764 875 764 l 421 764 l 382 588 l 792 588 q 815 577 807 588 q 819 551 822 567 l 793 425 q 778 399 790 410 q 750 389 765 389 l 340 389 l 303 208 l 753 208 q 776 198 768 208 q 781 172 783 188 l 751 35 q 736 10 749 19 q 710 0 724 0 l 43 0 m 371 1042 q 350 1051 357 1042 q 346 1074 343 1060 l 368 1179 q 382 1202 371 1193 q 407 1211 393 1211 l 847 1211 q 868 1202 861 1211 q 872 1179 875 1193 l 850 1074 q 836 1051 847 1060 q 811 1042 825 1042 l 371 1042 z "},"Ę":{"ha":890,"x_min":11,"x_max":935,"o":"m 632 -306 q 492 -258 540 -306 q 443 -131 443 -210 q 449 -74 443 -100 q 478 0 461 -26 l 43 0 q 19 10 28 0 q 14 35 11 19 l 206 936 q 221 962 208 951 q 249 972 233 972 l 904 972 q 927 962 919 972 q 932 936 935 951 l 903 799 q 888 774 900 783 q 860 764 875 764 l 421 764 l 382 588 l 792 588 q 815 577 807 588 q 819 551 822 567 l 793 425 q 778 399 790 410 q 750 389 765 389 l 340 389 l 303 208 l 753 208 q 776 198 768 208 q 781 172 783 188 l 751 35 q 736 10 749 19 q 710 0 724 0 l 685 0 q 617 -33 642 -1 q 592 -104 592 -65 q 608 -149 592 -132 q 658 -167 625 -167 l 674 -167 q 697 -176 689 -167 q 701 -201 704 -186 l 686 -271 q 671 -296 683 -286 q 644 -306 658 -306 l 632 -306 z "},"F":{"ha":864,"x_min":11,"x_max":925,"o":"m 43 0 q 19 10 28 0 q 14 35 11 19 l 206 936 q 221 962 208 951 q 249 972 233 972 l 893 972 q 917 962 908 972 q 922 936 925 951 l 890 789 q 875 764 888 774 q 849 754 863 754 l 424 754 l 382 561 l 779 561 q 802 551 794 561 q 807 525 810 540 l 775 378 q 760 353 774 364 q 732 343 747 343 l 336 343 l 269 35 q 255 10 267 19 q 228 0 243 0 l 43 0 z "},"G":{"ha":1004,"x_min":67,"x_max":1022,"o":"m 431 -14 q 161 61 256 -14 q 67 278 67 136 q 75 364 67 318 q 129 618 96 478 q 308 890 172 793 q 643 986 444 986 q 851 950 765 986 q 980 855 938 914 q 1022 731 1022 796 q 1019 694 1022 706 q 1007 673 1018 682 q 983 664 996 664 l 768 664 q 747 669 754 664 q 736 683 740 674 q 697 750 728 722 q 599 778 665 778 q 397 611 439 778 q 346 371 372 507 q 340 319 340 335 q 479 194 340 194 q 615 235 558 194 q 688 357 671 275 l 693 382 l 568 382 q 545 392 553 382 q 542 418 538 403 l 564 526 q 579 552 567 542 q 607 563 592 563 l 961 563 q 984 552 976 563 q 989 526 992 542 l 954 365 q 856 162 929 247 q 674 31 783 76 q 431 -14 564 -14 z "},"Ğ":{"ha":1004,"x_min":67,"x_max":1022,"o":"m 431 -14 q 161 61 256 -14 q 67 278 67 136 q 75 364 67 318 q 129 618 96 478 q 308 890 172 793 q 643 986 444 986 q 851 950 765 986 q 980 855 938 914 q 1022 731 1022 796 q 1019 694 1022 706 q 1007 673 1018 682 q 983 664 996 664 l 768 664 q 747 669 754 664 q 736 683 740 674 q 697 750 728 722 q 599 778 665 778 q 397 611 439 778 q 346 371 372 507 q 340 319 340 335 q 479 194 340 194 q 615 235 558 194 q 688 357 671 275 l 693 382 l 568 382 q 545 392 553 382 q 542 418 538 403 l 564 526 q 579 552 567 542 q 607 563 592 563 l 961 563 q 984 552 976 563 q 989 526 992 542 l 954 365 q 856 162 929 247 q 674 31 783 76 q 431 -14 564 -14 m 633 1032 q 492 1076 543 1032 q 442 1192 442 1121 q 446 1231 442 1210 q 457 1249 449 1242 q 478 1257 465 1257 l 576 1257 q 594 1249 589 1257 q 597 1231 600 1242 q 594 1201 594 1211 q 644 1149 594 1149 q 729 1231 711 1149 q 740 1249 732 1242 q 761 1257 749 1257 l 860 1257 q 878 1249 872 1257 q 881 1231 883 1242 q 803 1085 861 1139 q 633 1032 746 1032 z "},"Ĝ":{"ha":1004,"x_min":67,"x_max":1022,"o":"m 431 -14 q 161 61 256 -14 q 67 278 67 136 q 75 364 67 318 q 129 618 96 478 q 308 890 172 793 q 643 986 444 986 q 851 950 765 986 q 980 855 938 914 q 1022 731 1022 796 q 1019 694 1022 706 q 1007 673 1018 682 q 983 664 996 664 l 768 664 q 747 669 754 664 q 736 683 740 674 q 697 750 728 722 q 599 778 665 778 q 397 611 439 778 q 346 371 372 507 q 340 319 340 335 q 479 194 340 194 q 615 235 558 194 q 688 357 671 275 l 693 382 l 568 382 q 545 392 553 382 q 542 418 538 403 l 564 526 q 579 552 567 542 q 607 563 592 563 l 961 563 q 984 552 976 563 q 989 526 992 542 l 954 365 q 856 162 929 247 q 674 31 783 76 q 431 -14 564 -14 m 371 1042 q 354 1061 351 1042 q 365 1081 356 1072 l 546 1235 q 574 1254 563 1249 q 600 1260 585 1260 l 725 1260 q 749 1254 739 1260 q 768 1235 758 1249 l 882 1081 q 886 1061 889 1072 q 877 1047 883 1053 q 861 1042 871 1042 l 793 1042 q 750 1051 767 1042 l 643 1118 l 507 1051 q 460 1042 488 1042 l 371 1042 z "},"Ģ":{"ha":1004,"x_min":67,"x_max":1022,"o":"m 431 -14 q 161 61 256 -14 q 67 278 67 136 q 75 364 67 318 q 129 618 96 478 q 308 890 172 793 q 643 986 444 986 q 851 950 765 986 q 980 855 938 914 q 1022 731 1022 796 q 1019 694 1022 706 q 1007 673 1018 682 q 983 664 996 664 l 768 664 q 747 669 754 664 q 736 683 740 674 q 697 750 728 722 q 599 778 665 778 q 397 611 439 778 q 346 371 372 507 q 340 319 340 335 q 479 194 340 194 q 615 235 558 194 q 688 357 671 275 l 693 382 l 568 382 q 545 392 553 382 q 542 418 538 403 l 564 526 q 579 552 567 542 q 607 563 592 563 l 961 563 q 984 552 976 563 q 989 526 992 542 l 954 365 q 856 162 929 247 q 674 31 783 76 q 431 -14 564 -14 m 222 -329 q 202 -319 208 -329 q 201 -297 196 -310 l 268 -118 q 291 -84 275 -99 q 329 -69 307 -69 l 490 -69 q 506 -77 500 -69 q 511 -93 513 -85 q 506 -112 511 -103 l 397 -289 q 338 -329 372 -329 l 222 -329 z "},"Ġ":{"ha":1004,"x_min":67,"x_max":1022,"o":"m 431 -14 q 161 61 256 -14 q 67 278 67 136 q 75 364 67 318 q 129 618 96 478 q 308 890 172 793 q 643 986 444 986 q 851 950 765 986 q 980 855 938 914 q 1022 731 1022 796 q 1019 694 1022 706 q 1007 673 1018 682 q 983 664 996 664 l 768 664 q 747 669 754 664 q 736 683 740 674 q 697 750 728 722 q 599 778 665 778 q 397 611 439 778 q 346 371 372 507 q 340 319 340 335 q 479 194 340 194 q 615 235 558 194 q 688 357 671 275 l 693 382 l 568 382 q 545 392 553 382 q 542 418 538 403 l 564 526 q 579 552 567 542 q 607 563 592 563 l 961 563 q 984 552 976 563 q 989 526 992 542 l 954 365 q 856 162 929 247 q 674 31 783 76 q 431 -14 564 -14 m 551 1042 q 531 1051 538 1042 q 526 1074 524 1060 l 558 1221 q 571 1244 560 1235 q 596 1253 582 1253 l 744 1253 q 765 1244 758 1253 q 769 1221 772 1235 l 738 1074 q 724 1051 735 1060 q 699 1042 713 1042 l 551 1042 z "},"H":{"ha":1039,"x_min":11,"x_max":1058,"o":"m 43 0 q 19 10 28 0 q 14 35 11 19 l 206 936 q 221 962 208 951 q 249 972 233 972 l 438 972 q 461 962 453 972 q 467 936 469 951 l 396 607 l 725 607 l 796 936 q 810 962 799 951 q 838 972 822 972 l 1028 972 q 1051 962 1043 972 q 1056 936 1058 951 l 864 35 q 849 10 861 19 q 822 0 836 0 l 632 0 q 608 10 617 0 q 603 35 600 21 l 676 375 l 347 375 l 275 35 q 260 10 272 19 q 232 0 247 0 l 43 0 z "},"Ħ":{"ha":1043,"x_min":11,"x_max":1063,"o":"m 1039 860 q 1057 847 1051 857 q 1060 824 1063 838 l 1046 754 q 1033 732 1043 742 q 1010 721 1024 722 l 864 35 q 849 10 861 19 q 822 0 836 0 l 632 0 q 608 10 617 0 q 603 35 600 21 l 676 375 l 347 375 l 275 35 q 260 10 272 19 q 232 0 247 0 l 43 0 q 19 10 28 0 q 14 35 11 19 l 160 719 q 139 731 146 721 q 135 754 132 740 l 149 824 q 163 848 151 838 q 189 860 175 858 l 206 936 q 221 962 208 951 q 249 972 233 972 l 438 972 q 461 962 453 972 q 467 936 469 951 l 450 860 l 779 860 l 796 936 q 810 962 799 951 q 838 972 822 972 l 1028 972 q 1051 962 1043 972 q 1056 936 1058 951 l 1039 860 m 396 607 l 725 607 l 749 719 l 419 719 l 396 607 z "},"Ĥ":{"ha":1039,"x_min":13,"x_max":1057,"o":"m 43 0 q 19 10 28 0 q 14 35 11 19 l 206 936 q 221 962 208 951 q 249 972 233 972 l 438 972 q 461 962 453 972 q 467 936 469 951 l 396 607 l 725 607 l 796 936 q 810 962 799 951 q 838 972 822 972 l 1028 972 q 1051 962 1043 972 q 1056 936 1058 951 l 864 35 q 849 10 861 19 q 822 0 836 0 l 632 0 q 608 10 617 0 q 603 35 600 21 l 676 375 l 347 375 l 275 35 q 260 10 272 19 q 232 0 247 0 l 43 0 m 383 1042 q 367 1061 364 1042 q 378 1081 368 1072 l 558 1235 q 586 1254 575 1249 q 613 1260 597 1260 l 738 1260 q 761 1254 751 1260 q 781 1235 771 1249 l 894 1081 q 899 1061 901 1072 q 890 1047 896 1053 q 874 1042 883 1042 l 806 1042 q 763 1051 779 1042 l 656 1118 l 519 1051 q 472 1042 500 1042 l 383 1042 z "},"I":{"ha":457,"x_min":11,"x_max":478,"o":"m 42 0 q 19 10 26 0 q 14 35 11 21 l 207 938 q 222 963 210 953 q 249 972 233 972 l 446 972 q 469 963 460 972 q 475 938 478 953 l 282 35 q 267 10 279 19 q 240 0 254 0 l 42 0 z "},"Ĳ":{"ha":1021,"x_min":11,"x_max":1049,"o":"m 43 0 q 19 10 28 0 q 14 35 11 19 l 207 938 q 222 963 210 953 q 249 972 233 972 l 446 972 q 469 963 460 972 q 475 938 478 953 l 282 35 q 267 10 279 19 q 240 0 254 0 l 43 0 m 418 -14 q 395 -4 403 -14 q 390 21 388 6 l 424 178 q 439 203 426 193 q 467 213 451 213 q 594 258 546 213 q 661 394 642 303 l 776 938 q 792 963 779 953 q 818 972 804 972 l 1017 972 q 1040 962 1032 972 q 1046 936 1049 951 l 922 357 q 833 140 893 221 q 674 23 774 60 q 418 -14 574 -14 z "},"Í":{"ha":457,"x_min":13,"x_max":710,"o":"m 42 0 q 19 10 26 0 q 14 35 11 21 l 207 938 q 222 963 210 953 q 249 972 233 972 l 446 972 q 469 963 460 972 q 475 938 478 953 l 282 35 q 267 10 279 19 q 240 0 254 0 l 42 0 m 279 1042 q 264 1047 269 1042 q 260 1063 258 1053 q 271 1081 263 1074 l 429 1233 q 458 1255 447 1250 q 486 1260 468 1260 l 689 1260 q 706 1253 700 1260 q 710 1235 711 1246 q 699 1215 707 1222 l 479 1063 q 451 1047 464 1051 q 422 1042 439 1042 l 279 1042 z "},"Ĭ":{"ha":457,"x_min":13,"x_max":619,"o":"m 42 0 q 19 10 26 0 q 14 35 11 21 l 207 938 q 222 963 210 953 q 249 972 233 972 l 446 972 q 469 963 460 972 q 475 938 478 953 l 282 35 q 267 10 279 19 q 240 0 254 0 l 42 0 m 372 1032 q 231 1076 282 1032 q 181 1192 181 1121 q 185 1231 181 1210 q 196 1249 188 1242 q 217 1257 204 1257 l 315 1257 q 333 1249 328 1257 q 336 1231 339 1242 q 333 1201 333 1211 q 383 1149 333 1149 q 468 1231 450 1149 q 479 1249 471 1242 q 500 1257 488 1257 l 599 1257 q 617 1249 611 1257 q 619 1231 622 1242 q 542 1085 600 1139 q 372 1032 485 1032 z "},"Î":{"ha":457,"x_min":13,"x_max":622,"o":"m 42 0 q 19 10 26 0 q 14 35 11 21 l 207 938 q 222 963 210 953 q 249 972 233 972 l 446 972 q 469 963 460 972 q 475 938 478 953 l 282 35 q 267 10 279 19 q 240 0 254 0 l 42 0 m 107 1042 q 90 1061 88 1042 q 101 1081 92 1072 l 282 1235 q 310 1254 299 1249 q 336 1260 321 1260 l 461 1260 q 485 1254 475 1260 q 504 1235 494 1249 l 618 1081 q 622 1061 625 1072 q 613 1047 619 1053 q 597 1042 607 1042 l 529 1042 q 486 1051 503 1042 l 379 1118 l 243 1051 q 196 1042 224 1042 l 107 1042 z "},"Ï":{"ha":457,"x_min":13,"x_max":663,"o":"m 42 0 q 19 10 26 0 q 14 35 11 21 l 207 938 q 222 963 210 953 q 249 972 233 972 l 446 972 q 469 963 460 972 q 475 938 478 953 l 282 35 q 267 10 279 19 q 240 0 254 0 l 42 0 m 129 1042 q 108 1051 115 1042 q 104 1074 101 1060 l 132 1206 q 146 1228 135 1219 q 171 1238 157 1238 l 303 1238 q 324 1228 317 1238 q 328 1206 331 1219 l 300 1074 q 286 1051 297 1060 q 261 1042 275 1042 l 129 1042 m 463 1042 q 442 1051 449 1042 q 438 1074 435 1060 l 465 1206 q 479 1228 468 1219 q 504 1238 490 1238 l 636 1238 q 657 1228 650 1238 q 661 1206 664 1219 l 633 1074 q 619 1051 631 1060 q 594 1042 608 1042 l 463 1042 z "},"İ":{"ha":457,"x_min":13,"x_max":506,"o":"m 42 0 q 19 10 26 0 q 14 35 11 21 l 207 938 q 222 963 210 953 q 249 972 233 972 l 446 972 q 469 963 460 972 q 475 938 478 953 l 282 35 q 267 10 279 19 q 240 0 254 0 l 42 0 m 288 1042 q 267 1051 274 1042 q 263 1074 260 1060 l 294 1221 q 307 1244 296 1235 q 332 1253 318 1253 l 481 1253 q 501 1244 494 1253 q 506 1221 508 1235 l 474 1074 q 460 1051 471 1060 q 435 1042 449 1042 l 288 1042 z "},"Ì":{"ha":457,"x_min":13,"x_max":475,"o":"m 42 0 q 19 10 26 0 q 14 35 11 21 l 207 938 q 222 963 210 953 q 249 972 233 972 l 446 972 q 469 963 460 972 q 475 938 478 953 l 282 35 q 267 10 279 19 q 240 0 254 0 l 42 0 m 308 1042 q 281 1047 292 1042 q 260 1063 271 1051 l 107 1214 q 103 1226 103 1221 q 112 1250 103 1240 q 135 1260 121 1260 l 328 1260 q 355 1255 346 1260 q 374 1233 364 1250 l 467 1082 q 469 1069 469 1076 q 462 1049 469 1057 q 443 1042 454 1042 l 308 1042 z "},"Ī":{"ha":457,"x_min":13,"x_max":646,"o":"m 42 0 q 19 10 26 0 q 14 35 11 21 l 207 938 q 222 963 210 953 q 249 972 233 972 l 446 972 q 469 963 460 972 q 475 938 478 953 l 282 35 q 267 10 279 19 q 240 0 254 0 l 42 0 m 143 1042 q 122 1051 129 1042 q 118 1074 115 1060 l 140 1179 q 154 1202 143 1193 q 179 1211 165 1211 l 619 1211 q 640 1202 633 1211 q 644 1179 647 1193 l 622 1074 q 608 1051 619 1060 q 583 1042 597 1042 l 143 1042 z "},"Į":{"ha":465,"x_min":1,"x_max":504,"o":"m 181 -307 q 47 -264 92 -307 q 1 -147 1 -221 q 8 -85 1 -122 q 36 -17 15 -46 q 86 25 57 11 l 67 29 q 51 40 57 31 q 47 60 44 49 l 233 938 q 249 962 236 951 q 276 972 261 972 l 475 972 q 497 963 489 972 q 501 938 504 953 l 311 35 q 296 10 308 21 q 268 0 283 0 l 251 0 q 177 -33 204 0 q 150 -107 150 -65 q 167 -151 150 -133 q 217 -168 183 -168 l 232 -168 q 255 -178 247 -168 q 260 -203 263 -187 l 246 -272 q 231 -297 243 -286 q 203 -307 218 -307 l 181 -307 z "},"Ĩ":{"ha":457,"x_min":13,"x_max":644,"o":"m 42 0 q 19 10 26 0 q 14 35 11 21 l 207 938 q 222 963 210 953 q 249 972 233 972 l 446 972 q 469 963 460 972 q 475 938 478 953 l 282 35 q 267 10 279 19 q 240 0 254 0 l 42 0 m 458 1035 q 408 1042 429 1035 q 364 1064 388 1050 q 335 1077 350 1071 q 306 1083 319 1083 q 280 1077 290 1083 q 258 1060 269 1071 q 228 1042 243 1042 l 140 1042 q 124 1049 131 1042 q 121 1065 118 1056 q 150 1144 128 1101 q 213 1217 172 1186 q 308 1247 253 1247 q 356 1240 336 1247 q 401 1219 376 1233 q 433 1203 419 1208 q 461 1199 446 1199 q 485 1204 476 1199 q 507 1222 494 1210 q 538 1240 522 1240 l 625 1240 q 642 1233 636 1240 q 644 1215 647 1226 q 615 1138 638 1179 q 553 1065 593 1096 q 458 1035 514 1035 z "},"J":{"ha":931,"x_min":-1,"x_max":960,"o":"m 371 -14 q 194 18 279 -14 q 53 112 108 50 q -1 260 -1 174 q 3 307 -1 282 q 15 328 6 319 q 38 338 25 338 l 238 338 q 265 328 257 338 q 276 299 274 319 q 305 219 278 244 q 390 194 332 194 q 565 365 529 194 l 649 757 l 203 757 q 180 767 188 757 q 175 792 172 778 l 207 938 q 222 963 210 953 q 249 972 235 972 l 928 972 q 951 962 943 972 q 957 936 960 951 l 833 357 q 682 78 794 171 q 371 -14 569 -14 z "},"Ĵ":{"ha":931,"x_min":-1,"x_max":958,"o":"m 371 -14 q 194 18 279 -14 q 53 112 108 50 q -1 260 -1 174 q 3 307 -1 282 q 15 328 6 319 q 38 338 25 338 l 238 338 q 265 328 257 338 q 276 299 274 319 q 305 219 278 244 q 390 194 332 194 q 565 365 529 194 l 649 757 l 203 757 q 180 767 188 757 q 175 792 172 778 l 207 938 q 222 963 210 953 q 249 972 235 972 l 928 972 q 951 962 943 972 q 957 936 960 951 l 833 357 q 682 78 794 171 q 371 -14 569 -14 m 349 1042 q 332 1061 329 1042 q 343 1081 333 1072 l 524 1235 q 551 1254 540 1249 q 578 1260 563 1260 l 703 1260 q 726 1254 717 1260 q 746 1235 736 1249 l 860 1081 q 864 1061 867 1072 q 855 1047 861 1053 q 839 1042 849 1042 l 771 1042 q 728 1051 744 1042 l 621 1118 l 485 1051 q 438 1042 465 1042 l 349 1042 z "},"K":{"ha":919,"x_min":11,"x_max":999,"o":"m 43 0 q 19 10 28 0 q 14 35 11 19 l 206 936 q 220 962 208 951 q 247 972 232 972 l 433 972 q 457 962 449 972 q 463 936 465 951 l 399 638 l 696 944 q 756 972 718 972 l 974 972 q 992 965 986 972 q 999 946 999 957 q 990 926 999 935 l 572 488 l 826 46 q 831 32 831 38 q 819 10 831 19 q 796 0 808 0 l 590 0 q 540 28 554 0 l 342 371 l 269 35 q 255 10 267 19 q 229 0 243 0 l 43 0 z "},"Ķ":{"ha":919,"x_min":13,"x_max":999,"o":"m 43 0 q 19 10 28 0 q 14 35 11 19 l 206 936 q 220 962 208 951 q 247 972 232 972 l 433 972 q 457 962 449 972 q 463 936 465 951 l 399 638 l 696 944 q 756 972 718 972 l 974 972 q 992 965 986 972 q 999 946 999 957 q 990 926 999 935 l 572 488 l 826 46 q 831 32 831 38 q 819 10 831 19 q 796 0 808 0 l 590 0 q 540 28 554 0 l 342 371 l 269 35 q 255 10 267 19 q 229 0 243 0 l 43 0 m 200 -329 q 180 -319 186 -329 q 179 -297 174 -310 l 246 -118 q 269 -84 253 -99 q 307 -69 285 -69 l 468 -69 q 484 -77 478 -69 q 489 -93 490 -85 q 483 -112 489 -103 l 375 -289 q 315 -329 350 -329 l 200 -329 z "},"L":{"ha":826,"x_min":11,"x_max":765,"o":"m 43 0 q 19 10 28 0 q 14 35 11 19 l 207 938 q 222 963 210 953 q 249 972 233 972 l 442 972 q 465 963 457 972 q 471 938 474 953 l 317 218 l 733 218 q 757 208 749 218 q 761 182 765 197 l 731 35 q 715 10 728 19 q 688 0 703 0 l 43 0 z "},"Ĺ":{"ha":826,"x_min":13,"x_max":763,"o":"m 43 0 q 19 10 28 0 q 14 35 11 19 l 207 938 q 222 963 210 953 q 249 972 233 972 l 442 972 q 465 963 457 972 q 471 938 474 953 l 317 218 l 733 218 q 757 208 749 218 q 761 182 765 197 l 731 35 q 715 10 728 19 q 688 0 703 0 l 43 0 m 274 1042 q 258 1047 264 1042 q 254 1063 253 1053 q 265 1081 257 1074 l 424 1233 q 452 1255 442 1250 q 481 1260 463 1260 l 683 1260 q 700 1253 694 1260 q 704 1235 706 1246 q 693 1215 701 1222 l 474 1063 q 446 1047 458 1051 q 417 1042 433 1042 l 274 1042 z "},"Ľ":{"ha":833,"x_min":13,"x_max":846,"o":"m 557 726 q 537 736 543 726 q 536 758 531 746 l 603 938 q 626 972 610 957 q 664 986 642 986 l 825 986 q 841 978 835 986 q 846 963 847 971 q 840 943 846 953 l 732 767 q 672 726 707 726 l 557 726 m 43 0 q 19 10 28 0 q 14 35 11 19 l 207 938 q 222 963 210 953 q 249 972 233 972 l 442 972 q 465 963 457 972 q 471 938 474 953 l 317 218 l 733 218 q 757 208 749 218 q 761 182 765 197 l 731 35 q 715 10 728 19 q 688 0 703 0 l 43 0 z "},"Ļ":{"ha":826,"x_min":13,"x_max":763,"o":"m 43 0 q 19 10 28 0 q 14 35 11 19 l 207 938 q 222 963 210 953 q 249 972 233 972 l 442 972 q 465 963 457 972 q 471 938 474 953 l 317 218 l 733 218 q 757 208 749 218 q 761 182 765 197 l 731 35 q 715 10 728 19 q 688 0 703 0 l 43 0 m 154 -329 q 134 -319 140 -329 q 133 -297 128 -310 l 200 -118 q 223 -84 207 -99 q 261 -69 239 -69 l 422 -69 q 438 -77 432 -69 q 443 -93 444 -85 q 438 -112 443 -103 l 329 -289 q 269 -329 304 -329 l 154 -329 z "},"Ŀ":{"ha":826,"x_min":11,"x_max":765,"o":"m 43 0 q 19 10 28 0 q 14 35 11 19 l 207 938 q 222 963 210 953 q 249 972 233 972 l 442 972 q 465 963 457 972 q 471 938 474 953 l 317 218 l 733 218 q 757 208 749 218 q 761 182 765 197 l 731 35 q 715 10 728 19 q 688 0 703 0 l 43 0 m 510 431 q 489 440 496 431 q 485 463 482 449 l 517 611 q 530 634 519 625 q 554 643 540 643 l 703 643 q 724 634 717 643 q 728 611 731 625 l 696 463 q 683 440 693 449 q 658 431 672 431 l 510 431 z "},"Ł":{"ha":838,"x_min":1,"x_max":776,"o":"m 54 0 q 31 10 39 0 q 25 35 22 19 l 90 343 l 44 326 q 26 322 32 322 q 8 330 14 322 q 4 350 1 338 l 28 460 q 40 485 31 476 q 67 501 49 494 l 129 524 l 218 938 q 233 963 221 953 q 260 972 244 972 l 453 972 q 476 963 468 972 q 482 938 485 953 l 415 628 l 633 707 q 651 711 646 711 q 669 703 663 711 q 674 683 675 696 l 650 574 q 638 548 647 557 q 611 532 629 539 l 378 447 l 328 218 l 744 218 q 768 208 760 218 q 772 182 776 197 l 742 35 q 726 10 739 19 q 700 0 714 0 l 54 0 z "},"M":{"ha":1154,"x_min":11,"x_max":1175,"o":"m 43 0 q 19 10 28 0 q 14 35 11 19 l 206 936 q 221 962 208 951 q 249 972 233 972 l 407 972 q 436 963 426 972 q 451 942 446 954 l 600 514 l 931 942 q 951 963 938 953 q 985 972 965 972 l 1143 972 q 1167 962 1158 972 q 1172 936 1175 951 l 979 35 q 965 10 976 19 q 938 0 953 0 l 761 0 q 738 10 746 0 q 732 35 729 21 l 838 532 l 635 265 q 579 233 608 233 l 504 233 q 464 265 475 233 l 369 544 l 261 35 q 246 10 258 19 q 219 0 233 0 l 43 0 z "},"N":{"ha":1003,"x_min":11,"x_max":1022,"o":"m 43 0 q 19 10 28 0 q 14 35 11 19 l 206 936 q 220 962 208 951 q 247 972 232 972 l 403 972 q 446 946 438 972 l 664 425 l 774 936 q 788 962 776 951 q 815 972 800 972 l 992 972 q 1015 962 1007 972 q 1019 936 1022 951 l 828 36 q 813 10 825 21 q 786 0 801 0 l 631 0 q 603 8 611 0 q 588 26 594 15 l 367 526 l 261 35 q 246 10 258 19 q 219 0 233 0 l 43 0 z "},"Ń":{"ha":1003,"x_min":13,"x_max":1021,"o":"m 43 0 q 19 10 28 0 q 14 35 11 19 l 206 936 q 220 962 208 951 q 247 972 232 972 l 403 972 q 446 946 438 972 l 664 425 l 774 936 q 788 962 776 951 q 815 972 800 972 l 992 972 q 1015 962 1007 972 q 1019 936 1022 951 l 828 36 q 813 10 825 21 q 786 0 801 0 l 631 0 q 603 8 611 0 q 588 26 594 15 l 367 526 l 261 35 q 246 10 258 19 q 219 0 233 0 l 43 0 m 529 1042 q 514 1047 519 1042 q 510 1063 508 1053 q 521 1081 513 1074 l 679 1233 q 708 1255 697 1250 q 736 1260 718 1260 l 939 1260 q 956 1253 950 1260 q 960 1235 961 1246 q 949 1215 957 1222 l 729 1063 q 701 1047 714 1051 q 672 1042 689 1042 l 529 1042 z "},"Ň":{"ha":1003,"x_min":13,"x_max":1021,"o":"m 43 0 q 19 10 28 0 q 14 35 11 19 l 206 936 q 220 962 208 951 q 247 972 232 972 l 403 972 q 446 946 438 972 l 664 425 l 774 936 q 788 962 776 951 q 815 972 800 972 l 992 972 q 1015 962 1007 972 q 1019 936 1022 951 l 828 36 q 813 10 825 21 q 786 0 801 0 l 631 0 q 603 8 611 0 q 588 26 594 15 l 367 526 l 261 35 q 246 10 258 19 q 219 0 233 0 l 43 0 m 556 1042 q 532 1047 542 1042 q 511 1065 522 1051 l 399 1221 q 394 1233 394 1225 q 401 1252 394 1244 q 419 1260 408 1260 l 486 1260 q 531 1250 514 1260 l 638 1183 l 774 1250 q 819 1260 793 1260 l 908 1260 q 923 1254 918 1260 q 926 1240 928 1249 q 914 1221 924 1229 l 735 1065 q 707 1047 719 1051 q 681 1042 694 1042 l 556 1042 z "},"Ņ":{"ha":1003,"x_min":13,"x_max":1021,"o":"m 43 0 q 19 10 28 0 q 14 35 11 19 l 206 936 q 220 962 208 951 q 247 972 232 972 l 403 972 q 446 946 438 972 l 664 425 l 774 936 q 788 962 776 951 q 815 972 800 972 l 992 972 q 1015 962 1007 972 q 1019 936 1022 951 l 828 36 q 813 10 825 21 q 786 0 801 0 l 631 0 q 603 8 611 0 q 588 26 594 15 l 367 526 l 261 35 q 246 10 258 19 q 219 0 233 0 l 43 0 m 226 -329 q 206 -319 213 -329 q 206 -297 200 -310 l 272 -118 q 295 -84 279 -99 q 333 -69 311 -69 l 494 -69 q 510 -77 504 -69 q 515 -93 517 -85 q 510 -112 515 -103 l 401 -289 q 342 -329 376 -329 l 226 -329 z "},"Ŋ":{"ha":1001,"x_min":32,"x_max":1042,"o":"m 385 -312 q 362 -303 369 -312 q 357 -278 354 -293 l 388 -132 q 403 -108 390 -118 q 431 -97 415 -97 l 469 -97 q 554 -69 524 -97 q 594 7 585 -42 l 601 39 l 385 524 l 281 35 q 265 10 278 19 q 238 0 253 0 l 61 0 q 40 10 47 0 q 35 35 32 19 l 225 936 q 240 962 228 951 q 268 972 253 972 l 425 972 q 467 946 456 972 l 683 428 l 792 936 q 807 962 794 951 q 835 972 819 972 l 1011 972 q 1034 962 1026 972 q 1039 936 1042 951 l 839 -3 q 690 -232 807 -151 q 401 -312 574 -312 l 385 -312 z "},"Ñ":{"ha":1003,"x_min":13,"x_max":1021,"o":"m 43 0 q 19 10 28 0 q 14 35 11 19 l 206 936 q 220 962 208 951 q 247 972 232 972 l 403 972 q 446 946 438 972 l 664 425 l 774 936 q 788 962 776 951 q 815 972 800 972 l 992 972 q 1015 962 1007 972 q 1019 936 1022 951 l 828 36 q 813 10 825 21 q 786 0 801 0 l 631 0 q 603 8 611 0 q 588 26 594 15 l 367 526 l 261 35 q 246 10 258 19 q 219 0 233 0 l 43 0 m 722 1035 q 672 1042 693 1035 q 628 1064 651 1050 q 599 1077 614 1071 q 569 1083 583 1083 q 544 1077 554 1083 q 522 1060 533 1071 q 492 1042 507 1042 l 404 1042 q 388 1049 394 1042 q 385 1065 382 1056 q 414 1144 392 1101 q 476 1217 436 1186 q 572 1247 517 1247 q 620 1240 600 1247 q 665 1219 640 1233 q 697 1203 683 1208 q 725 1199 710 1199 q 749 1204 740 1199 q 771 1222 758 1210 q 801 1240 786 1240 l 889 1240 q 906 1233 900 1240 q 908 1215 911 1226 q 879 1138 901 1179 q 817 1065 857 1096 q 722 1035 778 1035 z "},"O":{"ha":993,"x_min":49,"x_max":976,"o":"m 428 -14 q 234 21 319 -14 q 99 124 149 56 q 49 290 49 192 q 56 364 49 319 q 107 604 79 499 q 274 890 154 793 q 597 986 394 986 q 790 950 704 986 q 926 844 876 914 q 976 675 976 774 q 969 604 976 646 q 918 364 950 492 q 751 80 871 174 q 428 -14 631 -14 m 449 194 q 576 238 524 194 q 650 372 628 282 q 699 600 681 499 q 704 657 704 628 q 578 778 704 778 q 451 734 503 778 q 376 600 399 690 q 326 372 353 513 q 321 315 321 344 q 449 194 321 194 z "},"Ó":{"ha":993,"x_min":49,"x_max":976,"o":"m 428 -14 q 234 21 319 -14 q 99 124 149 56 q 49 290 49 192 q 56 364 49 319 q 107 604 79 499 q 274 890 154 793 q 597 986 394 986 q 790 950 704 986 q 926 844 876 914 q 976 675 976 774 q 969 604 976 646 q 918 364 950 492 q 751 80 871 174 q 428 -14 631 -14 m 449 194 q 576 238 524 194 q 650 372 628 282 q 699 600 681 499 q 704 657 704 628 q 578 778 704 778 q 451 734 503 778 q 376 600 399 690 q 326 372 353 513 q 321 315 321 344 q 449 194 321 194 m 531 1042 q 515 1047 521 1042 q 511 1063 510 1053 q 522 1081 514 1074 l 681 1233 q 709 1255 699 1250 q 738 1260 719 1260 l 940 1260 q 957 1253 951 1260 q 961 1235 963 1246 q 950 1215 958 1222 l 731 1063 q 703 1047 715 1051 q 674 1042 690 1042 l 531 1042 z "},"Ŏ":{"ha":993,"x_min":49,"x_max":976,"o":"m 428 -14 q 234 21 319 -14 q 99 124 149 56 q 49 290 49 192 q 56 364 49 319 q 107 604 79 499 q 274 890 154 793 q 597 986 394 986 q 790 950 704 986 q 926 844 876 914 q 976 675 976 774 q 969 604 976 646 q 918 364 950 492 q 751 80 871 174 q 428 -14 631 -14 m 449 194 q 576 238 524 194 q 650 372 628 282 q 699 600 681 499 q 704 657 704 628 q 578 778 704 778 q 451 734 503 778 q 376 600 399 690 q 326 372 353 513 q 321 315 321 344 q 449 194 321 194 m 628 1032 q 487 1076 538 1032 q 436 1192 436 1121 q 440 1231 436 1210 q 451 1249 443 1242 q 472 1257 460 1257 l 571 1257 q 589 1249 583 1257 q 592 1231 594 1242 q 589 1201 589 1211 q 639 1149 589 1149 q 724 1231 706 1149 q 735 1249 726 1242 q 756 1257 743 1257 l 854 1257 q 872 1249 867 1257 q 875 1231 878 1242 q 798 1085 856 1139 q 628 1032 740 1032 z "},"Ô":{"ha":993,"x_min":49,"x_max":976,"o":"m 428 -14 q 234 21 319 -14 q 99 124 149 56 q 49 290 49 192 q 56 364 49 319 q 107 604 79 499 q 274 890 154 793 q 597 986 394 986 q 790 950 704 986 q 926 844 876 914 q 976 675 976 774 q 969 604 976 646 q 918 364 950 492 q 751 80 871 174 q 428 -14 631 -14 m 449 194 q 576 238 524 194 q 650 372 628 282 q 699 600 681 499 q 704 657 704 628 q 578 778 704 778 q 451 734 503 778 q 376 600 399 690 q 326 372 353 513 q 321 315 321 344 q 449 194 321 194 m 365 1042 q 349 1061 346 1042 q 360 1081 350 1072 l 540 1235 q 568 1254 557 1249 q 594 1260 579 1260 l 719 1260 q 743 1254 733 1260 q 763 1235 753 1249 l 876 1081 q 881 1061 883 1072 q 872 1047 878 1053 q 856 1042 865 1042 l 788 1042 q 744 1051 761 1042 l 638 1118 l 501 1051 q 454 1042 482 1042 l 365 1042 z "},"Ö":{"ha":993,"x_min":49,"x_max":976,"o":"m 428 -14 q 234 21 319 -14 q 99 124 149 56 q 49 290 49 192 q 56 364 49 319 q 107 604 79 499 q 274 890 154 793 q 597 986 394 986 q 790 950 704 986 q 926 844 876 914 q 976 675 976 774 q 969 604 976 646 q 918 364 950 492 q 751 80 871 174 q 428 -14 631 -14 m 449 194 q 576 238 524 194 q 650 372 628 282 q 699 600 681 499 q 704 657 704 628 q 578 778 704 778 q 451 734 503 778 q 376 600 399 690 q 326 372 353 513 q 321 315 321 344 q 449 194 321 194 m 392 1042 q 371 1051 378 1042 q 367 1074 364 1060 l 394 1206 q 408 1228 397 1219 q 433 1238 419 1238 l 565 1238 q 586 1228 579 1238 q 590 1206 593 1219 l 563 1074 q 549 1051 560 1060 q 524 1042 538 1042 l 392 1042 m 725 1042 q 704 1051 711 1042 q 700 1074 697 1060 l 728 1206 q 742 1228 731 1219 q 767 1238 753 1238 l 899 1238 q 919 1228 913 1238 q 924 1206 926 1219 l 896 1074 q 882 1051 893 1060 q 857 1042 871 1042 l 725 1042 z "},"Ò":{"ha":993,"x_min":49,"x_max":976,"o":"m 428 -14 q 234 21 319 -14 q 99 124 149 56 q 49 290 49 192 q 56 364 49 319 q 107 604 79 499 q 274 890 154 793 q 597 986 394 986 q 790 950 704 986 q 926 844 876 914 q 976 675 976 774 q 969 604 976 646 q 918 364 950 492 q 751 80 871 174 q 428 -14 631 -14 m 449 194 q 576 238 524 194 q 650 372 628 282 q 699 600 681 499 q 704 657 704 628 q 578 778 704 778 q 451 734 503 778 q 376 600 399 690 q 326 372 353 513 q 321 315 321 344 q 449 194 321 194 m 569 1042 q 542 1047 553 1042 q 521 1063 532 1051 l 368 1214 q 364 1226 364 1221 q 373 1250 364 1240 q 396 1260 382 1260 l 589 1260 q 616 1255 607 1260 q 635 1233 625 1250 l 728 1082 q 731 1069 731 1076 q 723 1049 731 1057 q 704 1042 715 1042 l 569 1042 z "},"Ő":{"ha":993,"x_min":49,"x_max":1040,"o":"m 428 -14 q 234 21 319 -14 q 99 124 149 56 q 49 290 49 192 q 56 364 49 319 q 107 604 79 499 q 274 890 154 793 q 597 986 394 986 q 790 950 704 986 q 926 844 876 914 q 976 675 976 774 q 969 604 976 646 q 918 364 950 492 q 751 80 871 174 q 428 -14 631 -14 m 449 194 q 576 238 524 194 q 650 372 628 282 q 699 600 681 499 q 704 657 704 628 q 578 778 704 778 q 451 734 503 778 q 376 600 399 690 q 326 372 353 513 q 321 315 321 344 q 449 194 321 194 m 410 1042 q 394 1047 400 1042 q 392 1061 389 1053 q 401 1082 392 1069 l 501 1233 q 524 1253 511 1247 q 558 1260 538 1260 l 722 1260 q 741 1253 735 1260 q 744 1235 747 1246 q 733 1215 744 1226 l 561 1061 q 513 1042 539 1042 l 410 1042 m 706 1042 q 690 1047 696 1042 q 686 1061 685 1053 q 697 1082 688 1069 l 797 1233 q 820 1253 807 1247 q 854 1260 833 1260 l 1018 1260 q 1040 1240 1040 1260 q 1029 1215 1040 1226 l 857 1061 q 807 1042 835 1042 l 706 1042 z "},"Ō":{"ha":993,"x_min":49,"x_max":976,"o":"m 428 -14 q 234 21 319 -14 q 99 124 149 56 q 49 290 49 192 q 56 364 49 319 q 107 604 79 499 q 274 890 154 793 q 597 986 394 986 q 790 950 704 986 q 926 844 876 914 q 976 675 976 774 q 969 604 976 646 q 918 364 950 492 q 751 80 871 174 q 428 -14 631 -14 m 449 194 q 576 238 524 194 q 650 372 628 282 q 699 600 681 499 q 704 657 704 628 q 578 778 704 778 q 451 734 503 778 q 376 600 399 690 q 326 372 353 513 q 321 315 321 344 q 449 194 321 194 m 401 1042 q 381 1051 388 1042 q 376 1074 374 1060 l 399 1179 q 413 1202 401 1193 q 438 1211 424 1211 l 878 1211 q 899 1202 892 1211 q 903 1179 906 1193 l 881 1074 q 867 1051 878 1060 q 842 1042 856 1042 l 401 1042 z "},"Ø":{"ha":1038,"x_min":-1,"x_max":1115,"o":"m 451 -14 q 198 51 289 -14 q 97 246 107 117 l 40 226 q 25 222 29 222 q 6 230 13 222 q 1 250 -1 238 l 25 360 q 38 386 29 378 q 64 401 46 394 l 110 418 q 151 604 133 538 q 333 887 196 788 q 664 986 469 986 q 905 924 814 986 q 1013 743 996 861 l 1074 765 q 1090 769 1085 769 q 1109 762 1103 769 q 1114 742 1115 754 l 1090 633 q 1078 607 1086 615 q 1050 592 1069 599 l 1010 576 q 963 364 992 485 q 783 82 917 178 q 451 -14 649 -14 m 746 647 q 714 746 747 714 q 619 778 681 778 q 495 734 547 778 q 419 600 443 690 q 403 524 408 553 l 746 647 m 496 194 q 622 238 569 194 q 696 372 674 282 l 717 471 l 367 344 q 395 231 361 268 q 496 194 429 194 z "},"Ǿ":{"ha":1035,"x_min":0,"x_max":1114,"o":"m 557 1042 q 542 1047 547 1042 q 538 1063 536 1053 q 549 1081 540 1074 l 707 1233 q 735 1255 725 1250 q 764 1260 746 1260 l 967 1260 q 983 1253 978 1260 q 988 1235 989 1246 q 976 1215 985 1222 l 757 1063 q 729 1047 742 1051 q 700 1042 717 1042 l 557 1042 m 451 -14 q 198 51 289 -14 q 97 246 107 117 l 40 226 q 25 222 29 222 q 6 230 13 222 q 1 250 -1 238 l 25 360 q 38 386 29 378 q 64 401 46 394 l 110 418 q 151 604 133 538 q 333 887 196 788 q 664 986 469 986 q 905 924 814 986 q 1013 743 996 861 l 1074 765 q 1090 769 1085 769 q 1109 762 1103 769 q 1114 742 1115 754 l 1090 633 q 1078 607 1086 615 q 1050 592 1069 599 l 1010 576 q 963 364 992 485 q 783 82 917 178 q 451 -14 649 -14 m 746 647 q 714 746 747 714 q 619 778 681 778 q 495 734 547 778 q 419 600 443 690 q 403 524 408 553 l 746 647 m 496 194 q 622 238 569 194 q 696 372 674 282 l 717 471 l 367 344 q 395 231 361 268 q 496 194 429 194 z "},"Õ":{"ha":993,"x_min":49,"x_max":976,"o":"m 428 -14 q 234 21 319 -14 q 99 124 149 56 q 49 290 49 192 q 56 364 49 319 q 107 604 79 499 q 274 890 154 793 q 597 986 394 986 q 790 950 704 986 q 926 844 876 914 q 976 675 976 774 q 969 604 976 646 q 918 364 950 492 q 751 80 871 174 q 428 -14 631 -14 m 449 194 q 576 238 524 194 q 650 372 628 282 q 699 600 681 499 q 704 657 704 628 q 578 778 704 778 q 451 734 503 778 q 376 600 399 690 q 326 372 353 513 q 321 315 321 344 q 449 194 321 194 m 729 1035 q 679 1042 700 1035 q 635 1064 658 1050 q 606 1077 621 1071 q 576 1083 590 1083 q 551 1077 561 1083 q 529 1060 540 1071 q 499 1042 514 1042 l 411 1042 q 395 1049 401 1042 q 392 1065 389 1056 q 421 1144 399 1101 q 483 1217 443 1186 q 579 1247 524 1247 q 627 1240 607 1247 q 672 1219 647 1233 q 703 1203 690 1208 q 732 1199 717 1199 q 756 1204 747 1199 q 778 1222 765 1210 q 808 1240 793 1240 l 896 1240 q 913 1233 907 1240 q 915 1215 918 1226 q 886 1138 908 1179 q 824 1065 864 1096 q 729 1035 785 1035 z "},"Œ":{"ha":1342,"x_min":51,"x_max":1388,"o":"m 435 0 q 158 78 264 0 q 51 304 51 157 q 58 381 51 336 q 103 592 76 485 q 269 878 150 783 q 596 972 388 972 l 1356 972 q 1379 962 1371 972 q 1385 936 1388 951 l 1356 799 q 1340 774 1351 783 q 1313 764 1328 764 l 910 764 l 872 588 l 1243 588 q 1267 577 1258 588 q 1272 551 1275 567 l 1244 425 q 1229 399 1242 410 q 1201 389 1217 389 l 831 389 l 792 208 l 1206 208 q 1228 198 1221 208 q 1233 172 1236 188 l 1204 35 q 1189 10 1201 19 q 1161 0 1176 0 l 435 0 m 542 208 l 660 764 l 582 764 q 442 723 494 764 q 367 590 389 682 q 322 383 338 471 q 317 332 317 347 q 353 239 317 269 q 461 208 389 208 l 542 208 z "},"P":{"ha":944,"x_min":11,"x_max":967,"o":"m 43 0 q 19 10 28 0 q 14 35 11 19 l 206 936 q 221 962 208 951 q 249 972 233 972 l 621 972 q 872 908 776 972 q 967 722 967 844 q 958 650 967 688 q 817 412 924 489 q 528 335 711 335 l 347 335 l 283 35 q 269 10 281 19 q 242 0 257 0 l 43 0 m 538 533 q 635 563 593 533 q 689 651 676 593 q 694 693 694 682 q 594 772 694 772 l 436 772 l 385 533 l 538 533 z "},"Þ":{"ha":944,"x_min":11,"x_max":933,"o":"m 43 0 q 19 10 28 0 q 14 35 11 19 l 207 938 q 222 963 210 953 q 249 972 233 972 l 447 972 q 471 963 463 972 q 476 938 479 953 l 450 814 l 588 814 q 838 750 743 814 q 933 564 933 686 q 925 492 933 529 q 784 253 890 331 q 494 176 678 176 l 314 176 l 283 35 q 269 10 281 19 q 242 0 257 0 l 43 0 m 504 375 q 601 406 560 375 q 656 493 643 436 q 661 535 661 524 q 638 593 661 572 q 561 614 615 614 l 403 614 l 351 375 l 504 375 z "},"Q":{"ha":993,"x_min":65,"x_max":996,"o":"m 626 -90 q 599 -82 607 -90 q 581 -58 590 -74 l 547 3 q 425 -14 492 -14 q 159 59 253 -14 q 65 275 65 132 q 74 364 65 317 q 125 604 93 469 q 306 887 169 788 q 638 986 443 986 q 901 910 807 986 q 996 690 996 833 q 988 604 996 650 q 936 364 964 468 q 781 99 893 193 l 851 -47 q 853 -61 854 -54 q 841 -81 851 -72 q 818 -90 831 -90 l 626 -90 m 469 194 q 595 238 543 194 q 669 372 647 282 q 717 600 701 504 q 722 653 722 639 q 688 747 722 717 q 593 778 654 778 q 469 734 521 778 q 393 600 417 690 q 346 372 363 467 q 340 319 340 333 q 374 225 340 256 q 469 194 408 194 z "},"R":{"ha":965,"x_min":32,"x_max":981,"o":"m 61 0 q 40 10 47 0 q 35 35 32 19 l 225 936 q 240 962 228 951 q 268 972 253 972 l 650 972 q 894 910 808 972 q 981 731 981 847 q 972 654 981 694 q 893 489 953 557 q 746 383 833 421 l 861 44 q 863 29 864 35 q 849 8 860 17 q 826 0 839 0 l 631 0 q 582 38 592 0 l 493 339 l 360 339 l 294 35 q 279 10 292 19 q 251 0 267 0 l 61 0 m 557 543 q 654 573 617 543 q 703 656 692 603 q 706 688 706 667 q 681 749 706 726 q 606 772 656 772 l 451 772 l 403 543 l 557 543 z "},"Ŕ":{"ha":964,"x_min":33,"x_max":981,"o":"m 61 0 q 40 10 47 0 q 35 35 32 19 l 225 936 q 240 962 228 951 q 268 972 253 972 l 650 972 q 894 910 808 972 q 981 731 981 847 q 972 654 981 694 q 893 489 953 557 q 746 383 833 421 l 861 44 q 863 29 864 35 q 849 8 860 17 q 826 0 839 0 l 631 0 q 582 38 592 0 l 493 339 l 360 339 l 294 35 q 279 10 292 19 q 251 0 267 0 l 61 0 m 557 543 q 654 573 617 543 q 703 656 692 603 q 706 688 706 667 q 681 749 706 726 q 606 772 656 772 l 451 772 l 403 543 l 557 543 m 486 1042 q 471 1047 476 1042 q 467 1063 465 1053 q 478 1081 469 1074 l 636 1233 q 665 1255 654 1250 q 693 1260 675 1260 l 896 1260 q 913 1253 907 1260 q 917 1235 918 1246 q 906 1215 914 1222 l 686 1063 q 658 1047 671 1051 q 629 1042 646 1042 l 486 1042 z "},"Ř":{"ha":964,"x_min":33,"x_max":981,"o":"m 61 0 q 40 10 47 0 q 35 35 32 19 l 225 936 q 240 962 228 951 q 268 972 253 972 l 650 972 q 894 910 808 972 q 981 731 981 847 q 972 654 981 694 q 893 489 953 557 q 746 383 833 421 l 861 44 q 863 29 864 35 q 849 8 860 17 q 826 0 839 0 l 631 0 q 582 38 592 0 l 493 339 l 360 339 l 294 35 q 279 10 292 19 q 251 0 267 0 l 61 0 m 557 543 q 654 573 617 543 q 703 656 692 603 q 706 688 706 667 q 681 749 706 726 q 606 772 656 772 l 451 772 l 403 543 l 557 543 m 519 1042 q 496 1047 506 1042 q 475 1065 486 1051 l 363 1221 q 358 1233 358 1225 q 365 1252 358 1244 q 383 1260 372 1260 l 450 1260 q 494 1250 478 1260 l 601 1183 l 738 1250 q 783 1260 757 1260 l 872 1260 q 887 1254 882 1260 q 890 1240 892 1249 q 878 1221 888 1229 l 699 1065 q 671 1047 683 1051 q 644 1042 658 1042 l 519 1042 z "},"Ŗ":{"ha":964,"x_min":33,"x_max":981,"o":"m 61 0 q 40 10 47 0 q 35 35 32 19 l 225 936 q 240 962 228 951 q 268 972 253 972 l 650 972 q 894 910 808 972 q 981 731 981 847 q 972 654 981 694 q 893 489 953 557 q 746 383 833 421 l 861 44 q 863 29 864 35 q 849 8 860 17 q 826 0 839 0 l 631 0 q 582 38 592 0 l 493 339 l 360 339 l 294 35 q 279 10 292 19 q 251 0 267 0 l 61 0 m 557 543 q 654 573 617 543 q 703 656 692 603 q 706 688 706 667 q 681 749 706 726 q 606 772 656 772 l 451 772 l 403 543 l 557 543 m 214 -329 q 194 -319 200 -329 q 193 -297 188 -310 l 260 -118 q 283 -84 267 -99 q 321 -69 299 -69 l 482 -69 q 498 -77 492 -69 q 503 -93 504 -85 q 497 -112 503 -103 l 389 -289 q 329 -329 364 -329 l 214 -329 z "},"S":{"ha":925,"x_min":4,"x_max":918,"o":"m 392 -14 q 181 19 268 -14 q 49 109 93 53 q 4 233 4 165 q 7 267 4 244 q 19 288 8 279 q 42 296 29 296 l 228 296 q 255 290 246 296 q 274 271 264 285 q 319 216 285 238 q 413 194 353 194 q 534 217 488 194 q 590 281 581 240 q 592 296 592 286 q 549 350 592 331 q 393 394 506 369 q 117 639 117 451 q 125 707 117 672 q 265 912 153 838 q 553 986 376 986 q 742 949 658 986 q 872 853 825 911 q 918 738 918 796 q 915 714 918 731 q 904 692 913 701 q 883 683 896 683 l 686 683 q 644 708 656 683 q 612 758 642 738 q 533 778 582 778 q 437 757 474 778 q 390 696 400 736 q 389 681 389 690 q 427 627 389 647 q 564 586 465 607 q 793 499 721 557 q 865 344 865 440 q 858 276 865 306 q 709 60 828 133 q 392 -14 590 -14 z "},"Ś":{"ha":925,"x_min":4,"x_max":922,"o":"m 392 -14 q 181 19 268 -14 q 49 109 93 53 q 4 233 4 165 q 7 267 4 244 q 19 288 8 279 q 42 296 29 296 l 228 296 q 255 290 246 296 q 274 271 264 285 q 319 216 285 238 q 413 194 353 194 q 534 217 488 194 q 590 281 581 240 q 592 296 592 286 q 549 350 592 331 q 393 394 506 369 q 117 639 117 451 q 125 707 117 672 q 265 912 153 838 q 553 986 376 986 q 742 949 658 986 q 872 853 825 911 q 918 738 918 796 q 915 714 918 731 q 904 692 913 701 q 883 683 896 683 l 686 683 q 644 708 656 683 q 612 758 642 738 q 533 778 582 778 q 437 757 474 778 q 390 696 400 736 q 389 681 389 690 q 427 627 389 647 q 564 586 465 607 q 793 499 721 557 q 865 344 865 440 q 858 276 865 306 q 709 60 828 133 q 392 -14 590 -14 m 492 1042 q 476 1047 482 1042 q 472 1063 471 1053 q 483 1081 475 1074 l 642 1233 q 670 1255 660 1250 q 699 1260 681 1260 l 901 1260 q 918 1253 913 1260 q 922 1235 924 1246 q 911 1215 919 1222 l 692 1063 q 664 1047 676 1051 q 635 1042 651 1042 l 492 1042 z "},"Š":{"ha":925,"x_min":4,"x_max":918,"o":"m 392 -14 q 181 19 268 -14 q 49 109 93 53 q 4 233 4 165 q 7 267 4 244 q 19 288 8 279 q 42 296 29 296 l 228 296 q 255 290 246 296 q 274 271 264 285 q 319 216 285 238 q 413 194 353 194 q 534 217 488 194 q 590 281 581 240 q 592 296 592 286 q 549 350 592 331 q 393 394 506 369 q 117 639 117 451 q 125 707 117 672 q 265 912 153 838 q 553 986 376 986 q 742 949 658 986 q 872 853 825 911 q 918 738 918 796 q 915 714 918 731 q 904 692 913 701 q 883 683 896 683 l 686 683 q 644 708 656 683 q 612 758 642 738 q 533 778 582 778 q 437 757 474 778 q 390 696 400 736 q 389 681 389 690 q 427 627 389 647 q 564 586 465 607 q 793 499 721 557 q 865 344 865 440 q 858 276 865 306 q 709 60 828 133 q 392 -14 590 -14 m 514 1042 q 490 1047 500 1042 q 469 1065 481 1051 l 357 1221 q 353 1233 353 1225 q 360 1252 353 1244 q 378 1260 367 1260 l 444 1260 q 489 1250 472 1260 l 596 1183 l 732 1250 q 778 1260 751 1260 l 867 1260 q 881 1254 876 1260 q 885 1240 886 1249 q 872 1221 882 1229 l 693 1065 q 665 1047 678 1051 q 639 1042 653 1042 l 514 1042 z "},"Ş":{"ha":925,"x_min":24,"x_max":940,"o":"m 325 -306 q 252 -289 283 -306 q 221 -253 221 -272 q 232 -235 221 -243 l 263 -212 q 279 -206 271 -206 q 302 -215 285 -206 q 343 -224 319 -224 q 379 -212 364 -224 q 399 -182 394 -200 q 392 -154 401 -165 q 361 -143 382 -143 q 329 -148 349 -143 q 301 -153 310 -153 q 283 -144 290 -153 l 261 -117 q 257 -104 257 -111 q 271 -72 257 -92 l 313 -10 q 97 69 171 4 q 24 224 24 133 q 28 267 24 246 q 41 288 31 279 q 64 296 51 296 l 250 296 q 276 290 267 296 q 293 271 285 285 q 340 216 306 238 q 436 194 374 194 q 557 217 511 194 q 610 281 603 240 q 611 297 611 286 q 568 350 611 331 q 414 394 525 369 q 206 477 276 424 q 136 625 136 531 q 143 690 136 661 q 224 844 161 776 q 382 949 286 911 q 594 986 478 986 q 785 950 707 986 q 901 858 863 914 q 940 743 940 801 q 938 714 940 733 q 925 692 936 701 q 901 683 914 683 l 707 683 q 665 708 676 683 q 633 758 663 738 q 551 778 603 778 q 456 757 492 778 q 411 696 419 736 q 410 681 410 690 q 448 627 410 647 q 585 586 486 607 q 817 505 744 557 q 889 361 889 453 q 881 293 889 331 q 792 131 860 200 q 621 24 724 61 q 394 -14 518 -12 l 357 -68 q 380 -62 367 -64 q 404 -60 393 -60 q 469 -83 446 -60 q 492 -149 492 -107 q 444 -260 492 -215 q 325 -306 397 -306 z "},"Ŝ":{"ha":925,"x_min":4,"x_max":918,"o":"m 392 -14 q 181 19 268 -14 q 49 109 93 53 q 4 233 4 165 q 7 267 4 244 q 19 288 8 279 q 42 296 29 296 l 228 296 q 255 290 246 296 q 274 271 264 285 q 319 216 285 238 q 413 194 353 194 q 534 217 488 194 q 590 281 581 240 q 592 296 592 286 q 549 350 592 331 q 393 394 506 369 q 117 639 117 451 q 125 707 117 672 q 265 912 153 838 q 553 986 376 986 q 742 949 658 986 q 872 853 825 911 q 918 738 918 796 q 915 714 918 731 q 904 692 913 701 q 883 683 896 683 l 686 683 q 644 708 656 683 q 612 758 642 738 q 533 778 582 778 q 437 757 474 778 q 390 696 400 736 q 389 681 389 690 q 427 627 389 647 q 564 586 465 607 q 793 499 721 557 q 865 344 865 440 q 858 276 865 306 q 709 60 828 133 q 392 -14 590 -14 m 325 1042 q 308 1061 306 1042 q 319 1081 310 1072 l 500 1235 q 528 1254 517 1249 q 554 1260 539 1260 l 679 1260 q 703 1254 693 1260 q 722 1235 713 1249 l 836 1081 q 840 1061 843 1072 q 831 1047 838 1053 q 815 1042 825 1042 l 747 1042 q 704 1051 721 1042 l 597 1118 l 461 1051 q 414 1042 442 1042 l 325 1042 z "},"Ș":{"ha":925,"x_min":4,"x_max":918,"o":"m 392 -14 q 181 19 268 -14 q 49 109 93 53 q 4 233 4 165 q 7 267 4 244 q 19 288 8 279 q 42 296 29 296 l 228 296 q 255 290 246 296 q 274 271 264 285 q 319 216 285 238 q 413 194 353 194 q 534 217 488 194 q 590 281 581 240 q 592 296 592 286 q 549 350 592 331 q 393 394 506 369 q 117 639 117 451 q 125 707 117 672 q 265 912 153 838 q 553 986 376 986 q 742 949 658 986 q 872 853 825 911 q 918 738 918 796 q 915 714 918 731 q 904 692 913 701 q 883 683 896 683 l 686 683 q 644 708 656 683 q 612 758 642 738 q 533 778 582 778 q 437 757 474 778 q 390 696 400 736 q 389 681 389 690 q 427 627 389 647 q 564 586 465 607 q 793 499 721 557 q 865 344 865 440 q 858 276 865 306 q 709 60 828 133 q 392 -14 590 -14 m 176 -329 q 156 -319 163 -329 q 156 -297 150 -310 l 222 -118 q 245 -84 229 -99 q 283 -69 261 -69 l 444 -69 q 460 -77 454 -69 q 465 -93 467 -85 q 460 -112 465 -103 l 351 -289 q 292 -329 326 -329 l 176 -329 z "},"T":{"ha":878,"x_min":101,"x_max":967,"o":"m 256 0 q 232 10 240 0 q 226 35 224 19 l 378 746 l 133 746 q 110 756 118 746 q 104 781 101 765 l 138 936 q 153 962 140 951 q 181 972 165 972 l 935 972 q 958 962 950 972 q 964 936 967 951 l 929 781 q 915 756 926 765 q 888 746 903 746 l 643 746 l 490 35 q 476 10 488 19 q 449 0 464 0 l 256 0 z "},"Ŧ":{"ha":890,"x_min":107,"x_max":972,"o":"m 261 0 q 238 10 246 0 q 232 35 229 19 l 310 401 l 172 401 q 149 411 157 401 q 144 436 142 421 l 160 508 q 175 534 163 524 q 203 544 188 544 l 340 544 l 383 746 l 139 746 q 115 756 124 746 q 110 781 107 765 l 143 936 q 158 962 146 951 q 186 972 171 972 l 940 972 q 964 962 956 972 q 969 936 972 951 l 935 781 q 920 756 932 765 q 893 746 908 746 l 649 746 l 606 544 l 743 544 q 766 534 758 544 q 771 508 774 524 l 756 436 q 740 411 753 421 q 711 401 726 401 l 574 401 l 496 35 q 481 10 493 19 q 454 0 469 0 l 261 0 z "},"Ť":{"ha":878,"x_min":103,"x_max":965,"o":"m 256 0 q 232 10 240 0 q 226 35 224 19 l 378 746 l 133 746 q 110 756 118 746 q 104 781 101 765 l 138 936 q 153 962 140 951 q 181 972 165 972 l 935 972 q 958 962 950 972 q 964 936 967 951 l 929 781 q 915 756 926 765 q 888 746 903 746 l 643 746 l 490 35 q 476 10 488 19 q 449 0 464 0 l 256 0 m 519 1042 q 496 1047 506 1042 q 475 1065 486 1051 l 363 1221 q 358 1233 358 1225 q 365 1252 358 1244 q 383 1260 372 1260 l 450 1260 q 494 1250 478 1260 l 601 1183 l 738 1250 q 783 1260 757 1260 l 872 1260 q 887 1254 882 1260 q 890 1240 892 1249 q 878 1221 888 1229 l 699 1065 q 671 1047 683 1051 q 644 1042 658 1042 l 519 1042 z "},"Ț":{"ha":878,"x_min":103,"x_max":965,"o":"m 256 0 q 232 10 240 0 q 226 35 224 19 l 378 746 l 133 746 q 110 756 118 746 q 104 781 101 765 l 138 936 q 153 962 140 951 q 181 972 165 972 l 935 972 q 958 962 950 972 q 964 936 967 951 l 929 781 q 915 756 926 765 q 888 746 903 746 l 643 746 l 490 35 q 476 10 488 19 q 449 0 464 0 l 256 0 m 154 -329 q 134 -319 140 -329 q 133 -297 128 -310 l 200 -118 q 223 -84 207 -99 q 261 -69 239 -69 l 422 -69 q 438 -77 432 -69 q 443 -93 444 -85 q 438 -112 443 -103 l 329 -289 q 269 -329 304 -329 l 154 -329 z "},"U":{"ha":1010,"x_min":65,"x_max":1038,"o":"m 435 -14 q 167 59 269 -14 q 65 275 65 132 q 76 369 65 317 l 197 936 q 212 962 200 951 q 239 972 224 972 l 429 972 q 452 962 444 972 q 457 936 460 951 l 336 372 q 329 311 329 335 q 360 227 329 254 q 456 200 390 200 q 654 372 617 200 l 775 936 q 790 962 778 951 q 817 972 801 972 l 1007 972 q 1030 962 1022 972 q 1035 936 1038 951 l 915 369 q 756 78 872 171 q 435 -14 640 -14 z "},"Ú":{"ha":1010,"x_min":65,"x_max":1036,"o":"m 435 -14 q 167 59 269 -14 q 65 275 65 132 q 76 369 65 317 l 197 936 q 212 962 200 951 q 239 972 224 972 l 429 972 q 452 962 444 972 q 457 936 460 951 l 336 372 q 329 311 329 335 q 360 227 329 254 q 456 200 390 200 q 654 372 617 200 l 775 936 q 790 962 778 951 q 817 972 801 972 l 1007 972 q 1030 962 1022 972 q 1035 936 1038 951 l 915 369 q 756 78 872 171 q 435 -14 640 -14 m 539 1042 q 524 1047 529 1042 q 519 1063 518 1053 q 531 1081 522 1074 l 689 1233 q 717 1255 707 1250 q 746 1260 728 1260 l 949 1260 q 965 1253 960 1260 q 969 1235 971 1246 q 958 1215 967 1222 l 739 1063 q 711 1047 724 1051 q 682 1042 699 1042 l 539 1042 z "},"Ŭ":{"ha":1010,"x_min":65,"x_max":1036,"o":"m 435 -14 q 167 59 269 -14 q 65 275 65 132 q 76 369 65 317 l 197 936 q 212 962 200 951 q 239 972 224 972 l 429 972 q 452 962 444 972 q 457 936 460 951 l 336 372 q 329 311 329 335 q 360 227 329 254 q 456 200 390 200 q 654 372 617 200 l 775 936 q 790 962 778 951 q 817 972 801 972 l 1007 972 q 1030 962 1022 972 q 1035 936 1038 951 l 915 369 q 756 78 872 171 q 435 -14 640 -14 m 626 1032 q 485 1076 536 1032 q 435 1192 435 1121 q 439 1231 435 1210 q 450 1249 442 1242 q 471 1257 458 1257 l 569 1257 q 588 1249 582 1257 q 590 1231 593 1242 q 588 1201 588 1211 q 638 1149 588 1149 q 722 1231 704 1149 q 733 1249 725 1242 q 754 1257 742 1257 l 853 1257 q 871 1249 865 1257 q 874 1231 876 1242 q 797 1085 854 1139 q 626 1032 739 1032 z "},"Û":{"ha":1010,"x_min":65,"x_max":1036,"o":"m 435 -14 q 167 59 269 -14 q 65 275 65 132 q 76 369 65 317 l 197 936 q 212 962 200 951 q 239 972 224 972 l 429 972 q 452 962 444 972 q 457 936 460 951 l 336 372 q 329 311 329 335 q 360 227 329 254 q 456 200 390 200 q 654 372 617 200 l 775 936 q 790 962 778 951 q 817 972 801 972 l 1007 972 q 1030 962 1022 972 q 1035 936 1038 951 l 915 369 q 756 78 872 171 q 435 -14 640 -14 m 374 1042 q 357 1061 354 1042 q 368 1081 358 1072 l 549 1235 q 576 1254 565 1249 q 603 1260 588 1260 l 728 1260 q 751 1254 742 1260 q 771 1235 761 1249 l 885 1081 q 889 1061 892 1072 q 880 1047 886 1053 q 864 1042 874 1042 l 796 1042 q 753 1051 769 1042 l 646 1118 l 510 1051 q 463 1042 490 1042 l 374 1042 z "},"Ü":{"ha":1010,"x_min":65,"x_max":1036,"o":"m 435 -14 q 167 59 269 -14 q 65 275 65 132 q 76 369 65 317 l 197 936 q 212 962 200 951 q 239 972 224 972 l 429 972 q 452 962 444 972 q 457 936 460 951 l 336 372 q 329 311 329 335 q 360 227 329 254 q 456 200 390 200 q 654 372 617 200 l 775 936 q 790 962 778 951 q 817 972 801 972 l 1007 972 q 1030 962 1022 972 q 1035 936 1038 951 l 915 369 q 756 78 872 171 q 435 -14 640 -14 m 400 1042 q 379 1051 386 1042 q 375 1074 372 1060 l 403 1206 q 417 1228 406 1219 q 442 1238 428 1238 l 574 1238 q 594 1228 588 1238 q 599 1206 601 1219 l 571 1074 q 557 1051 568 1060 q 532 1042 546 1042 l 400 1042 m 733 1042 q 713 1051 719 1042 q 708 1074 706 1060 l 736 1206 q 750 1228 739 1219 q 775 1238 761 1238 l 907 1238 q 928 1228 921 1238 q 932 1206 935 1219 l 904 1074 q 890 1051 901 1060 q 865 1042 879 1042 l 733 1042 z "},"Ù":{"ha":1010,"x_min":65,"x_max":1036,"o":"m 435 -14 q 167 59 269 -14 q 65 275 65 132 q 76 369 65 317 l 197 936 q 212 962 200 951 q 239 972 224 972 l 429 972 q 452 962 444 972 q 457 936 460 951 l 336 372 q 329 311 329 335 q 360 227 329 254 q 456 200 390 200 q 654 372 617 200 l 775 936 q 790 962 778 951 q 817 972 801 972 l 1007 972 q 1030 962 1022 972 q 1035 936 1038 951 l 915 369 q 756 78 872 171 q 435 -14 640 -14 m 575 1042 q 548 1047 558 1042 q 526 1063 538 1051 l 374 1214 q 369 1226 369 1221 q 378 1250 369 1240 q 401 1260 388 1260 l 594 1260 q 622 1255 613 1260 q 640 1233 631 1250 l 733 1082 q 736 1069 736 1076 q 728 1049 736 1057 q 710 1042 721 1042 l 575 1042 z "},"Ű":{"ha":1010,"x_min":65,"x_max":1044,"o":"m 435 -14 q 167 59 269 -14 q 65 275 65 132 q 76 369 65 317 l 197 936 q 212 962 200 951 q 239 972 224 972 l 429 972 q 452 962 444 972 q 457 936 460 951 l 336 372 q 329 311 329 335 q 360 227 329 254 q 456 200 390 200 q 654 372 617 200 l 775 936 q 790 962 778 951 q 817 972 801 972 l 1007 972 q 1030 962 1022 972 q 1035 936 1038 951 l 915 369 q 756 78 872 171 q 435 -14 640 -14 m 414 1042 q 399 1047 404 1042 q 396 1061 393 1053 q 406 1082 396 1069 l 506 1233 q 528 1253 515 1247 q 563 1260 542 1260 l 726 1260 q 745 1253 739 1260 q 749 1235 751 1246 q 738 1215 749 1226 l 565 1061 q 517 1042 543 1042 l 414 1042 m 710 1042 q 694 1047 700 1042 q 690 1061 689 1053 q 701 1082 692 1069 l 801 1233 q 824 1253 811 1247 q 858 1260 838 1260 l 1022 1260 q 1044 1240 1044 1260 q 1033 1215 1044 1226 l 861 1061 q 811 1042 839 1042 l 710 1042 z "},"Ū":{"ha":1010,"x_min":65,"x_max":1036,"o":"m 435 -14 q 167 59 269 -14 q 65 275 65 132 q 76 369 65 317 l 197 936 q 212 962 200 951 q 239 972 224 972 l 429 972 q 452 962 444 972 q 457 936 460 951 l 336 372 q 329 311 329 335 q 360 227 329 254 q 456 200 390 200 q 654 372 617 200 l 775 936 q 790 962 778 951 q 817 972 801 972 l 1007 972 q 1030 962 1022 972 q 1035 936 1038 951 l 915 369 q 756 78 872 171 q 435 -14 640 -14 m 407 1042 q 386 1051 393 1042 q 382 1074 379 1060 l 404 1179 q 418 1202 407 1193 q 443 1211 429 1211 l 883 1211 q 904 1202 897 1211 q 908 1179 911 1193 l 886 1074 q 872 1051 883 1060 q 847 1042 861 1042 l 407 1042 z "},"Ų":{"ha":1010,"x_min":65,"x_max":1038,"o":"m 475 -306 q 332 -255 383 -306 q 281 -124 281 -204 q 286 -74 281 -107 q 311 -1 294 -33 q 131 90 196 21 q 65 272 65 158 q 76 369 65 314 l 197 936 q 212 962 200 951 q 239 972 224 972 l 429 972 q 452 962 444 972 q 457 936 460 951 l 336 372 q 329 311 329 335 q 360 227 329 254 q 456 200 390 200 q 654 372 617 200 l 775 936 q 790 962 778 951 q 817 972 801 972 l 1007 972 q 1030 962 1022 972 q 1035 936 1038 951 l 915 369 q 780 97 878 189 q 521 -10 682 6 q 460 -32 483 -12 q 431 -83 438 -51 q 429 -103 429 -90 q 445 -149 429 -131 q 493 -167 461 -167 l 511 -167 q 534 -177 526 -167 q 539 -201 542 -187 l 522 -272 q 508 -297 519 -287 q 482 -306 497 -306 l 475 -306 z "},"Ů":{"ha":1010,"x_min":65,"x_max":1036,"o":"m 435 -14 q 167 59 269 -14 q 65 275 65 132 q 76 369 65 317 l 197 936 q 212 962 200 951 q 239 972 224 972 l 429 972 q 452 962 444 972 q 457 936 460 951 l 336 372 q 329 311 329 335 q 360 227 329 254 q 456 200 390 200 q 654 372 617 200 l 775 936 q 790 962 778 951 q 817 972 801 972 l 1007 972 q 1030 962 1022 972 q 1035 936 1038 951 l 915 369 q 756 78 872 171 q 435 -14 640 -14 m 624 1028 q 546 1055 576 1028 q 515 1125 515 1082 q 518 1150 515 1133 q 574 1239 531 1204 q 672 1274 618 1274 q 751 1247 721 1274 q 781 1176 781 1219 q 758 1101 781 1135 q 699 1047 736 1067 q 624 1028 663 1028 m 638 1108 q 675 1124 658 1108 q 692 1160 692 1139 q 683 1183 692 1174 q 658 1192 674 1192 q 622 1176 638 1192 q 606 1140 606 1161 q 614 1117 606 1126 q 638 1108 622 1108 z "},"Ũ":{"ha":1010,"x_min":65,"x_max":1036,"o":"m 435 -14 q 167 59 269 -14 q 65 275 65 132 q 76 369 65 317 l 197 936 q 212 962 200 951 q 239 972 224 972 l 429 972 q 452 962 444 972 q 457 936 460 951 l 336 372 q 329 311 329 335 q 360 227 329 254 q 456 200 390 200 q 654 372 617 200 l 775 936 q 790 962 778 951 q 817 972 801 972 l 1007 972 q 1030 962 1022 972 q 1035 936 1038 951 l 915 369 q 756 78 872 171 q 435 -14 640 -14 m 733 1035 q 683 1042 704 1035 q 639 1064 663 1050 q 610 1077 625 1071 q 581 1083 594 1083 q 555 1077 565 1083 q 533 1060 544 1071 q 503 1042 518 1042 l 415 1042 q 399 1049 406 1042 q 396 1065 393 1056 q 425 1144 403 1101 q 488 1217 447 1186 q 583 1247 528 1247 q 631 1240 611 1247 q 676 1219 651 1233 q 708 1203 694 1208 q 736 1199 721 1199 q 760 1204 751 1199 q 782 1222 769 1210 q 813 1240 797 1240 l 900 1240 q 917 1233 911 1240 q 919 1215 922 1226 q 890 1138 913 1179 q 828 1065 868 1096 q 733 1035 789 1035 z "},"V":{"ha":968,"x_min":140,"x_max":1051,"o":"m 283 0 q 247 13 260 0 q 235 42 235 25 l 142 935 q 150 962 140 951 q 175 972 160 972 l 351 972 q 383 961 372 972 q 396 935 394 950 l 451 307 l 774 935 q 796 961 781 950 q 832 972 811 972 l 1028 972 q 1045 965 1039 972 q 1051 947 1051 958 q 1047 931 1051 939 l 578 42 q 511 0 553 0 l 283 0 z "},"W":{"ha":1151,"x_min":117,"x_max":1219,"o":"m 164 0 q 129 13 142 0 q 118 46 117 26 l 149 940 q 160 963 150 953 q 185 972 171 972 l 361 972 q 397 938 401 972 l 374 421 l 532 719 q 585 757 551 757 l 689 757 q 728 719 724 757 l 761 417 l 958 940 q 976 965 964 958 q 1008 972 988 972 l 1196 972 q 1213 966 1207 972 q 1219 950 1219 960 q 1217 938 1219 946 l 890 46 q 865 13 882 26 q 825 0 847 0 l 682 0 q 649 11 660 0 q 638 36 639 22 l 568 421 l 364 36 q 304 0 344 0 l 164 0 z "},"Ẃ":{"ha":1151,"x_min":118,"x_max":1219,"o":"m 164 0 q 129 13 142 0 q 118 46 117 26 l 149 940 q 160 963 150 953 q 185 972 171 972 l 361 972 q 397 938 401 972 l 374 421 l 532 719 q 585 757 551 757 l 689 757 q 728 719 724 757 l 761 417 l 958 940 q 976 965 964 958 q 1008 972 988 972 l 1196 972 q 1213 966 1207 972 q 1219 950 1219 960 q 1217 938 1219 946 l 890 46 q 865 13 882 26 q 825 0 847 0 l 682 0 q 649 11 660 0 q 638 36 639 22 l 568 421 l 364 36 q 304 0 344 0 l 164 0 m 604 1042 q 589 1047 594 1042 q 585 1063 583 1053 q 596 1081 588 1074 l 754 1233 q 783 1255 772 1250 q 811 1260 793 1260 l 1014 1260 q 1031 1253 1025 1260 q 1035 1235 1036 1246 q 1024 1215 1032 1222 l 804 1063 q 776 1047 789 1051 q 747 1042 764 1042 l 604 1042 z "},"Ŵ":{"ha":1156,"x_min":118,"x_max":1219,"o":"m 164 0 q 129 13 142 0 q 118 46 117 26 l 149 940 q 160 963 150 953 q 185 972 171 972 l 361 972 q 397 938 401 972 l 374 421 l 532 719 q 585 757 551 757 l 689 757 q 728 719 724 757 l 761 417 l 958 940 q 976 965 964 958 q 1008 972 988 972 l 1196 972 q 1213 966 1207 972 q 1219 950 1219 960 q 1217 938 1219 946 l 890 46 q 865 13 882 26 q 825 0 847 0 l 682 0 q 649 11 660 0 q 638 36 639 22 l 568 421 l 364 36 q 304 0 344 0 l 164 0 m 432 1042 q 415 1061 413 1042 q 426 1081 417 1072 l 607 1235 q 635 1254 624 1249 q 661 1260 646 1260 l 786 1260 q 810 1254 800 1260 q 829 1235 819 1249 l 943 1081 q 947 1061 950 1072 q 938 1047 944 1053 q 922 1042 932 1042 l 854 1042 q 811 1051 828 1042 l 704 1118 l 568 1051 q 521 1042 549 1042 l 432 1042 z "},"Ẅ":{"ha":1156,"x_min":118,"x_max":1219,"o":"m 164 0 q 129 13 142 0 q 118 46 117 26 l 149 940 q 160 963 150 953 q 185 972 171 972 l 361 972 q 397 938 401 972 l 374 421 l 532 719 q 585 757 551 757 l 689 757 q 728 719 724 757 l 761 417 l 958 940 q 976 965 964 958 q 1008 972 988 972 l 1196 972 q 1213 966 1207 972 q 1219 950 1219 960 q 1217 938 1219 946 l 890 46 q 865 13 882 26 q 825 0 847 0 l 682 0 q 649 11 660 0 q 638 36 639 22 l 568 421 l 364 36 q 304 0 344 0 l 164 0 m 453 1042 q 432 1051 439 1042 q 428 1074 425 1060 l 456 1206 q 469 1228 458 1219 q 494 1238 481 1238 l 626 1238 q 647 1228 640 1238 q 651 1206 654 1219 l 624 1074 q 610 1051 621 1060 q 585 1042 599 1042 l 453 1042 m 786 1042 q 765 1051 772 1042 q 761 1074 758 1060 l 789 1206 q 803 1228 792 1219 q 828 1238 814 1238 l 960 1238 q 981 1228 974 1238 q 985 1206 988 1219 l 957 1074 q 943 1051 954 1060 q 918 1042 932 1042 l 786 1042 z "},"Ẁ":{"ha":1156,"x_min":118,"x_max":1219,"o":"m 164 0 q 129 13 142 0 q 118 46 117 26 l 149 940 q 160 963 150 953 q 185 972 171 972 l 361 972 q 397 938 401 972 l 374 421 l 532 719 q 585 757 551 757 l 689 757 q 728 719 724 757 l 761 417 l 958 940 q 976 965 964 958 q 1008 972 988 972 l 1196 972 q 1213 966 1207 972 q 1219 950 1219 960 q 1217 938 1219 946 l 890 46 q 865 13 882 26 q 825 0 847 0 l 682 0 q 649 11 660 0 q 638 36 639 22 l 568 421 l 364 36 q 304 0 344 0 l 164 0 m 632 1042 q 605 1047 615 1042 q 583 1063 594 1051 l 431 1214 q 426 1226 426 1221 q 435 1250 426 1240 q 458 1260 444 1260 l 651 1260 q 678 1255 669 1260 q 697 1233 688 1250 l 790 1082 q 793 1069 793 1076 q 785 1049 793 1057 q 767 1042 778 1042 l 632 1042 z "},"X":{"ha":965,"x_min":-67,"x_max":1056,"o":"m -40 0 q -59 8 -51 0 q -67 26 -67 15 q -58 46 -67 38 l 357 501 l 144 928 q 142 942 142 932 q 151 963 142 954 q 176 972 160 972 l 367 972 q 414 942 401 972 l 539 690 l 761 942 q 785 964 772 956 q 819 972 797 972 l 1029 972 q 1049 965 1042 972 q 1056 947 1056 957 q 1047 926 1056 935 l 651 467 l 864 44 q 867 32 867 36 q 857 10 867 19 q 831 0 847 0 l 642 0 q 611 8 621 0 q 594 28 601 17 l 471 274 l 244 28 q 188 0 222 0 l -40 0 z "},"Y":{"ha":947,"x_min":131,"x_max":1043,"o":"m 292 0 q 268 10 276 0 q 263 35 260 21 l 325 331 l 132 928 q 131 939 131 932 q 141 963 131 953 q 167 972 151 972 l 339 972 q 369 963 358 972 q 382 942 379 953 l 500 594 l 765 942 q 787 963 772 953 q 821 972 801 972 l 1018 972 q 1037 966 1031 972 q 1043 950 1043 960 q 1035 928 1043 939 l 586 331 l 524 35 q 508 10 521 19 q 481 0 496 0 l 292 0 z "},"Ý":{"ha":947,"x_min":131,"x_max":1043,"o":"m 292 0 q 268 10 276 0 q 263 35 260 21 l 325 331 l 132 928 q 131 939 131 932 q 141 963 131 953 q 167 972 151 972 l 339 972 q 369 963 358 972 q 382 942 379 953 l 500 594 l 765 942 q 787 963 772 953 q 821 972 801 972 l 1018 972 q 1037 966 1031 972 q 1043 950 1043 960 q 1035 928 1043 939 l 586 331 l 524 35 q 508 10 521 19 q 481 0 496 0 l 292 0 m 503 1042 q 488 1047 493 1042 q 483 1063 482 1053 q 494 1081 486 1074 l 653 1233 q 681 1255 671 1250 q 710 1260 692 1260 l 913 1260 q 929 1253 924 1260 q 933 1235 935 1246 q 922 1215 931 1222 l 703 1063 q 675 1047 688 1051 q 646 1042 663 1042 l 503 1042 z "},"Ŷ":{"ha":947,"x_min":131,"x_max":1043,"o":"m 292 0 q 268 10 276 0 q 263 35 260 21 l 325 331 l 132 928 q 131 939 131 932 q 141 963 131 953 q 167 972 151 972 l 339 972 q 369 963 358 972 q 382 942 379 953 l 500 594 l 765 942 q 787 963 772 953 q 821 972 801 972 l 1018 972 q 1037 966 1031 972 q 1043 950 1043 960 q 1035 928 1043 939 l 586 331 l 524 35 q 508 10 521 19 q 481 0 496 0 l 292 0 m 332 1042 q 315 1061 313 1042 q 326 1081 317 1072 l 507 1235 q 535 1254 524 1249 q 561 1260 546 1260 l 686 1260 q 710 1254 700 1260 q 729 1235 719 1249 l 843 1081 q 847 1061 850 1072 q 838 1047 844 1053 q 822 1042 832 1042 l 754 1042 q 711 1051 728 1042 l 604 1118 l 468 1051 q 421 1042 449 1042 l 332 1042 z "},"Ÿ":{"ha":947,"x_min":131,"x_max":1043,"o":"m 292 0 q 268 10 276 0 q 263 35 260 21 l 325 331 l 132 928 q 131 939 131 932 q 141 963 131 953 q 167 972 151 972 l 339 972 q 369 963 358 972 q 382 942 379 953 l 500 594 l 765 942 q 787 963 772 953 q 821 972 801 972 l 1018 972 q 1037 966 1031 972 q 1043 950 1043 960 q 1035 928 1043 939 l 586 331 l 524 35 q 508 10 521 19 q 481 0 496 0 l 292 0 m 349 1042 q 328 1051 335 1042 q 324 1074 321 1060 l 351 1206 q 365 1228 354 1219 q 390 1238 376 1238 l 522 1238 q 543 1228 536 1238 q 547 1206 550 1219 l 519 1074 q 506 1051 517 1060 q 481 1042 494 1042 l 349 1042 m 682 1042 q 661 1051 668 1042 q 657 1074 654 1060 l 685 1206 q 699 1228 688 1219 q 724 1238 710 1238 l 856 1238 q 876 1228 869 1238 q 881 1206 883 1219 l 853 1074 q 839 1051 850 1060 q 814 1042 828 1042 l 682 1042 z "},"Ỳ":{"ha":947,"x_min":131,"x_max":1043,"o":"m 292 0 q 268 10 276 0 q 263 35 260 21 l 325 331 l 132 928 q 131 939 131 932 q 141 963 131 953 q 167 972 151 972 l 339 972 q 369 963 358 972 q 382 942 379 953 l 500 594 l 765 942 q 787 963 772 953 q 821 972 801 972 l 1018 972 q 1037 966 1031 972 q 1043 950 1043 960 q 1035 928 1043 939 l 586 331 l 524 35 q 508 10 521 19 q 481 0 496 0 l 292 0 m 528 1042 q 501 1047 511 1042 q 479 1063 490 1051 l 326 1214 q 322 1226 322 1221 q 331 1250 322 1240 q 354 1260 340 1260 l 547 1260 q 574 1255 565 1260 q 593 1233 583 1250 l 686 1082 q 689 1069 689 1076 q 681 1049 689 1057 q 663 1042 674 1042 l 528 1042 z "},"Z":{"ha":907,"x_min":-32,"x_max":957,"o":"m -1 0 q -24 10 -17 0 q -29 36 -32 21 l 1 178 q 32 228 7 207 l 574 757 l 172 757 q 149 767 157 757 q 144 792 142 778 l 176 936 q 191 962 179 951 q 218 972 203 972 l 925 972 q 949 962 940 972 q 954 936 957 951 l 924 796 q 894 749 919 774 l 367 218 l 782 218 q 805 208 797 218 q 810 182 813 197 l 778 35 q 763 10 775 19 q 736 0 751 0 l -1 0 z "},"Ź":{"ha":907,"x_min":-31,"x_max":956,"o":"m -1 0 q -24 10 -17 0 q -29 36 -32 21 l 1 178 q 32 228 7 207 l 574 757 l 172 757 q 149 767 157 757 q 144 792 142 778 l 176 936 q 191 962 179 951 q 218 972 203 972 l 925 972 q 949 962 940 972 q 954 936 957 951 l 924 796 q 894 749 919 774 l 367 218 l 782 218 q 805 208 797 218 q 810 182 813 197 l 778 35 q 763 10 775 19 q 736 0 751 0 l -1 0 m 501 1042 q 486 1047 492 1042 q 482 1063 481 1053 q 493 1081 485 1074 l 651 1233 q 680 1255 669 1250 q 708 1260 690 1260 l 911 1260 q 928 1253 922 1260 q 932 1235 933 1246 q 921 1215 929 1222 l 701 1063 q 674 1047 686 1051 q 644 1042 661 1042 l 501 1042 z "},"Ž":{"ha":907,"x_min":-31,"x_max":956,"o":"m -1 0 q -24 10 -17 0 q -29 36 -32 21 l 1 178 q 32 228 7 207 l 574 757 l 172 757 q 149 767 157 757 q 144 792 142 778 l 176 936 q 191 962 179 951 q 218 972 203 972 l 925 972 q 949 962 940 972 q 954 936 957 951 l 924 796 q 894 749 919 774 l 367 218 l 782 218 q 805 208 797 218 q 810 182 813 197 l 778 35 q 763 10 775 19 q 736 0 751 0 l -1 0 m 518 1042 q 494 1047 504 1042 q 474 1065 485 1051 l 361 1221 q 357 1233 357 1225 q 364 1252 357 1244 q 382 1260 371 1260 l 449 1260 q 493 1250 476 1260 l 600 1183 l 736 1250 q 782 1260 756 1260 l 871 1260 q 885 1254 881 1260 q 889 1240 890 1249 q 876 1221 886 1229 l 697 1065 q 669 1047 682 1051 q 643 1042 657 1042 l 518 1042 z "},"Ż":{"ha":907,"x_min":-31,"x_max":956,"o":"m -1 0 q -24 10 -17 0 q -29 36 -32 21 l 1 178 q 32 228 7 207 l 574 757 l 172 757 q 149 767 157 757 q 144 792 142 778 l 176 936 q 191 962 179 951 q 218 972 203 972 l 925 972 q 949 962 940 972 q 954 936 957 951 l 924 796 q 894 749 919 774 l 367 218 l 782 218 q 805 208 797 218 q 810 182 813 197 l 778 35 q 763 10 775 19 q 736 0 751 0 l -1 0 m 513 1042 q 492 1051 499 1042 q 488 1074 485 1060 l 519 1221 q 532 1244 521 1235 q 557 1253 543 1253 l 706 1253 q 726 1244 719 1253 q 731 1221 733 1235 l 699 1074 q 685 1051 696 1060 q 660 1042 674 1042 l 513 1042 z "},"a":{"ha":875,"x_min":26,"x_max":857,"o":"m 269 -14 q 90 49 153 -14 q 26 229 26 113 q 33 313 26 276 l 54 411 q 185 651 94 565 q 415 736 275 736 q 538 715 493 736 q 611 653 582 693 l 619 688 q 634 713 622 703 q 661 722 646 722 l 825 722 q 849 712 840 722 q 854 688 857 701 l 715 35 q 700 10 713 19 q 674 0 688 0 l 508 0 q 485 10 493 0 q 479 35 476 21 l 489 78 q 392 9 440 32 q 269 -14 343 -14 m 372 179 q 472 217 433 179 q 525 314 510 256 q 547 418 540 372 q 550 450 550 440 q 528 518 550 493 q 457 543 506 543 q 363 506 397 543 q 308 404 328 469 q 290 318 294 357 q 286 271 286 293 q 306 203 286 226 q 372 179 325 179 z "},"á":{"ha":875,"x_min":26,"x_max":856,"o":"m 269 -14 q 90 49 153 -14 q 26 229 26 113 q 33 313 26 276 l 54 411 q 185 651 94 565 q 415 736 275 736 q 538 715 493 736 q 611 653 582 693 l 619 688 q 634 713 622 703 q 661 722 646 722 l 825 722 q 849 712 840 722 q 854 688 857 701 l 715 35 q 700 10 713 19 q 674 0 688 0 l 508 0 q 485 10 493 0 q 479 35 476 21 l 489 78 q 392 9 440 32 q 269 -14 343 -14 m 372 179 q 472 217 433 179 q 525 314 510 256 q 547 418 540 372 q 550 450 550 440 q 528 518 550 493 q 457 543 506 543 q 363 506 397 543 q 308 404 328 469 q 290 318 294 357 q 286 271 286 293 q 306 203 286 226 q 372 179 325 179 m 432 826 q 414 843 414 826 q 425 867 414 856 l 582 1018 q 610 1040 600 1035 q 639 1044 621 1044 l 831 1044 q 847 1038 842 1044 q 851 1018 853 1031 q 840 1000 849 1007 l 621 847 q 593 831 606 836 q 564 826 581 826 l 432 826 z "},"ă":{"ha":875,"x_min":26,"x_max":856,"o":"m 269 -14 q 90 49 153 -14 q 26 229 26 113 q 33 313 26 276 l 54 411 q 185 651 94 565 q 415 736 275 736 q 538 715 493 736 q 611 653 582 693 l 619 688 q 634 713 622 703 q 661 722 646 722 l 825 722 q 849 712 840 722 q 854 688 857 701 l 715 35 q 700 10 713 19 q 674 0 688 0 l 508 0 q 485 10 493 0 q 479 35 476 21 l 489 78 q 392 9 440 32 q 269 -14 343 -14 m 372 179 q 472 217 433 179 q 525 314 510 256 q 547 418 540 372 q 550 450 550 440 q 528 518 550 493 q 457 543 506 543 q 363 506 397 543 q 308 404 328 469 q 290 318 294 357 q 286 271 286 293 q 306 203 286 226 q 372 179 325 179 m 525 819 q 391 864 442 819 q 340 978 340 908 q 344 1018 340 997 q 356 1037 347 1029 q 376 1044 364 1044 l 471 1044 q 489 1037 483 1044 q 492 1018 494 1029 q 488 986 488 1001 q 536 936 488 936 q 590 959 569 936 q 618 1018 610 982 q 629 1037 621 1029 q 650 1044 638 1044 l 744 1044 q 763 1037 757 1044 q 765 1018 768 1029 q 525 819 722 819 z "},"â":{"ha":875,"x_min":26,"x_max":856,"o":"m 269 -14 q 90 49 153 -14 q 26 229 26 113 q 33 313 26 276 l 54 411 q 185 651 94 565 q 415 736 275 736 q 538 715 493 736 q 611 653 582 693 l 619 688 q 634 713 622 703 q 661 722 646 722 l 825 722 q 849 712 840 722 q 854 688 857 701 l 715 35 q 700 10 713 19 q 674 0 688 0 l 508 0 q 485 10 493 0 q 479 35 476 21 l 489 78 q 392 9 440 32 q 269 -14 343 -14 m 372 179 q 472 217 433 179 q 525 314 510 256 q 547 418 540 372 q 550 450 550 440 q 528 518 550 493 q 457 543 506 543 q 363 506 397 543 q 308 404 328 469 q 290 318 294 357 q 286 271 286 293 q 306 203 286 226 q 372 179 325 179 m 268 826 q 251 846 249 826 q 263 865 254 857 l 443 1019 q 471 1039 460 1033 q 497 1044 482 1044 l 613 1044 q 636 1039 626 1044 q 657 1019 646 1033 l 769 865 q 774 846 776 857 q 765 832 771 838 q 749 826 758 826 l 686 826 q 642 836 658 826 l 535 903 l 400 836 q 353 826 379 826 l 268 826 z "},"ä":{"ha":875,"x_min":26,"x_max":856,"o":"m 269 -14 q 90 49 153 -14 q 26 229 26 113 q 33 313 26 276 l 54 411 q 185 651 94 565 q 415 736 275 736 q 538 715 493 736 q 611 653 582 693 l 619 688 q 634 713 622 703 q 661 722 646 722 l 825 722 q 849 712 840 722 q 854 688 857 701 l 715 35 q 700 10 713 19 q 674 0 688 0 l 508 0 q 485 10 493 0 q 479 35 476 21 l 489 78 q 392 9 440 32 q 269 -14 343 -14 m 372 179 q 472 217 433 179 q 525 314 510 256 q 547 418 540 372 q 550 450 550 440 q 528 518 550 493 q 457 543 506 543 q 363 506 397 543 q 308 404 328 469 q 290 318 294 357 q 286 271 286 293 q 306 203 286 226 q 372 179 325 179 m 306 842 q 285 850 292 842 q 281 872 278 858 l 308 1006 q 322 1028 311 1019 q 347 1038 333 1038 l 479 1038 q 500 1028 493 1038 q 504 1006 507 1019 l 476 872 q 463 850 474 858 q 438 842 451 842 l 306 842 m 597 842 q 576 850 583 842 q 572 872 569 858 l 601 1006 q 614 1028 603 1019 q 639 1038 625 1038 l 771 1038 q 792 1028 785 1038 q 797 1006 800 1019 l 768 872 q 755 850 765 858 q 731 842 744 842 l 597 842 z "},"à":{"ha":875,"x_min":26,"x_max":856,"o":"m 269 -14 q 90 49 153 -14 q 26 229 26 113 q 33 313 26 276 l 54 411 q 185 651 94 565 q 415 736 275 736 q 538 715 493 736 q 611 653 582 693 l 619 688 q 634 713 622 703 q 661 722 646 722 l 825 722 q 849 712 840 722 q 854 688 857 701 l 715 35 q 700 10 713 19 q 674 0 688 0 l 508 0 q 485 10 493 0 q 479 35 476 21 l 489 78 q 392 9 440 32 q 269 -14 343 -14 m 372 179 q 472 217 433 179 q 525 314 510 256 q 547 418 540 372 q 550 450 550 440 q 528 518 550 493 q 457 543 506 543 q 363 506 397 543 q 308 404 328 469 q 290 318 294 357 q 286 271 286 293 q 306 203 286 226 q 372 179 325 179 m 450 826 q 423 831 433 826 q 401 847 413 836 l 249 999 q 244 1011 244 1006 q 253 1035 244 1025 q 275 1044 263 1044 l 476 1044 q 503 1040 494 1044 q 522 1018 513 1035 l 614 868 q 618 854 618 863 q 611 834 618 842 q 592 826 604 826 l 450 826 z "},"ā":{"ha":875,"x_min":26,"x_max":856,"o":"m 269 -14 q 90 49 153 -14 q 26 229 26 113 q 33 313 26 276 l 54 411 q 185 651 94 565 q 415 736 275 736 q 538 715 493 736 q 611 653 582 693 l 619 688 q 634 713 622 703 q 661 722 646 722 l 825 722 q 849 712 840 722 q 854 688 857 701 l 715 35 q 700 10 713 19 q 674 0 688 0 l 508 0 q 485 10 493 0 q 479 35 476 21 l 489 78 q 392 9 440 32 q 269 -14 343 -14 m 372 179 q 472 217 433 179 q 525 314 510 256 q 547 418 540 372 q 550 450 550 440 q 528 518 550 493 q 457 543 506 543 q 363 506 397 543 q 308 404 328 469 q 290 318 294 357 q 286 271 286 293 q 306 203 286 226 q 372 179 325 179 m 319 839 q 299 848 306 839 q 294 871 292 857 l 317 974 q 330 996 319 988 q 354 1004 340 1004 l 750 1004 q 770 996 764 1004 q 774 974 776 988 l 753 871 q 739 848 750 857 q 714 839 728 839 l 319 839 z "},"ą":{"ha":824,"x_min":7,"x_max":789,"o":"m 565 -306 q 438 -264 481 -306 q 394 -149 394 -222 q 401 -87 394 -122 q 426 -29 408 -57 q 465 17 444 -1 q 455 26 458 19 q 453 43 451 33 l 461 83 q 361 13 421 39 q 226 -14 301 -14 q 67 35 128 -14 q 7 161 7 85 q 11 203 7 182 q 122 356 31 297 q 356 438 213 415 l 532 464 l 535 481 q 539 519 539 504 q 522 565 539 550 q 465 579 506 579 q 415 569 436 579 q 368 540 394 558 q 350 529 361 536 q 331 518 339 522 q 315 508 325 508 l 154 508 q 133 517 140 508 q 129 539 126 526 q 185 623 139 576 q 312 703 231 669 q 501 736 393 736 q 719 681 649 736 q 789 528 789 626 q 781 456 789 493 l 692 35 q 677 12 689 22 q 651 0 665 1 l 636 0 q 567 -41 590 -10 q 543 -111 543 -72 q 558 -151 543 -136 q 601 -167 572 -167 l 613 -167 q 636 -176 628 -167 q 642 -201 644 -186 l 626 -271 q 611 -295 624 -285 q 583 -306 599 -306 l 565 -306 m 331 150 q 439 190 393 150 q 501 307 485 229 l 504 324 l 386 304 q 283 267 318 292 q 249 208 249 242 q 272 166 249 182 q 331 150 294 150 z "},"å":{"ha":875,"x_min":26,"x_max":856,"o":"m 269 -14 q 90 49 153 -14 q 26 229 26 113 q 33 313 26 276 l 54 411 q 185 651 94 565 q 415 736 275 736 q 538 715 493 736 q 611 653 582 693 l 619 688 q 634 713 622 703 q 661 722 646 722 l 825 722 q 849 712 840 722 q 854 688 857 701 l 715 35 q 700 10 713 19 q 674 0 688 0 l 508 0 q 485 10 493 0 q 479 35 476 21 l 489 78 q 392 9 440 32 q 269 -14 343 -14 m 372 179 q 472 217 433 179 q 525 314 510 256 q 547 418 540 372 q 550 450 550 440 q 528 518 550 493 q 457 543 506 543 q 363 506 397 543 q 308 404 328 469 q 290 318 294 357 q 286 271 286 293 q 306 203 286 226 q 372 179 325 179 m 514 819 q 436 847 467 819 q 406 917 406 874 q 408 942 406 925 q 465 1031 421 996 q 563 1065 508 1065 q 641 1038 611 1065 q 671 968 671 1011 q 649 892 671 926 q 590 839 626 858 q 514 819 553 819 m 528 900 q 565 915 549 900 q 582 951 582 931 q 573 974 582 965 q 549 983 564 983 q 512 968 528 983 q 496 932 496 953 q 505 909 496 918 q 528 900 514 900 z "},"ã":{"ha":875,"x_min":26,"x_max":856,"o":"m 269 -14 q 90 49 153 -14 q 26 229 26 113 q 33 313 26 276 l 54 411 q 185 651 94 565 q 415 736 275 736 q 538 715 493 736 q 611 653 582 693 l 619 688 q 634 713 622 703 q 661 722 646 722 l 825 722 q 849 712 840 722 q 854 688 857 701 l 715 35 q 700 10 713 19 q 674 0 688 0 l 508 0 q 485 10 493 0 q 479 35 476 21 l 489 78 q 392 9 440 32 q 269 -14 343 -14 m 372 179 q 472 217 433 179 q 525 314 510 256 q 547 418 540 372 q 550 450 550 440 q 528 518 550 493 q 457 543 506 543 q 363 506 397 543 q 308 404 328 469 q 290 318 294 357 q 286 271 286 293 q 306 203 286 226 q 372 179 325 179 m 618 819 q 571 826 590 819 q 525 847 551 833 q 496 863 508 858 q 468 868 483 868 q 445 863 454 868 q 425 846 436 857 q 408 831 415 836 q 392 826 401 826 l 304 826 q 288 833 294 826 q 285 850 282 840 q 314 928 292 886 q 376 999 336 969 q 471 1029 415 1029 q 518 1022 499 1029 q 564 1001 538 1015 q 595 985 583 990 q 622 981 607 981 q 644 986 636 981 q 665 1004 653 992 q 697 1024 682 1024 l 783 1024 q 800 1016 794 1024 q 804 999 806 1008 q 744 878 792 936 q 618 819 697 819 z "},"æ":{"ha":1274,"x_min":7,"x_max":1247,"o":"m 246 -14 q 70 35 133 -14 q 7 161 7 83 q 11 203 7 182 q 122 357 32 297 q 356 439 213 417 l 532 465 l 536 482 q 540 519 540 503 q 523 565 540 550 q 467 579 506 579 q 416 569 438 579 q 367 540 394 560 q 331 518 339 522 q 315 508 325 508 l 154 508 q 133 517 140 508 q 129 539 126 526 q 183 623 138 576 q 311 703 229 669 q 501 736 393 736 q 713 661 658 736 q 951 736 819 736 q 1176 660 1106 736 q 1247 464 1247 585 q 1236 365 1247 418 l 1229 331 q 1213 305 1225 315 q 1185 294 1200 294 l 749 294 l 747 286 q 742 239 742 263 q 764 170 742 193 q 825 147 786 147 q 926 194 878 147 q 949 212 940 208 q 975 215 958 215 l 1156 215 q 1176 207 1169 215 q 1179 186 1182 199 q 1121 103 1171 151 q 985 21 1071 56 q 792 -14 900 -14 q 546 93 619 -14 q 246 -14 426 -14 m 996 436 l 997 442 q 1003 490 1003 465 q 981 556 1003 533 q 918 579 960 579 q 834 544 871 579 q 781 442 797 510 l 779 436 l 996 436 m 331 150 q 439 190 393 150 q 501 307 485 229 l 506 324 l 386 304 q 284 267 318 292 q 250 207 250 242 q 273 165 250 181 q 331 150 296 150 z "},"ǽ":{"ha":1274,"x_min":7,"x_max":1247,"o":"m 246 -14 q 70 35 133 -14 q 7 161 7 83 q 11 203 7 182 q 122 357 32 297 q 356 439 213 417 l 532 465 l 536 482 q 540 519 540 503 q 523 565 540 550 q 467 579 506 579 q 416 569 438 579 q 367 540 394 560 q 331 518 339 522 q 315 508 325 508 l 154 508 q 133 517 140 508 q 129 539 126 526 q 183 623 138 576 q 311 703 229 669 q 501 736 393 736 q 713 661 658 736 q 951 736 819 736 q 1176 660 1106 736 q 1247 464 1247 585 q 1236 365 1247 418 l 1229 331 q 1213 305 1225 315 q 1185 294 1200 294 l 749 294 l 747 286 q 742 239 742 263 q 764 170 742 193 q 825 147 786 147 q 926 194 878 147 q 949 212 940 208 q 975 215 958 215 l 1156 215 q 1176 207 1169 215 q 1179 186 1182 199 q 1121 103 1171 151 q 985 21 1071 56 q 792 -14 900 -14 q 546 93 619 -14 q 246 -14 426 -14 m 996 436 l 997 442 q 1003 490 1003 465 q 981 556 1003 533 q 918 579 960 579 q 834 544 871 579 q 781 442 797 510 l 779 436 l 996 436 m 331 150 q 439 190 393 150 q 501 307 485 229 l 506 324 l 386 304 q 284 267 318 292 q 250 207 250 242 q 273 165 250 181 q 331 150 296 150 m 656 826 q 638 843 638 826 q 649 867 638 856 l 806 1018 q 834 1040 824 1035 q 863 1044 844 1044 l 1054 1044 q 1071 1038 1065 1044 q 1075 1018 1076 1031 q 1064 1000 1072 1007 l 844 847 q 817 831 829 836 q 788 826 804 826 l 656 826 z "},"b":{"ha":879,"x_min":-3,"x_max":833,"o":"m 450 -14 q 324 11 376 -14 q 244 78 271 36 l 236 35 q 221 10 233 19 q 193 0 208 0 l 28 0 q 5 10 13 0 q 0 35 -3 21 l 194 951 q 210 976 197 967 q 238 986 222 986 l 417 986 q 440 976 432 986 q 444 951 447 965 l 382 656 q 474 715 426 694 q 586 736 522 736 q 768 670 703 736 q 833 489 833 604 q 826 414 833 458 q 804 310 814 349 q 674 69 764 153 q 450 -14 585 -14 m 400 179 q 495 216 460 179 q 551 318 531 253 q 569 404 565 365 q 572 449 572 435 q 552 519 572 494 q 483 543 532 543 q 384 508 424 543 q 331 418 344 472 q 310 314 315 360 q 306 274 306 293 q 400 179 306 179 z "},"c":{"ha":822,"x_min":25,"x_max":797,"o":"m 335 -14 q 176 17 246 -14 q 65 108 106 49 q 25 249 25 167 q 29 304 25 275 l 53 417 q 201 653 93 569 q 471 736 310 736 q 656 697 582 736 q 763 601 729 657 q 797 496 797 544 l 796 481 q 783 456 794 467 q 756 446 771 446 l 567 446 q 535 474 539 446 q 511 533 532 514 q 451 551 490 551 q 307 410 343 551 q 286 311 290 335 q 281 260 281 272 q 301 192 281 214 q 365 171 322 171 q 435 189 406 171 q 486 246 464 207 q 504 268 494 261 q 529 275 514 275 l 718 275 q 741 265 733 275 q 744 239 749 254 q 685 133 731 192 q 551 31 639 75 q 335 -14 463 -14 z "},"ć":{"ha":822,"x_min":25,"x_max":828,"o":"m 335 -14 q 176 17 246 -14 q 65 108 106 49 q 25 249 25 167 q 29 304 25 275 l 53 417 q 201 653 93 569 q 471 736 310 736 q 656 697 582 736 q 763 601 729 657 q 797 496 797 544 l 796 481 q 783 456 794 467 q 756 446 771 446 l 567 446 q 535 474 539 446 q 511 533 532 514 q 451 551 490 551 q 307 410 343 551 q 286 311 290 335 q 281 260 281 272 q 301 192 281 214 q 365 171 322 171 q 435 189 406 171 q 486 246 464 207 q 504 268 494 261 q 529 275 514 275 l 718 275 q 741 265 733 275 q 744 239 749 254 q 685 133 731 192 q 551 31 639 75 q 335 -14 463 -14 m 408 826 q 390 843 390 826 q 401 867 390 856 l 558 1018 q 587 1040 576 1035 q 615 1044 597 1044 l 807 1044 q 824 1038 818 1044 q 828 1018 829 1031 q 817 1000 825 1007 l 597 847 q 569 831 582 836 q 540 826 557 826 l 408 826 z "},"č":{"ha":822,"x_min":25,"x_max":800,"o":"m 335 -14 q 176 17 246 -14 q 65 108 106 49 q 25 249 25 167 q 29 304 25 275 l 53 417 q 201 653 93 569 q 471 736 310 736 q 656 697 582 736 q 763 601 729 657 q 797 496 797 544 l 796 481 q 783 456 794 467 q 756 446 771 446 l 567 446 q 535 474 539 446 q 511 533 532 514 q 451 551 490 551 q 307 410 343 551 q 286 311 290 335 q 281 260 281 272 q 301 192 281 214 q 365 171 322 171 q 435 189 406 171 q 486 246 464 207 q 504 268 494 261 q 529 275 514 275 l 718 275 q 741 265 733 275 q 744 239 749 254 q 685 133 731 192 q 551 31 639 75 q 335 -14 463 -14 m 439 826 q 415 831 425 826 q 394 850 406 836 l 282 1006 q 278 1022 275 1013 q 285 1038 279 1032 q 303 1044 292 1044 l 365 1044 q 410 1035 393 1044 l 517 968 l 651 1035 q 699 1044 672 1044 l 783 1044 q 797 1039 793 1044 q 800 1025 801 1033 q 789 1006 799 1015 l 608 850 q 581 831 592 836 q 554 826 569 826 l 439 826 z "},"ç":{"ha":822,"x_min":24,"x_max":797,"o":"m 307 410 q 286 311 290 335 q 281 260 281 272 q 301 192 281 214 q 365 171 322 171 q 435 189 406 171 q 486 246 464 207 q 504 268 494 261 q 529 275 514 275 l 718 275 q 741 265 733 275 q 744 239 749 254 q 685 134 731 192 q 552 32 639 76 q 339 -14 465 -12 l 300 -68 q 347 -60 319 -60 q 410 -86 388 -60 q 433 -154 433 -112 q 429 -187 433 -171 q 381 -274 418 -243 q 283 -306 344 -306 q 203 -287 239 -306 q 167 -251 167 -269 q 176 -235 167 -240 l 206 -212 q 222 -206 214 -206 q 245 -215 228 -206 q 288 -224 263 -224 q 323 -212 308 -224 q 342 -182 338 -200 q 335 -154 344 -165 q 304 -143 325 -143 q 272 -148 292 -143 q 244 -153 253 -153 q 226 -144 233 -153 l 201 -111 q 196 -97 196 -103 q 211 -64 196 -86 l 249 -6 q 85 81 147 15 q 24 247 24 146 q 29 304 24 265 l 53 417 q 201 653 93 569 q 471 736 310 736 q 656 697 582 736 q 763 601 729 657 q 797 496 797 544 l 796 481 q 783 456 794 467 q 756 446 771 446 l 567 446 q 535 474 539 446 q 511 533 532 514 q 451 551 490 551 q 307 410 343 551 z "},"ĉ":{"ha":822,"x_min":25,"x_max":797,"o":"m 335 -14 q 176 17 246 -14 q 65 108 106 49 q 25 249 25 167 q 29 304 25 275 l 53 417 q 201 653 93 569 q 471 736 310 736 q 656 697 582 736 q 763 601 729 657 q 797 496 797 544 l 796 481 q 783 456 794 467 q 756 446 771 446 l 567 446 q 535 474 539 446 q 511 533 532 514 q 451 551 490 551 q 307 410 343 551 q 286 311 290 335 q 281 260 281 272 q 301 192 281 214 q 365 171 322 171 q 435 189 406 171 q 486 246 464 207 q 504 268 494 261 q 529 275 514 275 l 718 275 q 741 265 733 275 q 744 239 749 254 q 685 133 731 192 q 551 31 639 75 q 335 -14 463 -14 m 251 831 q 235 850 232 831 q 246 869 238 861 l 426 1024 q 454 1043 443 1038 q 481 1049 465 1049 l 596 1049 q 619 1043 610 1049 q 640 1024 629 1038 l 753 869 q 757 850 760 861 q 748 836 754 842 q 732 831 742 831 l 669 831 q 625 840 642 831 l 518 907 l 383 840 q 336 831 363 831 l 251 831 z "},"ċ":{"ha":822,"x_min":25,"x_max":797,"o":"m 335 -14 q 176 17 246 -14 q 65 108 106 49 q 25 249 25 167 q 29 304 25 275 l 53 417 q 201 653 93 569 q 471 736 310 736 q 656 697 582 736 q 763 601 729 657 q 797 496 797 544 l 796 481 q 783 456 794 467 q 756 446 771 446 l 567 446 q 535 474 539 446 q 511 533 532 514 q 451 551 490 551 q 307 410 343 551 q 286 311 290 335 q 281 260 281 272 q 301 192 281 214 q 365 171 322 171 q 435 189 406 171 q 486 246 464 207 q 504 268 494 261 q 529 275 514 275 l 718 275 q 741 265 733 275 q 744 239 749 254 q 685 133 731 192 q 551 31 639 75 q 335 -14 463 -14 m 435 836 q 414 845 421 836 q 410 868 407 854 l 440 1011 q 454 1034 443 1025 q 479 1043 465 1043 l 622 1043 q 643 1034 636 1043 q 647 1011 650 1025 l 617 868 q 603 845 614 854 q 578 836 592 836 l 435 836 z "},"d":{"ha":881,"x_min":25,"x_max":918,"o":"m 272 -14 q 90 50 154 -14 q 25 233 25 114 q 32 313 25 267 q 54 411 42 363 q 183 650 93 564 q 407 736 274 736 q 525 715 475 736 q 603 656 575 693 l 665 951 q 681 976 668 967 q 707 986 693 986 l 886 986 q 910 976 901 986 q 915 951 918 965 l 719 35 q 704 10 717 19 q 678 0 692 0 l 513 0 q 489 10 497 0 q 483 35 481 21 l 493 78 q 395 9 446 32 q 272 -14 344 -14 m 375 179 q 475 217 436 179 q 529 314 514 256 q 551 418 544 372 q 554 450 554 440 q 531 517 554 492 q 458 543 507 543 q 363 506 399 543 q 308 404 328 469 q 290 318 294 357 q 286 274 286 296 q 306 204 286 229 q 375 179 326 179 z "},"ð":{"ha":846,"x_min":39,"x_max":874,"o":"m 349 -14 q 120 51 201 -14 q 39 235 39 115 q 49 319 39 276 q 203 565 82 476 q 490 653 324 653 q 560 635 531 653 q 525 742 553 688 l 358 682 l 342 678 q 323 685 329 678 q 319 706 317 693 l 326 740 q 338 766 329 757 q 367 782 347 775 l 472 819 q 376 915 436 865 q 363 943 360 929 q 376 964 365 956 q 399 972 386 972 l 582 972 q 644 954 624 972 q 696 900 681 918 l 832 949 q 850 953 844 953 q 867 945 861 953 q 871 925 874 938 l 864 890 q 852 865 861 874 q 825 849 843 856 l 753 822 q 818 556 818 711 q 800 374 818 469 q 788 314 794 339 q 633 72 749 158 q 349 -14 518 -14 m 385 161 q 478 197 443 161 q 528 293 514 233 q 540 344 533 314 q 544 386 544 365 q 453 478 544 478 q 310 344 342 478 q 299 293 303 318 q 294 250 294 271 q 385 161 294 161 z "},"ď":{"ha":1083,"x_min":25,"x_max":1243,"o":"m 272 -14 q 90 50 154 -14 q 25 233 25 114 q 32 313 25 267 q 54 411 42 363 q 183 650 93 564 q 407 736 274 736 q 525 715 475 736 q 603 656 575 693 l 665 951 q 681 976 668 967 q 707 986 693 986 l 886 986 q 910 976 901 986 q 915 951 918 965 l 719 35 q 704 10 717 19 q 678 0 692 0 l 513 0 q 489 10 497 0 q 483 35 481 21 l 493 78 q 395 9 446 32 q 272 -14 344 -14 m 375 179 q 475 217 436 179 q 529 314 514 256 q 551 418 544 372 q 554 450 554 440 q 531 517 554 492 q 458 543 507 543 q 363 506 399 543 q 308 404 328 469 q 290 318 294 357 q 286 274 286 296 q 306 204 286 229 q 375 179 326 179 m 964 726 q 947 735 953 726 q 944 757 940 744 l 1010 938 q 1033 972 1017 957 q 1072 986 1049 986 l 1222 986 q 1240 978 1233 986 q 1243 958 1246 969 q 1236 943 1240 950 l 1131 767 q 1104 738 1118 749 q 1069 726 1090 726 l 964 726 z "},"đ":{"ha":881,"x_min":24,"x_max":989,"o":"m 258 -14 q 83 48 142 -14 q 24 224 24 110 q 32 313 24 265 q 54 411 42 363 q 185 647 90 558 q 418 736 281 736 q 601 656 542 736 l 626 772 l 572 772 q 549 783 557 772 q 544 807 542 793 l 557 861 q 572 886 560 876 q 599 896 583 896 l 653 896 l 665 951 q 681 976 668 967 q 707 986 693 986 l 886 986 q 910 976 901 986 q 915 951 918 965 l 903 896 l 957 896 q 980 886 971 896 q 986 861 989 876 l 974 807 q 958 782 971 792 q 931 772 946 772 l 876 772 l 719 35 q 704 10 717 19 q 678 0 692 0 l 513 0 q 489 10 497 0 q 483 35 481 21 l 494 85 q 258 -14 399 -14 m 379 179 q 477 217 440 179 q 529 314 514 254 q 551 418 544 372 q 554 449 554 440 q 531 517 554 492 q 457 543 507 543 q 360 506 394 543 q 308 404 326 469 q 289 318 296 361 q 286 275 286 303 q 307 204 286 229 q 379 179 328 179 z "},"e":{"ha":826,"x_min":46,"x_max":804,"o":"m 347 -14 q 124 52 203 -14 q 46 247 46 118 q 56 342 46 294 l 65 385 q 223 643 106 550 q 506 736 340 736 q 729 663 654 736 q 804 465 804 590 q 793 365 804 421 l 786 331 q 769 305 782 315 q 742 294 757 294 l 301 294 l 300 286 q 296 242 296 264 q 317 173 296 199 q 379 147 338 147 q 435 160 413 147 q 481 194 458 174 q 505 212 496 208 q 529 215 514 215 l 713 215 q 732 207 725 215 q 736 186 739 199 q 675 101 726 149 q 538 20 624 54 q 347 -14 453 -14 m 553 436 l 554 439 q 560 486 560 461 q 537 555 560 531 q 472 579 514 579 q 383 542 419 579 q 332 439 346 504 l 332 436 l 553 436 z "},"é":{"ha":826,"x_min":46,"x_max":829,"o":"m 347 -14 q 124 52 203 -14 q 46 247 46 118 q 56 342 46 294 l 65 385 q 223 643 106 550 q 506 736 340 736 q 729 663 654 736 q 804 465 804 590 q 793 365 804 421 l 786 331 q 769 305 782 315 q 742 294 757 294 l 301 294 l 300 286 q 296 242 296 264 q 317 173 296 199 q 379 147 338 147 q 435 160 413 147 q 481 194 458 174 q 505 212 496 208 q 529 215 514 215 l 713 215 q 732 207 725 215 q 736 186 739 199 q 675 101 726 149 q 538 20 624 54 q 347 -14 453 -14 m 553 436 l 554 439 q 560 486 560 461 q 537 555 560 531 q 472 579 514 579 q 383 542 419 579 q 332 439 346 504 l 332 436 l 553 436 m 410 826 q 392 843 392 826 q 403 867 392 856 l 560 1018 q 588 1040 578 1035 q 617 1044 599 1044 l 808 1044 q 825 1038 819 1044 q 829 1018 831 1031 q 818 1000 826 1007 l 599 847 q 571 831 583 836 q 542 826 558 826 l 410 826 z "},"ĕ":{"ha":826,"x_min":46,"x_max":804,"o":"m 347 -14 q 124 52 203 -14 q 46 247 46 118 q 56 342 46 294 l 65 385 q 223 643 106 550 q 506 736 340 736 q 729 663 654 736 q 804 465 804 590 q 793 365 804 421 l 786 331 q 769 305 782 315 q 742 294 757 294 l 301 294 l 300 286 q 296 242 296 264 q 317 173 296 199 q 379 147 338 147 q 435 160 413 147 q 481 194 458 174 q 505 212 496 208 q 529 215 514 215 l 713 215 q 732 207 725 215 q 736 186 739 199 q 675 101 726 149 q 538 20 624 54 q 347 -14 453 -14 m 553 436 l 554 439 q 560 486 560 461 q 537 555 560 531 q 472 579 514 579 q 383 542 419 579 q 332 439 346 504 l 332 436 l 553 436 m 501 819 q 367 864 418 819 q 317 978 317 908 q 321 1018 317 997 q 332 1037 324 1029 q 353 1044 340 1044 l 447 1044 q 465 1037 460 1044 q 468 1018 471 1029 q 464 986 464 1001 q 513 936 464 936 q 566 959 546 936 q 594 1018 586 982 q 606 1037 597 1029 q 626 1044 614 1044 l 721 1044 q 739 1037 733 1044 q 742 1018 744 1029 q 501 819 699 819 z "},"ě":{"ha":826,"x_min":46,"x_max":808,"o":"m 347 -14 q 124 52 203 -14 q 46 247 46 118 q 56 342 46 294 l 65 385 q 223 643 106 550 q 506 736 340 736 q 729 663 654 736 q 804 465 804 590 q 793 365 804 421 l 786 331 q 769 305 782 315 q 742 294 757 294 l 301 294 l 300 286 q 296 242 296 264 q 317 173 296 199 q 379 147 338 147 q 435 160 413 147 q 481 194 458 174 q 505 212 496 208 q 529 215 514 215 l 713 215 q 732 207 725 215 q 736 186 739 199 q 675 101 726 149 q 538 20 624 54 q 347 -14 453 -14 m 553 436 l 554 439 q 560 486 560 461 q 537 555 560 531 q 472 579 514 579 q 383 542 419 579 q 332 439 346 504 l 332 436 l 553 436 m 447 826 q 424 831 433 826 q 403 850 414 836 l 290 1006 q 286 1022 283 1013 q 294 1038 288 1032 q 311 1044 300 1044 l 374 1044 q 418 1035 401 1044 l 525 968 l 660 1035 q 707 1044 681 1044 l 792 1044 q 806 1039 801 1044 q 808 1025 810 1033 q 797 1006 807 1015 l 617 850 q 589 831 600 836 q 563 826 578 826 l 447 826 z "},"ê":{"ha":826,"x_min":46,"x_max":804,"o":"m 347 -14 q 124 52 203 -14 q 46 247 46 118 q 56 342 46 294 l 65 385 q 223 643 106 550 q 506 736 340 736 q 729 663 654 736 q 804 465 804 590 q 793 365 804 421 l 786 331 q 769 305 782 315 q 742 294 757 294 l 301 294 l 300 286 q 296 242 296 264 q 317 173 296 199 q 379 147 338 147 q 435 160 413 147 q 481 194 458 174 q 505 212 496 208 q 529 215 514 215 l 713 215 q 732 207 725 215 q 736 186 739 199 q 675 101 726 149 q 538 20 624 54 q 347 -14 453 -14 m 553 436 l 554 439 q 560 486 560 461 q 537 555 560 531 q 472 579 514 579 q 383 542 419 579 q 332 439 346 504 l 332 436 l 553 436 m 243 826 q 226 846 224 826 q 238 865 229 857 l 418 1019 q 446 1039 435 1033 q 472 1044 457 1044 l 588 1044 q 611 1039 601 1044 q 632 1019 621 1033 l 744 865 q 749 846 751 857 q 740 832 746 838 q 724 826 733 826 l 661 826 q 617 836 633 826 l 510 903 l 375 836 q 328 826 354 826 l 243 826 z "},"ë":{"ha":826,"x_min":46,"x_max":804,"o":"m 347 -14 q 124 52 203 -14 q 46 247 46 118 q 56 342 46 294 l 65 385 q 223 643 106 550 q 506 736 340 736 q 729 663 654 736 q 804 465 804 590 q 793 365 804 421 l 786 331 q 769 305 782 315 q 742 294 757 294 l 301 294 l 300 286 q 296 242 296 264 q 317 173 296 199 q 379 147 338 147 q 435 160 413 147 q 481 194 458 174 q 505 212 496 208 q 529 215 514 215 l 713 215 q 732 207 725 215 q 736 186 739 199 q 675 101 726 149 q 538 20 624 54 q 347 -14 453 -14 m 553 436 l 554 439 q 560 486 560 461 q 537 555 560 531 q 472 579 514 579 q 383 542 419 579 q 332 439 346 504 l 332 436 l 553 436 m 290 842 q 269 850 276 842 q 265 872 263 858 l 293 1006 q 307 1028 296 1019 q 332 1038 318 1038 l 464 1038 q 485 1028 478 1038 q 489 1006 492 1019 l 461 872 q 447 850 458 858 q 422 842 436 842 l 290 842 m 582 842 q 561 850 568 842 q 557 872 554 858 l 586 1006 q 599 1028 588 1019 q 624 1038 610 1038 l 756 1038 q 777 1028 769 1038 q 782 1006 785 1019 l 753 872 q 740 850 750 858 q 715 842 729 842 l 582 842 z "},"ė":{"ha":826,"x_min":46,"x_max":804,"o":"m 347 -14 q 124 52 203 -14 q 46 247 46 118 q 56 342 46 294 l 65 385 q 223 643 106 550 q 506 736 340 736 q 729 663 654 736 q 804 465 804 590 q 793 365 804 421 l 786 331 q 769 305 782 315 q 742 294 757 294 l 301 294 l 300 286 q 296 242 296 264 q 317 173 296 199 q 379 147 338 147 q 435 160 413 147 q 481 194 458 174 q 505 212 496 208 q 529 215 514 215 l 713 215 q 732 207 725 215 q 736 186 739 199 q 675 101 726 149 q 538 20 624 54 q 347 -14 453 -14 m 553 436 l 554 439 q 560 486 560 461 q 537 555 560 531 q 472 579 514 579 q 383 542 419 579 q 332 439 346 504 l 332 436 l 553 436 m 425 836 q 404 845 411 836 q 400 868 397 854 l 431 1011 q 444 1034 433 1025 q 469 1043 456 1043 l 613 1043 q 633 1034 626 1043 q 638 1011 640 1025 l 607 868 q 593 845 604 854 q 568 836 582 836 l 425 836 z "},"è":{"ha":826,"x_min":46,"x_max":804,"o":"m 347 -14 q 124 52 203 -14 q 46 247 46 118 q 56 342 46 294 l 65 385 q 223 643 106 550 q 506 736 340 736 q 729 663 654 736 q 804 465 804 590 q 793 365 804 421 l 786 331 q 769 305 782 315 q 742 294 757 294 l 301 294 l 300 286 q 296 242 296 264 q 317 173 296 199 q 379 147 338 147 q 435 160 413 147 q 481 194 458 174 q 505 212 496 208 q 529 215 514 215 l 713 215 q 732 207 725 215 q 736 186 739 199 q 675 101 726 149 q 538 20 624 54 q 347 -14 453 -14 m 553 436 l 554 439 q 560 486 560 461 q 537 555 560 531 q 472 579 514 579 q 383 542 419 579 q 332 439 346 504 l 332 436 l 553 436 m 442 826 q 415 831 425 826 q 393 847 404 836 l 240 999 q 236 1011 236 1006 q 245 1035 236 1025 q 267 1044 254 1044 l 468 1044 q 495 1040 486 1044 q 514 1018 504 1035 l 606 868 q 610 854 610 863 q 603 834 610 842 q 583 826 596 826 l 442 826 z "},"ē":{"ha":826,"x_min":46,"x_max":804,"o":"m 347 -14 q 124 52 203 -14 q 46 247 46 118 q 56 342 46 294 l 65 385 q 223 643 106 550 q 506 736 340 736 q 729 663 654 736 q 804 465 804 590 q 793 365 804 421 l 786 331 q 769 305 782 315 q 742 294 757 294 l 301 294 l 300 286 q 296 242 296 264 q 317 173 296 199 q 379 147 338 147 q 435 160 413 147 q 481 194 458 174 q 505 212 496 208 q 529 215 514 215 l 713 215 q 732 207 725 215 q 736 186 739 199 q 675 101 726 149 q 538 20 624 54 q 347 -14 453 -14 m 553 436 l 554 439 q 560 486 560 461 q 537 555 560 531 q 472 579 514 579 q 383 542 419 579 q 332 439 346 504 l 332 436 l 553 436 m 300 839 q 279 848 286 839 q 275 871 272 857 l 297 974 q 310 996 300 988 q 335 1004 321 1004 l 731 1004 q 751 996 744 1004 q 754 974 757 988 l 733 871 q 719 848 731 857 q 694 839 708 839 l 300 839 z "},"ę":{"ha":831,"x_min":47,"x_max":804,"o":"m 358 -306 q 224 -262 268 -306 q 179 -146 179 -219 q 186 -83 179 -121 q 218 1 197 -31 q 91 87 135 25 q 47 244 47 149 q 57 342 47 293 q 65 383 60 358 q 223 643 106 550 q 506 736 340 736 q 729 663 654 736 q 804 465 804 590 q 793 365 804 421 l 786 331 q 769 305 782 315 q 743 294 757 294 l 301 294 l 300 286 q 296 243 296 264 q 317 173 296 199 q 379 147 338 147 q 435 160 413 147 q 481 194 458 174 q 505 212 496 208 q 531 215 514 215 l 713 215 q 733 207 726 215 q 736 186 740 199 q 687 114 726 154 q 581 40 647 74 q 431 -7 514 6 q 353 -40 378 -17 q 328 -106 328 -64 q 344 -149 328 -132 q 394 -167 361 -167 l 410 -167 q 433 -176 425 -167 q 439 -201 442 -186 l 424 -271 q 408 -295 421 -285 q 381 -306 396 -306 l 358 -306 m 553 436 l 554 439 q 560 486 560 461 q 537 555 560 531 q 472 579 514 579 q 383 542 419 579 q 332 439 346 504 l 332 436 l 553 436 z "},"f":{"ha":619,"x_min":53,"x_max":744,"o":"m 111 0 q 88 10 96 0 q 82 35 79 19 l 189 533 l 83 533 q 60 544 68 533 q 56 568 53 554 l 81 688 q 96 713 83 703 q 124 722 108 722 l 228 722 l 238 764 q 354 966 268 904 q 583 1028 440 1028 l 714 1028 q 737 1018 729 1028 q 742 993 744 1008 l 717 874 q 701 849 714 858 q 674 839 689 839 l 578 839 q 476 757 493 839 l 468 722 l 635 722 q 658 713 650 722 q 663 688 665 703 l 638 568 q 622 543 635 553 q 596 533 610 533 l 429 533 l 322 35 q 307 10 319 19 q 281 0 294 0 l 111 0 z "},"g":{"ha":883,"x_min":-42,"x_max":864,"o":"m 297 -306 q 94 -263 171 -306 q -12 -165 18 -221 q -36 -72 -42 -110 q -22 -47 -35 -57 q 6 -36 -10 -36 l 194 -36 q 215 -42 208 -36 q 225 -64 222 -49 q 249 -111 231 -93 q 315 -129 268 -129 q 463 0 435 -129 l 482 93 q 390 36 438 56 q 278 17 343 17 q 93 77 156 17 q 31 254 31 138 q 38 338 31 286 q 53 411 42 368 q 182 651 94 567 q 407 736 269 736 q 531 708 478 736 q 610 636 585 681 l 621 686 q 636 712 624 701 q 664 722 649 722 l 833 722 q 856 712 849 722 q 861 686 864 701 l 721 21 q 583 -224 686 -143 q 297 -306 479 -306 m 379 204 q 477 241 438 204 q 532 332 517 278 q 550 415 543 372 q 553 447 553 438 q 530 517 553 490 q 457 543 507 543 q 307 404 344 543 q 294 343 296 369 q 290 296 290 318 q 310 228 290 251 q 379 204 331 204 z "},"ğ":{"ha":883,"x_min":-36,"x_max":863,"o":"m 297 -306 q 94 -263 171 -306 q -12 -165 18 -221 q -36 -72 -42 -110 q -22 -47 -35 -57 q 6 -36 -10 -36 l 194 -36 q 215 -42 208 -36 q 225 -64 222 -49 q 249 -111 231 -93 q 315 -129 268 -129 q 463 0 435 -129 l 482 93 q 390 36 438 56 q 278 17 343 17 q 93 77 156 17 q 31 254 31 138 q 38 338 31 286 q 53 411 42 368 q 182 651 94 567 q 407 736 269 736 q 531 708 478 736 q 610 636 585 681 l 621 686 q 636 712 624 701 q 664 722 649 722 l 833 722 q 856 712 849 722 q 861 686 864 701 l 721 21 q 583 -224 686 -143 q 297 -306 479 -306 m 379 204 q 477 241 438 204 q 532 332 517 278 q 550 415 543 372 q 553 447 553 438 q 530 517 553 490 q 457 543 507 543 q 307 404 344 543 q 294 343 296 369 q 290 296 290 318 q 310 228 290 251 q 379 204 331 204 m 525 819 q 391 864 442 819 q 340 978 340 908 q 344 1018 340 997 q 356 1037 347 1029 q 376 1044 364 1044 l 471 1044 q 489 1037 483 1044 q 492 1018 494 1029 q 488 986 488 1001 q 536 936 488 936 q 590 959 569 936 q 618 1018 610 982 q 629 1037 621 1029 q 650 1044 638 1044 l 744 1044 q 763 1037 757 1044 q 765 1018 768 1029 q 525 819 722 819 z "},"ĝ":{"ha":883,"x_min":-36,"x_max":863,"o":"m 297 -306 q 94 -263 171 -306 q -12 -165 18 -221 q -36 -72 -42 -110 q -22 -47 -35 -57 q 6 -36 -10 -36 l 194 -36 q 215 -42 208 -36 q 225 -64 222 -49 q 249 -111 231 -93 q 315 -129 268 -129 q 463 0 435 -129 l 482 93 q 390 36 438 56 q 278 17 343 17 q 93 77 156 17 q 31 254 31 138 q 38 338 31 286 q 53 411 42 368 q 182 651 94 567 q 407 736 269 736 q 531 708 478 736 q 610 636 585 681 l 621 686 q 636 712 624 701 q 664 722 649 722 l 833 722 q 856 712 849 722 q 861 686 864 701 l 721 21 q 583 -224 686 -143 q 297 -306 479 -306 m 379 204 q 477 241 438 204 q 532 332 517 278 q 550 415 543 372 q 553 447 553 438 q 530 517 553 490 q 457 543 507 543 q 307 404 344 543 q 294 343 296 369 q 290 296 290 318 q 310 228 290 251 q 379 204 331 204 m 268 826 q 251 846 249 826 q 263 865 254 857 l 443 1019 q 471 1039 460 1033 q 497 1044 482 1044 l 613 1044 q 636 1039 626 1044 q 657 1019 646 1033 l 769 865 q 774 846 776 857 q 765 832 771 838 q 749 826 758 826 l 686 826 q 642 836 658 826 l 535 903 l 400 836 q 353 826 379 826 l 268 826 z "},"ģ":{"ha":883,"x_min":-42,"x_max":864,"o":"m 793 1086 q 810 1077 804 1086 q 813 1056 817 1068 l 747 875 q 724 841 740 856 q 685 826 708 826 l 535 826 q 517 835 524 826 q 514 854 511 843 q 521 869 517 863 l 626 1046 q 653 1075 639 1064 q 688 1086 667 1086 l 793 1086 m 297 -306 q 94 -263 171 -306 q -12 -165 18 -221 q -36 -72 -42 -110 q -22 -47 -35 -57 q 6 -36 -10 -36 l 194 -36 q 215 -42 208 -36 q 225 -64 222 -49 q 249 -111 231 -93 q 315 -129 268 -129 q 463 0 435 -129 l 482 93 q 390 36 438 56 q 278 17 343 17 q 93 77 156 17 q 31 254 31 138 q 38 338 31 286 q 53 411 42 368 q 182 651 94 567 q 407 736 269 736 q 531 708 478 736 q 610 636 585 681 l 621 686 q 636 712 624 701 q 664 722 649 722 l 833 722 q 856 712 849 722 q 861 686 864 701 l 721 21 q 583 -224 686 -143 q 297 -306 479 -306 m 379 204 q 477 241 438 204 q 532 332 517 278 q 550 415 543 372 q 553 447 553 438 q 530 517 553 490 q 457 543 507 543 q 307 404 344 543 q 294 343 296 369 q 290 296 290 318 q 310 228 290 251 q 379 204 331 204 z "},"ġ":{"ha":883,"x_min":-36,"x_max":863,"o":"m 297 -306 q 94 -263 171 -306 q -12 -165 18 -221 q -36 -72 -42 -110 q -22 -47 -35 -57 q 6 -36 -10 -36 l 194 -36 q 215 -42 208 -36 q 225 -64 222 -49 q 249 -111 231 -93 q 315 -129 268 -129 q 463 0 435 -129 l 482 93 q 390 36 438 56 q 278 17 343 17 q 93 77 156 17 q 31 254 31 138 q 38 338 31 286 q 53 411 42 368 q 182 651 94 567 q 407 736 269 736 q 531 708 478 736 q 610 636 585 681 l 621 686 q 636 712 624 701 q 664 722 649 722 l 833 722 q 856 712 849 722 q 861 686 864 701 l 721 21 q 583 -224 686 -143 q 297 -306 479 -306 m 379 204 q 477 241 438 204 q 532 332 517 278 q 550 415 543 372 q 553 447 553 438 q 530 517 553 490 q 457 543 507 543 q 307 404 344 543 q 294 343 296 369 q 290 296 290 318 q 310 228 290 251 q 379 204 331 204 m 446 836 q 425 845 432 836 q 421 868 418 854 l 451 1011 q 465 1034 454 1025 q 490 1043 476 1043 l 633 1043 q 654 1034 647 1043 q 658 1011 661 1025 l 628 868 q 614 845 625 854 q 589 836 603 836 l 446 836 z "},"h":{"ha":908,"x_min":-3,"x_max":849,"o":"m 28 0 q 5 10 13 0 q 0 35 -3 21 l 194 951 q 210 976 197 967 q 236 986 222 986 l 425 986 q 449 976 440 986 q 454 951 457 965 l 388 642 q 489 712 435 688 q 611 736 543 736 q 784 678 719 736 q 849 510 849 619 q 839 422 849 467 l 756 35 q 740 10 753 19 q 714 0 728 0 l 525 0 q 501 10 510 0 q 496 35 493 19 l 576 414 q 582 458 582 436 q 492 543 582 543 q 394 509 436 543 q 339 414 353 475 l 258 35 q 243 10 256 19 q 217 0 231 0 l 28 0 z "},"ħ":{"ha":908,"x_min":-3,"x_max":849,"o":"m 28 0 q 5 10 13 0 q 0 35 -3 21 l 154 763 l 104 763 q 81 773 89 763 q 76 797 72 783 l 88 851 q 103 876 90 867 q 129 886 115 886 l 181 886 l 194 951 q 210 976 197 967 q 236 986 222 986 l 425 986 q 449 976 440 986 q 454 951 457 965 l 439 886 l 489 886 q 512 876 504 886 q 517 851 519 865 l 506 797 q 489 772 501 782 q 463 763 476 763 l 414 763 l 388 642 q 492 710 433 685 q 621 736 551 736 q 788 678 726 736 q 849 514 849 621 q 839 422 849 469 l 756 36 q 740 11 753 21 q 714 1 728 1 l 525 1 q 501 11 510 1 q 496 36 493 21 l 576 414 q 582 461 582 438 q 492 543 582 543 q 394 509 436 543 q 339 414 353 475 l 258 35 q 243 10 256 19 q 217 0 231 0 l 28 0 z "},"ĥ":{"ha":908,"x_min":-1,"x_max":849,"o":"m 28 0 q 5 10 13 0 q 0 35 -3 21 l 194 951 q 210 976 197 967 q 236 986 222 986 l 425 986 q 449 976 440 986 q 454 951 457 965 l 388 642 q 489 712 435 688 q 611 736 543 736 q 784 678 719 736 q 849 510 849 619 q 839 422 849 467 l 756 35 q 740 10 753 19 q 714 0 728 0 l 525 0 q 501 10 510 0 q 496 35 493 19 l 576 414 q 582 458 582 436 q 492 543 582 543 q 394 509 436 543 q 339 414 353 475 l 258 35 q 243 10 256 19 q 217 0 231 0 l 28 0 m 304 1042 q 288 1061 285 1042 q 299 1081 290 1072 l 479 1235 q 507 1254 496 1249 q 533 1260 518 1260 l 649 1260 q 672 1254 663 1260 q 693 1235 682 1249 l 806 1081 q 810 1061 813 1072 q 801 1047 807 1053 q 785 1042 794 1042 l 722 1042 q 678 1051 694 1042 l 571 1118 l 436 1051 q 389 1042 415 1042 l 304 1042 z "},"i":{"ha":403,"x_min":-3,"x_max":450,"o":"m 203 822 q 179 833 188 822 q 174 858 171 843 l 201 988 q 217 1013 204 1003 q 244 1024 231 1024 l 418 1024 q 442 1013 433 1024 q 447 988 450 1003 l 418 858 q 404 833 417 843 q 376 822 392 822 l 203 822 m 28 0 q 5 10 13 0 q 0 35 -3 21 l 138 688 q 153 712 140 701 q 181 722 165 722 l 354 722 q 377 713 369 722 q 382 688 385 703 l 243 35 q 228 10 240 19 q 201 0 217 0 l 28 0 z "},"ı":{"ha":403,"x_min":-3,"x_max":385,"o":"m 28 0 q 5 10 13 0 q 0 35 -3 21 l 138 688 q 153 712 140 701 q 181 722 165 722 l 354 722 q 377 713 369 722 q 382 688 385 703 l 243 35 q 228 10 240 19 q 201 0 217 0 l 28 0 z "},"í":{"ha":403,"x_min":-1,"x_max":626,"o":"m 28 0 q 5 10 13 0 q 0 35 -3 21 l 138 688 q 153 712 140 701 q 181 722 165 722 l 354 722 q 377 713 369 722 q 382 688 385 703 l 243 35 q 228 10 240 19 q 201 0 217 0 l 28 0 m 207 826 q 189 843 189 826 q 200 867 189 856 l 357 1018 q 385 1040 375 1035 q 414 1044 396 1044 l 606 1044 q 622 1038 617 1044 q 626 1018 628 1031 q 615 1000 624 1007 l 396 847 q 368 831 381 836 q 339 826 356 826 l 207 826 z "},"ĭ":{"ha":403,"x_min":-1,"x_max":540,"o":"m 28 0 q 5 10 13 0 q 0 35 -3 21 l 138 688 q 153 712 140 701 q 181 722 165 722 l 354 722 q 377 713 369 722 q 382 688 385 703 l 243 35 q 228 10 240 19 q 201 0 217 0 l 28 0 m 300 819 q 166 864 217 819 q 115 978 115 908 q 119 1018 115 997 q 131 1037 122 1029 q 151 1044 139 1044 l 246 1044 q 264 1037 258 1044 q 267 1018 269 1029 q 263 986 263 1001 q 311 936 263 936 q 365 959 344 936 q 393 1018 385 982 q 404 1037 396 1029 q 425 1044 413 1044 l 519 1044 q 538 1037 532 1044 q 540 1018 543 1029 q 300 819 497 819 z "},"î":{"ha":403,"x_min":-1,"x_max":546,"o":"m 28 0 q 5 10 13 0 q 0 35 -3 21 l 138 688 q 153 712 140 701 q 181 722 165 722 l 354 722 q 377 713 369 722 q 382 688 385 703 l 243 35 q 228 10 240 19 q 201 0 217 0 l 28 0 m 40 826 q 24 846 21 826 q 35 865 26 857 l 215 1019 q 243 1039 232 1033 q 269 1044 254 1044 l 385 1044 q 408 1039 399 1044 q 429 1019 418 1033 l 542 865 q 546 846 549 857 q 537 832 543 838 q 521 826 531 826 l 458 826 q 414 836 431 826 l 307 903 l 172 836 q 125 826 151 826 l 40 826 z "},"ï":{"ha":403,"x_min":-1,"x_max":574,"o":"m 28 0 q 5 10 13 0 q 0 35 -3 21 l 138 688 q 153 712 140 701 q 181 722 165 722 l 354 722 q 377 713 369 722 q 382 688 385 703 l 243 35 q 228 10 240 19 q 201 0 217 0 l 28 0 m 81 842 q 60 850 67 842 q 56 872 53 858 l 83 1006 q 97 1028 86 1019 q 122 1038 108 1038 l 254 1038 q 275 1028 268 1038 q 279 1006 282 1019 l 251 872 q 238 850 249 858 q 213 842 226 842 l 81 842 m 372 842 q 351 850 358 842 q 347 872 344 858 l 376 1006 q 389 1028 378 1019 q 414 1038 400 1038 l 546 1038 q 567 1028 560 1038 q 572 1006 575 1019 l 543 872 q 530 850 540 858 q 506 842 519 842 l 372 842 z "},"ì":{"ha":403,"x_min":-1,"x_max":407,"o":"m 28 0 q 5 10 13 0 q 0 35 -3 21 l 138 688 q 153 712 140 701 q 181 722 165 722 l 354 722 q 377 713 369 722 q 382 688 385 703 l 243 35 q 228 10 240 19 q 201 0 217 0 l 28 0 m 239 826 q 212 831 222 826 q 190 847 201 836 l 38 999 q 33 1011 33 1006 q 42 1035 33 1025 q 64 1044 51 1044 l 265 1044 q 292 1040 283 1044 q 311 1018 301 1035 l 403 868 q 407 854 407 863 q 399 834 407 842 q 381 826 392 826 l 239 826 z "},"ĳ":{"ha":831,"x_min":-1,"x_max":874,"o":"m 203 822 q 179 833 188 822 q 174 858 171 843 l 201 988 q 217 1013 204 1003 q 244 1024 231 1024 l 418 1024 q 442 1013 433 1024 q 447 988 450 1003 l 418 858 q 404 833 417 843 q 376 822 392 822 l 203 822 m 28 0 q 5 10 13 0 q 0 35 -3 21 l 138 688 q 153 712 140 701 q 181 722 165 722 l 354 722 q 377 713 369 722 q 382 688 385 703 l 243 35 q 228 10 240 19 q 201 0 217 0 l 28 0 m 621 822 q 597 833 606 822 q 592 858 589 843 l 619 988 q 635 1013 622 1003 q 663 1024 649 1024 l 844 1024 q 868 1013 860 1024 q 874 988 876 1003 l 844 858 q 831 833 843 843 q 803 822 818 822 l 621 822 m 218 -264 q 197 -254 204 -264 q 192 -229 189 -244 l 217 -110 q 232 -85 219 -94 q 258 -75 244 -75 l 315 -75 q 415 22 394 -75 l 556 688 q 571 712 558 701 q 599 722 583 722 l 781 722 q 803 713 796 722 q 808 688 811 703 l 667 17 q 313 -264 607 -264 l 218 -264 z "},"ī":{"ha":403,"x_min":-1,"x_max":550,"o":"m 28 0 q 5 10 13 0 q 0 35 -3 21 l 138 688 q 153 712 140 701 q 181 722 165 722 l 354 722 q 377 713 369 722 q 382 688 385 703 l 243 35 q 228 10 240 19 q 201 0 217 0 l 28 0 m 94 839 q 74 848 81 839 q 69 871 67 857 l 92 974 q 105 996 94 988 q 129 1004 115 1004 l 525 1004 q 545 996 539 1004 q 549 974 551 988 l 528 871 q 514 848 525 857 q 489 839 503 839 l 94 839 z "},"į":{"ha":413,"x_min":-19,"x_max":478,"o":"m 231 822 q 208 833 215 822 q 203 858 200 843 l 231 988 q 247 1013 233 1003 q 274 1024 260 1024 l 447 1024 q 470 1013 463 1024 q 475 988 478 1003 l 447 858 q 432 833 444 843 q 404 822 419 822 l 231 822 m 153 -279 q 24 -239 67 -279 q -19 -129 -19 -199 q -14 -75 -19 -101 q 12 -14 -7 -40 q 58 25 31 13 l 51 26 q 35 36 40 28 q 33 54 31 44 l 167 688 q 182 712 169 701 q 210 722 194 722 l 383 722 q 406 713 399 722 q 411 688 414 703 l 272 35 q 257 10 269 19 q 229 0 244 0 l 218 0 q 153 -20 178 0 q 121 -75 129 -40 q 118 -94 118 -89 q 135 -135 118 -121 q 186 -150 153 -150 l 203 -150 q 226 -160 218 -150 q 231 -185 233 -171 l 218 -244 q 203 -269 215 -258 q 175 -279 190 -279 l 153 -279 z "},"ĩ":{"ha":403,"x_min":-1,"x_max":569,"o":"m 28 0 q 5 10 13 0 q 0 35 -3 21 l 138 688 q 153 712 140 701 q 181 722 165 722 l 354 722 q 377 713 369 722 q 382 688 385 703 l 243 35 q 228 10 240 19 q 201 0 217 0 l 28 0 m 383 819 q 336 826 356 819 q 290 847 317 833 q 261 863 274 858 q 233 868 249 868 q 210 863 219 868 q 190 846 201 857 q 174 831 181 836 q 157 826 167 826 l 69 826 q 53 833 60 826 q 50 850 47 840 q 79 928 57 886 q 141 999 101 969 q 236 1029 181 1029 q 283 1022 264 1029 q 329 1001 303 1015 q 360 985 349 990 q 388 981 372 981 q 410 986 401 981 q 431 1004 418 992 q 463 1024 447 1024 l 549 1024 q 565 1016 560 1024 q 569 999 571 1008 q 510 878 557 936 q 383 819 463 819 z "},"j":{"ha":428,"x_min":-214,"x_max":474,"o":"m 218 822 q 194 833 203 822 q 189 858 186 843 l 217 988 q 233 1013 219 1003 q 260 1024 246 1024 l 442 1024 q 465 1013 457 1024 q 471 988 474 1003 l 442 858 q 428 833 440 843 q 400 822 415 822 l 218 822 m -185 -264 q -206 -254 -199 -264 q -211 -229 -214 -244 l -186 -110 q -171 -85 -183 -94 q -144 -75 -158 -75 l -87 -75 q 13 22 -8 -75 l 153 688 q 168 712 156 701 q 196 722 181 722 l 378 722 q 401 713 393 722 q 406 688 408 703 l 264 17 q -90 -264 204 -264 l -185 -264 z "},"ȷ":{"ha":568,"x_min":-115,"x_max":550,"o":"m -86 -264 q -108 -253 -100 -264 q -112 -229 -115 -243 l -81 -78 q -65 -53 -78 -62 q -39 -43 -53 -43 l 57 -43 q 126 -18 103 -43 q 158 54 149 7 l 258 526 l 89 526 q 67 536 75 526 q 61 561 58 546 l 88 688 q 103 712 90 701 q 131 722 115 722 l 519 722 q 542 712 535 722 q 547 688 550 701 l 413 54 q 281 -178 382 -92 q 39 -264 181 -264 l -86 -264 z "},"ĵ":{"ha":568,"x_min":-114,"x_max":610,"o":"m -86 -264 q -108 -253 -100 -264 q -112 -229 -115 -243 l -81 -78 q -65 -53 -78 -62 q -39 -43 -53 -43 l 57 -43 q 126 -18 103 -43 q 158 54 149 7 l 258 526 l 89 526 q 67 536 75 526 q 61 561 58 546 l 88 688 q 103 712 90 701 q 131 722 115 722 l 519 722 q 542 712 535 722 q 547 688 550 701 l 413 54 q 281 -178 382 -92 q 39 -264 181 -264 l -86 -264 m 104 826 q 88 846 85 826 q 99 865 90 857 l 279 1019 q 307 1039 296 1033 q 333 1044 318 1044 l 449 1044 q 472 1039 463 1044 q 493 1019 482 1033 l 606 865 q 610 846 613 857 q 601 832 607 838 q 585 826 594 826 l 522 826 q 478 836 494 826 l 371 903 l 236 836 q 189 826 215 826 l 104 826 z "},"k":{"ha":826,"x_min":-3,"x_max":849,"o":"m 28 0 q 5 10 13 0 q 0 35 -3 21 l 194 951 q 210 976 197 967 q 236 986 222 986 l 407 986 q 430 976 422 986 q 435 951 438 965 l 338 490 l 561 699 q 588 717 578 711 q 614 722 597 722 l 822 722 q 842 716 835 722 q 849 700 849 710 q 832 668 849 683 l 531 382 l 728 50 q 733 32 733 43 q 724 10 733 19 q 697 0 714 0 l 504 0 q 463 22 476 0 l 296 303 l 240 35 q 225 10 238 19 q 199 0 213 0 l 28 0 z "},"ķ":{"ha":826,"x_min":-1,"x_max":849,"o":"m 28 0 q 5 10 13 0 q 0 35 -3 21 l 194 951 q 210 976 197 967 q 236 986 222 986 l 407 986 q 430 976 422 986 q 435 951 438 965 l 338 490 l 561 699 q 588 717 578 711 q 614 722 597 722 l 822 722 q 842 716 835 722 q 849 700 849 710 q 832 668 849 683 l 531 382 l 728 50 q 733 32 733 43 q 724 10 733 19 q 697 0 714 0 l 504 0 q 463 22 476 0 l 296 303 l 240 35 q 225 10 238 19 q 199 0 213 0 l 28 0 m 40 -329 q 23 -320 29 -329 q 21 -299 17 -311 l 86 -118 q 109 -84 93 -99 q 149 -69 125 -69 l 299 -69 q 316 -78 310 -69 q 319 -97 322 -86 q 313 -112 317 -106 l 207 -289 q 181 -318 194 -307 q 146 -329 167 -329 l 40 -329 z "},"ĸ":{"ha":821,"x_min":17,"x_max":863,"o":"m 46 0 q 24 10 32 0 q 19 35 17 19 l 157 688 q 172 712 160 701 q 200 722 185 722 l 371 722 q 392 713 385 722 q 397 688 400 703 l 347 447 l 597 699 q 624 717 614 711 q 650 722 633 722 l 835 722 q 856 713 849 722 q 860 690 863 704 q 843 668 854 675 l 542 367 l 746 53 q 750 32 754 42 q 737 9 749 18 q 713 0 725 0 l 510 0 q 485 6 493 0 q 472 17 476 11 q 467 24 468 22 l 310 271 l 260 35 q 244 10 257 21 q 217 0 232 0 l 46 0 z "},"l":{"ha":404,"x_min":-3,"x_max":442,"o":"m 28 0 q 5 10 13 0 q 0 35 -3 21 l 194 951 q 210 976 197 967 q 236 986 222 986 l 410 986 q 433 976 425 986 q 439 951 442 967 l 243 35 q 228 10 240 19 q 201 0 217 0 l 28 0 z "},"ĺ":{"ha":404,"x_min":-1,"x_max":685,"o":"m 28 0 q 5 10 13 0 q 0 35 -3 21 l 194 951 q 210 976 197 967 q 236 986 222 986 l 410 986 q 433 976 425 986 q 439 951 442 967 l 243 35 q 228 10 240 19 q 201 0 217 0 l 28 0 m 265 1042 q 247 1058 247 1042 q 258 1082 247 1071 l 415 1233 q 444 1255 433 1250 q 472 1260 454 1260 l 664 1260 q 681 1253 675 1260 q 685 1233 686 1246 q 674 1215 682 1222 l 454 1063 q 426 1047 439 1051 q 397 1042 414 1042 l 265 1042 z "},"ľ":{"ha":404,"x_min":-96,"x_max":440,"o":"m 28 0 q 5 10 13 0 q 0 35 -3 21 l 194 951 q 210 976 197 967 q 236 986 222 986 l 410 986 q 433 976 425 986 q 439 951 442 967 l 243 35 q 228 10 240 19 q 201 0 217 0 l 28 0 m -75 -329 q -92 -320 -86 -329 q -94 -299 -99 -311 l -29 -118 q -6 -84 -22 -99 q 33 -69 10 -69 l 183 -69 q 201 -78 194 -69 q 204 -97 207 -86 q 197 -112 201 -106 l 92 -289 q 65 -318 79 -307 q 31 -329 51 -329 l -75 -329 z "},"ļ":{"ha":404,"x_min":-96,"x_max":440,"o":"m 28 0 q 5 10 13 0 q 0 35 -3 21 l 194 951 q 210 976 197 967 q 236 986 222 986 l 410 986 q 433 976 425 986 q 439 951 442 967 l 243 35 q 228 10 240 19 q 201 0 217 0 l 28 0 m -75 -329 q -92 -320 -86 -329 q -94 -299 -99 -311 l -29 -118 q -6 -84 -22 -99 q 33 -69 10 -69 l 183 -69 q 201 -78 194 -69 q 204 -97 207 -86 q 197 -112 201 -106 l 92 -289 q 65 -318 79 -307 q 31 -329 51 -329 l -75 -329 z "},"ŀ":{"ha":593,"x_min":-3,"x_max":638,"o":"m 28 0 q 5 10 13 0 q 0 35 -3 21 l 194 951 q 210 976 197 967 q 236 986 222 986 l 410 986 q 433 976 425 986 q 439 951 442 967 l 243 35 q 228 10 240 19 q 201 0 217 0 l 28 0 m 421 397 q 400 406 407 397 q 396 428 393 414 l 428 572 q 441 595 431 586 q 465 604 451 604 l 608 604 q 630 595 622 604 q 635 572 638 586 l 603 428 q 590 406 600 414 q 565 397 579 397 l 421 397 z "},"ł":{"ha":485,"x_min":42,"x_max":521,"o":"m 89 0 q 66 10 74 0 q 61 35 58 19 l 131 360 l 83 343 q 65 339 71 339 q 48 347 54 339 q 43 367 42 354 l 67 475 q 78 501 69 492 q 106 517 88 510 l 168 539 l 256 951 q 271 976 258 967 q 299 986 283 986 l 472 986 q 495 976 488 986 q 499 951 503 965 l 432 633 l 479 650 q 497 654 490 654 q 515 647 508 654 q 518 626 521 639 l 496 518 q 483 492 492 501 q 456 476 474 483 l 394 453 l 306 35 q 290 10 303 21 q 263 0 278 0 l 89 0 z "},"m":{"ha":1275,"x_min":-3,"x_max":1218,"o":"m 28 0 q 5 10 13 0 q 0 35 -3 21 l 138 688 q 153 712 140 701 q 181 722 165 722 l 342 722 q 365 712 357 722 q 369 688 372 701 l 360 640 q 451 710 404 685 q 569 736 499 736 q 700 705 650 736 q 769 617 750 674 q 873 705 817 674 q 1001 736 929 736 q 1159 683 1100 736 q 1218 524 1218 629 q 1207 429 1218 485 l 1124 35 q 1108 10 1121 19 q 1082 0 1096 0 l 911 0 q 888 10 896 0 q 882 35 879 19 l 964 419 q 969 467 969 443 q 894 543 969 543 q 815 513 851 543 q 767 419 779 482 l 685 35 q 669 10 682 19 q 643 0 657 0 l 472 0 q 449 10 457 0 q 443 35 440 19 l 525 419 q 531 465 531 442 q 456 543 531 543 q 376 513 413 543 q 326 421 340 483 l 244 35 q 229 10 242 19 q 203 0 217 0 l 28 0 z "},"n":{"ha":897,"x_min":-3,"x_max":839,"o":"m 28 0 q 5 10 13 0 q 0 35 -3 21 l 138 688 q 153 712 140 701 q 181 722 165 722 l 351 722 q 373 713 365 722 q 378 688 381 703 l 367 635 q 607 736 471 736 q 778 680 717 736 q 839 517 839 624 q 828 422 839 478 l 744 35 q 730 10 742 19 q 703 0 718 0 l 518 0 q 495 10 503 0 q 490 35 488 21 l 569 414 q 576 465 576 446 q 555 524 576 504 q 488 543 533 543 q 388 509 429 543 q 333 414 347 475 l 254 35 q 239 10 251 19 q 213 0 226 0 l 28 0 z "},"ń":{"ha":897,"x_min":-1,"x_max":864,"o":"m 28 0 q 5 10 13 0 q 0 35 -3 21 l 138 688 q 153 712 140 701 q 181 722 165 722 l 351 722 q 373 713 365 722 q 378 688 381 703 l 367 635 q 607 736 471 736 q 778 680 717 736 q 839 517 839 624 q 828 422 839 478 l 744 35 q 730 10 742 19 q 703 0 718 0 l 518 0 q 495 10 503 0 q 490 35 488 21 l 569 414 q 576 465 576 446 q 555 524 576 504 q 488 543 533 543 q 388 509 429 543 q 333 414 347 475 l 254 35 q 239 10 251 19 q 213 0 226 0 l 28 0 m 444 826 q 426 843 426 826 q 438 867 426 856 l 594 1018 q 623 1040 613 1035 q 651 1044 633 1044 l 843 1044 q 860 1038 854 1044 q 864 1018 865 1031 q 853 1000 861 1007 l 633 847 q 606 831 618 836 q 576 826 593 826 l 444 826 z "},"ŉ":{"ha":897,"x_min":-1,"x_max":839,"o":"m 28 0 q 5 10 13 0 q 0 35 -3 21 l 138 688 q 153 712 140 701 q 181 722 165 722 l 351 722 q 373 713 365 722 q 378 688 381 703 l 367 635 q 607 736 471 736 q 778 680 717 736 q 839 517 839 624 q 828 422 839 478 l 744 35 q 730 10 742 19 q 703 0 718 0 l 518 0 q 495 10 503 0 q 490 35 488 21 l 569 414 q 576 465 576 446 q 555 524 576 504 q 488 543 533 543 q 388 509 429 543 q 333 414 347 475 l 254 35 q 239 10 251 19 q 213 0 226 0 l 28 0 m 217 819 q 199 828 206 819 q 197 850 193 838 l 263 1031 q 285 1065 269 1050 q 325 1079 301 1079 l 475 1079 q 492 1071 486 1079 q 496 1051 499 1063 q 489 1036 493 1043 l 383 860 q 357 831 371 842 q 322 819 343 819 l 217 819 z "},"ň":{"ha":897,"x_min":-1,"x_max":839,"o":"m 28 0 q 5 10 13 0 q 0 35 -3 21 l 138 688 q 153 712 140 701 q 181 722 165 722 l 351 722 q 373 713 365 722 q 378 688 381 703 l 367 635 q 607 736 471 736 q 778 680 717 736 q 839 517 839 624 q 828 422 839 478 l 744 35 q 730 10 742 19 q 703 0 718 0 l 518 0 q 495 10 503 0 q 490 35 488 21 l 569 414 q 576 465 576 446 q 555 524 576 504 q 488 543 533 543 q 388 509 429 543 q 333 414 347 475 l 254 35 q 239 10 251 19 q 213 0 226 0 l 28 0 m 471 826 q 447 831 457 826 q 426 850 438 836 l 314 1006 q 310 1022 307 1013 q 317 1038 311 1032 q 335 1044 324 1044 l 397 1044 q 442 1035 425 1044 l 549 968 l 683 1035 q 731 1044 704 1044 l 815 1044 q 829 1039 825 1044 q 832 1025 833 1033 q 821 1006 831 1015 l 640 850 q 613 831 624 836 q 586 826 601 826 l 471 826 z "},"ņ":{"ha":897,"x_min":-1,"x_max":839,"o":"m 28 0 q 5 10 13 0 q 0 35 -3 21 l 138 688 q 153 712 140 701 q 181 722 165 722 l 351 722 q 373 713 365 722 q 378 688 381 703 l 367 635 q 607 736 471 736 q 778 680 717 736 q 839 517 839 624 q 828 422 839 478 l 744 35 q 730 10 742 19 q 703 0 718 0 l 518 0 q 495 10 503 0 q 490 35 488 21 l 569 414 q 576 465 576 446 q 555 524 576 504 q 488 543 533 543 q 388 509 429 543 q 333 414 347 475 l 254 35 q 239 10 251 19 q 213 0 226 0 l 28 0 m 83 -329 q 66 -320 72 -329 q 64 -299 60 -311 l 129 -118 q 152 -84 136 -99 q 192 -69 168 -69 l 342 -69 q 359 -78 353 -69 q 363 -97 365 -86 q 356 -112 360 -106 l 250 -289 q 224 -318 238 -307 q 189 -329 210 -329 l 83 -329 z "},"ŋ":{"ha":897,"x_min":-3,"x_max":839,"o":"m 275 -312 q 251 -302 260 -312 q 246 -278 243 -292 l 278 -133 q 293 -108 281 -118 q 321 -97 306 -97 l 358 -97 q 444 -67 414 -97 q 489 28 475 -37 l 569 414 q 576 465 576 446 q 555 524 576 504 q 488 543 533 543 q 388 509 429 543 q 333 414 347 475 l 254 35 q 239 10 251 19 q 213 0 226 0 l 28 0 q 5 10 13 0 q 0 35 -3 21 l 138 688 q 153 712 140 701 q 181 722 165 722 l 351 722 q 373 713 365 722 q 378 688 381 703 l 367 635 q 607 736 471 736 q 778 680 717 736 q 839 517 839 624 q 828 422 839 478 l 742 18 q 313 -312 671 -312 l 275 -312 z "},"ñ":{"ha":897,"x_min":-1,"x_max":839,"o":"m 28 0 q 5 10 13 0 q 0 35 -3 21 l 138 688 q 153 712 140 701 q 181 722 165 722 l 351 722 q 373 713 365 722 q 378 688 381 703 l 367 635 q 607 736 471 736 q 778 680 717 736 q 839 517 839 624 q 828 422 839 478 l 744 35 q 730 10 742 19 q 703 0 718 0 l 518 0 q 495 10 503 0 q 490 35 488 21 l 569 414 q 576 465 576 446 q 555 524 576 504 q 488 543 533 543 q 388 509 429 543 q 333 414 347 475 l 254 35 q 239 10 251 19 q 213 0 226 0 l 28 0 m 632 819 q 585 826 604 819 q 539 847 565 833 q 510 863 522 858 q 482 868 497 868 q 459 863 468 868 q 439 846 450 857 q 422 831 429 836 q 406 826 415 826 l 318 826 q 302 833 308 826 q 299 850 296 840 q 328 928 306 886 q 390 999 350 969 q 485 1029 429 1029 q 532 1022 513 1029 q 578 1001 551 1015 q 609 985 597 990 q 636 981 621 981 q 658 986 650 981 q 679 1004 667 992 q 711 1024 696 1024 l 797 1024 q 814 1016 808 1024 q 818 999 819 1008 q 758 878 806 936 q 632 819 711 819 z "},"o":{"ha":851,"x_min":26,"x_max":804,"o":"m 346 -14 q 110 53 194 -14 q 26 240 26 121 q 31 299 26 269 q 57 424 38 361 q 203 656 97 575 q 482 736 308 736 q 717 667 631 736 q 804 476 804 599 q 800 424 804 451 q 772 299 785 347 q 628 66 731 146 q 346 -14 525 -14 m 368 161 q 463 197 426 161 q 519 306 500 232 q 543 417 538 375 q 547 469 547 446 q 526 538 547 515 q 460 561 506 561 q 365 525 401 561 q 311 417 329 489 q 297 361 304 392 q 286 306 290 331 q 281 251 281 264 q 301 183 281 206 q 368 161 322 161 z "},"ó":{"ha":851,"x_min":26,"x_max":838,"o":"m 346 -14 q 110 53 194 -14 q 26 240 26 121 q 31 299 26 269 q 57 424 38 361 q 203 656 97 575 q 482 736 308 736 q 717 667 631 736 q 804 476 804 599 q 800 424 804 451 q 772 299 785 347 q 628 66 731 146 q 346 -14 525 -14 m 368 161 q 463 197 426 161 q 519 306 500 232 q 543 417 538 375 q 547 469 547 446 q 526 538 547 515 q 460 561 506 561 q 365 525 401 561 q 311 417 329 489 q 297 361 304 392 q 286 306 290 331 q 281 251 281 264 q 301 183 281 206 q 368 161 322 161 m 418 826 q 400 843 400 826 q 411 867 400 856 l 568 1018 q 597 1040 586 1035 q 625 1044 607 1044 l 817 1044 q 833 1038 828 1044 q 838 1018 839 1031 q 826 1000 835 1007 l 607 847 q 579 831 592 836 q 550 826 567 826 l 418 826 z "},"ŏ":{"ha":851,"x_min":26,"x_max":804,"o":"m 346 -14 q 110 53 194 -14 q 26 240 26 121 q 31 299 26 269 q 57 424 38 361 q 203 656 97 575 q 482 736 308 736 q 717 667 631 736 q 804 476 804 599 q 800 424 804 451 q 772 299 785 347 q 628 66 731 146 q 346 -14 525 -14 m 368 161 q 463 197 426 161 q 519 306 500 232 q 543 417 538 375 q 547 469 547 446 q 526 538 547 515 q 460 561 506 561 q 365 525 401 561 q 311 417 329 489 q 297 361 304 392 q 286 306 290 331 q 281 251 281 264 q 301 183 281 206 q 368 161 322 161 m 515 819 q 381 864 432 819 q 331 978 331 908 q 335 1018 331 997 q 346 1037 338 1029 q 367 1044 354 1044 l 461 1044 q 479 1037 474 1044 q 482 1018 485 1029 q 478 986 478 1001 q 526 936 478 936 q 580 959 560 936 q 608 1018 600 982 q 619 1037 611 1029 q 640 1044 628 1044 l 735 1044 q 753 1037 747 1044 q 756 1018 758 1029 q 515 819 713 819 z "},"ô":{"ha":851,"x_min":26,"x_max":804,"o":"m 346 -14 q 110 53 194 -14 q 26 240 26 121 q 31 299 26 269 q 57 424 38 361 q 203 656 97 575 q 482 736 308 736 q 717 667 631 736 q 804 476 804 599 q 800 424 804 451 q 772 299 785 347 q 628 66 731 146 q 346 -14 525 -14 m 368 161 q 463 197 426 161 q 519 306 500 232 q 543 417 538 375 q 547 469 547 446 q 526 538 547 515 q 460 561 506 561 q 365 525 401 561 q 311 417 329 489 q 297 361 304 392 q 286 306 290 331 q 281 251 281 264 q 301 183 281 206 q 368 161 322 161 m 261 826 q 244 846 242 826 q 256 865 247 857 l 436 1019 q 464 1039 453 1033 q 490 1044 475 1044 l 606 1044 q 629 1039 619 1044 q 650 1019 639 1033 l 763 865 q 767 846 769 857 q 758 832 764 838 q 742 826 751 826 l 679 826 q 635 836 651 826 l 528 903 l 393 836 q 346 826 372 826 l 261 826 z "},"ö":{"ha":851,"x_min":26,"x_max":804,"o":"m 346 -14 q 110 53 194 -14 q 26 240 26 121 q 31 299 26 269 q 57 424 38 361 q 203 656 97 575 q 482 736 308 736 q 717 667 631 736 q 804 476 804 599 q 800 424 804 451 q 772 299 785 347 q 628 66 731 146 q 346 -14 525 -14 m 368 161 q 463 197 426 161 q 519 306 500 232 q 543 417 538 375 q 547 469 547 446 q 526 538 547 515 q 460 561 506 561 q 365 525 401 561 q 311 417 329 489 q 297 361 304 392 q 286 306 290 331 q 281 251 281 264 q 301 183 281 206 q 368 161 322 161 m 304 842 q 283 850 290 842 q 279 872 276 858 l 307 1006 q 321 1028 310 1019 q 346 1038 332 1038 l 478 1038 q 499 1028 492 1038 q 503 1006 506 1019 l 475 872 q 461 850 472 858 q 436 842 450 842 l 304 842 m 596 842 q 575 850 582 842 q 571 872 568 858 l 600 1006 q 613 1028 601 1019 q 638 1038 624 1038 l 769 1038 q 791 1028 783 1038 q 796 1006 799 1019 l 767 872 q 753 850 764 858 q 729 842 743 842 l 596 842 z "},"ò":{"ha":851,"x_min":26,"x_max":804,"o":"m 346 -14 q 110 53 194 -14 q 26 240 26 121 q 31 299 26 269 q 57 424 38 361 q 203 656 97 575 q 482 736 308 736 q 717 667 631 736 q 804 476 804 599 q 800 424 804 451 q 772 299 785 347 q 628 66 731 146 q 346 -14 525 -14 m 368 161 q 463 197 426 161 q 519 306 500 232 q 543 417 538 375 q 547 469 547 446 q 526 538 547 515 q 460 561 506 561 q 365 525 401 561 q 311 417 329 489 q 297 361 304 392 q 286 306 290 331 q 281 251 281 264 q 301 183 281 206 q 368 161 322 161 m 453 826 q 426 831 436 826 q 404 847 415 836 l 251 999 q 247 1011 247 1006 q 256 1035 247 1025 q 278 1044 265 1044 l 479 1044 q 506 1040 497 1044 q 525 1018 515 1035 l 617 868 q 621 854 621 863 q 614 834 621 842 q 594 826 607 826 l 453 826 z "},"ő":{"ha":851,"x_min":26,"x_max":919,"o":"m 346 -14 q 110 53 194 -14 q 26 240 26 121 q 31 299 26 269 q 57 424 38 361 q 203 656 97 575 q 482 736 308 736 q 717 667 631 736 q 804 476 804 599 q 800 424 804 451 q 772 299 785 347 q 628 66 731 146 q 346 -14 525 -14 m 368 161 q 463 197 426 161 q 519 306 500 232 q 543 417 538 375 q 547 469 547 446 q 526 538 547 515 q 460 561 506 561 q 365 525 401 561 q 311 417 329 489 q 297 361 304 392 q 286 306 290 331 q 281 251 281 264 q 301 183 281 206 q 368 161 322 161 m 293 826 q 278 832 283 826 q 275 846 272 838 q 285 867 275 854 l 385 1018 q 408 1038 394 1032 q 442 1044 421 1044 l 594 1044 q 617 1025 617 1044 q 606 1000 617 1011 l 433 846 q 383 826 411 826 l 293 826 m 596 826 q 578 846 575 826 q 589 867 579 854 l 689 1018 q 746 1044 706 1044 l 897 1044 q 916 1038 910 1044 q 919 1019 922 1031 q 908 1000 919 1011 l 736 846 q 688 826 714 826 l 596 826 z "},"ō":{"ha":851,"x_min":26,"x_max":804,"o":"m 346 -14 q 110 53 194 -14 q 26 240 26 121 q 31 299 26 269 q 57 424 38 361 q 203 656 97 575 q 482 736 308 736 q 717 667 631 736 q 804 476 804 599 q 800 424 804 451 q 772 299 785 347 q 628 66 731 146 q 346 -14 525 -14 m 368 161 q 463 197 426 161 q 519 306 500 232 q 543 417 538 375 q 547 469 547 446 q 526 538 547 515 q 460 561 506 561 q 365 525 401 561 q 311 417 329 489 q 297 361 304 392 q 286 306 290 331 q 281 251 281 264 q 301 183 281 206 q 368 161 322 161 m 310 839 q 289 848 296 839 q 285 871 282 857 l 307 974 q 320 996 310 988 q 344 1004 331 1004 l 740 1004 q 760 996 754 1004 q 764 974 767 988 l 743 871 q 729 848 740 857 q 704 839 718 839 l 310 839 z "},"ø":{"ha":893,"x_min":-19,"x_max":931,"o":"m 376 -14 q 172 32 246 -14 q 75 163 97 78 l 21 143 q 4 139 11 139 q -13 147 -7 139 q -18 167 -19 154 l -3 239 q 9 265 0 256 q 38 281 18 274 l 71 292 q 99 424 82 358 q 251 652 139 568 q 536 736 364 736 q 736 692 663 736 q 833 565 810 647 l 890 586 q 907 590 901 590 q 924 583 918 590 q 929 563 931 575 l 914 490 q 902 465 911 474 q 874 449 893 456 l 843 438 q 814 299 838 379 q 665 69 775 153 q 376 -14 556 -14 m 589 478 q 500 561 589 561 q 356 432 392 561 q 347 390 349 406 l 589 478 m 414 161 q 506 194 471 161 q 561 303 542 228 q 565 318 563 308 q 568 339 567 328 l 322 251 q 345 183 322 204 q 414 161 368 161 z "},"ǿ":{"ha":890,"x_min":-18,"x_max":929,"o":"m 439 826 q 421 843 421 826 q 432 867 421 856 l 589 1018 q 617 1040 607 1035 q 646 1044 628 1044 l 838 1044 q 854 1038 849 1044 q 858 1018 860 1031 q 847 1000 856 1007 l 628 847 q 600 831 613 836 q 571 826 588 826 l 439 826 m 376 -14 q 172 32 246 -14 q 75 163 97 78 l 21 143 q 4 139 11 139 q -13 147 -7 139 q -18 167 -19 154 l -3 239 q 9 265 0 256 q 38 281 18 274 l 71 292 q 99 424 82 358 q 251 652 139 568 q 536 736 364 736 q 736 692 663 736 q 833 565 810 647 l 890 586 q 907 590 901 590 q 924 583 918 590 q 929 563 931 575 l 914 490 q 902 465 911 474 q 874 449 893 456 l 843 438 q 814 299 838 379 q 665 69 775 153 q 376 -14 556 -14 m 589 478 q 500 561 589 561 q 356 432 392 561 q 347 390 349 406 l 589 478 m 414 161 q 506 194 471 161 q 561 303 542 228 q 565 318 563 308 q 568 339 567 328 l 322 251 q 345 183 322 204 q 414 161 368 161 z "},"õ":{"ha":851,"x_min":26,"x_max":804,"o":"m 346 -14 q 110 53 194 -14 q 26 240 26 121 q 31 299 26 269 q 57 424 38 361 q 203 656 97 575 q 482 736 308 736 q 717 667 631 736 q 804 476 804 599 q 800 424 804 451 q 772 299 785 347 q 628 66 731 146 q 346 -14 525 -14 m 368 161 q 463 197 426 161 q 519 306 500 232 q 543 417 538 375 q 547 469 547 446 q 526 538 547 515 q 460 561 506 561 q 365 525 401 561 q 311 417 329 489 q 297 361 304 392 q 286 306 290 331 q 281 251 281 264 q 301 183 281 206 q 368 161 322 161 m 608 819 q 561 826 581 819 q 515 847 542 833 q 486 863 499 858 q 458 868 474 868 q 435 863 444 868 q 415 846 426 857 q 399 831 406 836 q 382 826 392 826 l 294 826 q 278 833 285 826 q 275 850 272 840 q 304 928 282 886 q 366 999 326 969 q 461 1029 406 1029 q 508 1022 489 1029 q 554 1001 528 1015 q 585 985 574 990 q 613 981 597 981 q 635 986 626 981 q 656 1004 643 992 q 688 1024 672 1024 l 774 1024 q 790 1016 785 1024 q 794 999 796 1008 q 735 878 782 936 q 608 819 688 819 z "},"œ":{"ha":1322,"x_min":46,"x_max":1299,"o":"m 356 -14 q 124 50 201 -14 q 46 233 46 114 q 51 299 46 267 q 78 424 61 361 q 232 653 118 571 q 515 736 346 736 q 747 651 671 736 q 1000 736 856 736 q 1224 663 1149 736 q 1299 465 1299 590 q 1288 365 1299 421 l 1281 331 q 1264 305 1276 315 q 1236 294 1251 294 l 796 294 l 794 286 q 790 242 790 264 q 811 173 790 199 q 874 147 832 147 q 928 160 906 147 q 972 194 950 174 q 997 212 988 208 q 1022 215 1006 215 l 1204 215 q 1225 207 1218 215 q 1228 186 1232 199 q 1167 101 1218 149 q 1031 20 1115 54 q 842 -14 946 -14 q 713 7 768 -14 q 622 67 657 28 q 356 -14 513 -14 m 1047 436 l 1049 439 q 1054 486 1054 461 q 1031 555 1054 531 q 967 579 1008 579 q 877 542 914 579 q 826 439 840 504 l 826 436 l 1047 436 m 393 161 q 486 197 451 161 q 540 306 521 232 q 564 417 558 375 q 568 467 568 444 q 547 538 568 514 q 479 561 525 561 q 386 526 421 561 q 331 417 351 490 q 308 306 317 361 q 303 253 303 267 q 325 184 303 207 q 393 161 347 161 z "},"p":{"ha":881,"x_min":-58,"x_max":832,"o":"m -28 -264 q -51 -254 -43 -264 q -56 -229 -58 -244 l 139 688 q 154 713 142 703 q 181 722 167 722 l 346 722 q 369 713 361 722 q 374 688 376 703 l 364 638 q 462 710 410 685 q 586 736 514 736 q 767 673 703 736 q 832 493 832 610 q 825 410 832 446 q 804 311 818 365 q 674 72 765 158 q 450 -14 583 -14 q 331 10 381 -14 q 258 78 281 33 l 193 -229 q 178 -254 190 -244 q 151 -264 165 -264 l -28 -264 m 400 179 q 495 216 460 179 q 550 318 531 253 q 569 404 563 361 q 572 446 572 435 q 552 518 572 493 q 483 543 532 543 q 383 505 422 543 q 329 408 344 467 q 307 304 317 365 q 304 271 304 293 q 327 204 304 229 q 400 179 350 179 z "},"þ":{"ha":881,"x_min":-58,"x_max":832,"o":"m -28 -264 q -51 -254 -43 -264 q -56 -229 -58 -244 l 196 951 q 210 976 199 967 q 238 986 222 986 l 417 986 q 440 976 432 986 q 444 951 447 965 l 379 647 q 466 713 418 689 q 586 736 514 736 q 767 673 703 736 q 832 493 832 610 q 825 410 832 446 q 804 311 818 365 q 674 72 765 158 q 450 -14 583 -14 q 332 10 382 -14 q 258 78 282 35 l 193 -229 q 178 -254 190 -244 q 151 -264 165 -264 l -28 -264 m 400 179 q 495 216 460 179 q 550 318 531 253 q 569 404 563 361 q 572 446 572 435 q 552 518 572 493 q 483 543 532 543 q 383 505 422 543 q 329 408 344 467 q 307 304 317 365 q 304 271 304 293 q 327 204 304 229 q 400 179 350 179 z "},"q":{"ha":881,"x_min":26,"x_max":863,"o":"m 443 -264 q 420 -253 428 -264 q 415 -229 413 -243 l 481 78 q 388 9 438 32 q 274 -14 339 -14 q 92 52 157 -14 q 26 233 26 118 q 33 308 26 264 q 56 413 38 333 q 185 653 96 569 q 408 736 275 736 q 535 709 482 736 q 614 638 589 682 l 624 688 q 639 712 626 701 q 667 722 651 722 l 832 722 q 855 712 847 722 q 860 688 863 701 l 665 -229 q 650 -253 663 -243 q 622 -264 638 -264 l 443 -264 m 376 179 q 475 215 436 179 q 529 304 514 250 q 551 408 539 339 q 554 446 554 433 q 460 543 554 543 q 310 404 350 543 q 290 318 297 361 q 288 272 288 285 q 307 203 288 228 q 376 179 326 179 z "},"r":{"ha":643,"x_min":-3,"x_max":685,"o":"m 28 0 q 5 10 13 0 q 0 35 -3 21 l 138 686 q 153 712 140 701 q 181 722 165 722 l 350 722 q 373 712 365 722 q 378 686 381 701 l 367 633 q 453 699 403 676 q 575 722 503 722 l 656 722 q 677 713 669 722 q 682 688 685 703 l 650 536 q 636 512 649 522 q 608 501 624 501 l 468 501 q 376 471 413 501 q 329 385 340 440 l 254 35 q 239 10 251 19 q 211 0 226 0 l 28 0 z "},"ŕ":{"ha":643,"x_min":-1,"x_max":767,"o":"m 28 0 q 5 10 13 0 q 0 35 -3 21 l 138 686 q 153 712 140 701 q 181 722 165 722 l 350 722 q 373 712 365 722 q 378 686 381 701 l 367 633 q 453 699 403 676 q 575 722 503 722 l 656 722 q 677 713 669 722 q 682 688 685 703 l 650 536 q 636 512 649 522 q 608 501 624 501 l 468 501 q 376 471 413 501 q 329 385 340 440 l 254 35 q 239 10 251 19 q 211 0 226 0 l 28 0 m 347 826 q 329 843 329 826 q 340 867 329 856 l 497 1018 q 526 1040 515 1035 q 554 1044 536 1044 l 746 1044 q 763 1038 757 1044 q 767 1018 768 1031 q 756 1000 764 1007 l 536 847 q 508 831 521 836 q 479 826 496 826 l 347 826 z "},"ř":{"ha":643,"x_min":-1,"x_max":728,"o":"m 28 0 q 5 10 13 0 q 0 35 -3 21 l 138 686 q 153 712 140 701 q 181 722 165 722 l 350 722 q 373 712 365 722 q 378 686 381 701 l 367 633 q 453 699 403 676 q 575 722 503 722 l 656 722 q 677 713 669 722 q 682 688 685 703 l 650 536 q 636 512 649 522 q 608 501 624 501 l 468 501 q 376 471 413 501 q 329 385 340 440 l 254 35 q 239 10 251 19 q 211 0 226 0 l 28 0 m 367 826 q 343 831 353 826 q 322 850 333 836 l 210 1006 q 206 1022 203 1013 q 213 1038 207 1032 q 231 1044 219 1044 l 293 1044 q 338 1035 321 1044 l 444 968 l 579 1035 q 626 1044 600 1044 l 711 1044 q 725 1039 721 1044 q 728 1025 729 1033 q 717 1006 726 1015 l 536 850 q 508 831 519 836 q 482 826 497 826 l 367 826 z "},"ŗ":{"ha":643,"x_min":-196,"x_max":683,"o":"m 28 0 q 5 10 13 0 q 0 35 -3 21 l 138 686 q 153 712 140 701 q 181 722 165 722 l 350 722 q 373 712 365 722 q 378 686 381 701 l 367 633 q 453 699 403 676 q 575 722 503 722 l 656 722 q 677 713 669 722 q 682 688 685 703 l 650 536 q 636 512 649 522 q 608 501 624 501 l 468 501 q 376 471 413 501 q 329 385 340 440 l 254 35 q 239 10 251 19 q 211 0 226 0 l 28 0 m -175 -329 q -192 -320 -186 -329 q -194 -299 -199 -311 l -129 -118 q -106 -84 -122 -99 q -67 -69 -90 -69 l 83 -69 q 101 -78 94 -69 q 104 -97 107 -86 q 97 -112 101 -106 l -8 -289 q -35 -318 -21 -307 q -69 -329 -49 -329 l -175 -329 z "},"s":{"ha":774,"x_min":10,"x_max":754,"o":"m 311 -14 q 138 14 206 -14 q 40 82 69 42 q 10 160 10 122 l 11 172 q 25 197 13 188 q 50 207 38 207 l 218 207 q 231 201 228 207 q 257 182 240 196 q 299 153 279 163 q 350 143 318 143 q 415 158 388 143 q 447 199 442 172 q 449 214 449 204 q 416 255 449 239 q 293 289 383 271 q 94 464 94 331 q 100 511 94 489 q 160 620 113 568 q 285 704 207 672 q 464 736 364 736 q 624 709 558 736 q 722 642 689 682 q 754 564 754 601 l 753 553 q 740 528 751 539 q 715 518 728 518 l 563 518 q 544 524 550 518 q 514 544 529 531 q 476 570 494 561 q 431 579 458 579 q 368 559 392 579 q 344 510 344 539 q 376 472 344 488 q 499 439 408 456 q 664 370 613 418 q 715 256 715 322 q 711 214 715 235 q 583 48 689 110 q 311 -14 478 -14 z "},"ś":{"ha":775,"x_min":10,"x_max":793,"o":"m 311 -14 q 138 14 206 -14 q 40 82 69 42 q 10 160 10 122 l 11 172 q 25 197 13 188 q 50 207 38 207 l 218 207 q 231 201 228 207 q 257 182 240 196 q 299 153 279 163 q 350 143 318 143 q 415 158 388 143 q 447 199 442 172 q 449 214 449 204 q 416 255 449 239 q 293 289 383 271 q 94 464 94 331 q 100 511 94 489 q 160 620 113 568 q 285 704 207 672 q 464 736 364 736 q 624 709 558 736 q 722 642 689 682 q 754 564 754 601 l 753 553 q 740 528 751 539 q 715 518 728 518 l 563 518 q 544 524 550 518 q 514 544 529 531 q 476 570 494 561 q 431 579 458 579 q 368 559 392 579 q 344 510 344 539 q 376 472 344 488 q 499 439 408 456 q 664 370 613 418 q 715 256 715 322 q 711 214 715 235 q 583 48 689 110 q 311 -14 478 -14 m 374 826 q 356 843 356 826 q 367 867 356 856 l 524 1018 q 552 1040 542 1035 q 581 1044 563 1044 l 772 1044 q 789 1038 783 1044 q 793 1018 794 1031 q 782 1000 790 1007 l 563 847 q 535 831 547 836 q 506 826 522 826 l 374 826 z "},"š":{"ha":775,"x_min":10,"x_max":768,"o":"m 311 -14 q 138 14 206 -14 q 40 82 69 42 q 10 160 10 122 l 11 172 q 25 197 13 188 q 50 207 38 207 l 218 207 q 231 201 228 207 q 257 182 240 196 q 299 153 279 163 q 350 143 318 143 q 415 158 388 143 q 447 199 442 172 q 449 214 449 204 q 416 255 449 239 q 293 289 383 271 q 94 464 94 331 q 100 511 94 489 q 160 620 113 568 q 285 704 207 672 q 464 736 364 736 q 624 709 558 736 q 722 642 689 682 q 754 564 754 601 l 753 553 q 740 528 751 539 q 715 518 728 518 l 563 518 q 544 524 550 518 q 514 544 529 531 q 476 570 494 561 q 431 579 458 579 q 368 559 392 579 q 344 510 344 539 q 376 472 344 488 q 499 439 408 456 q 664 370 613 418 q 715 256 715 322 q 711 214 715 235 q 583 48 689 110 q 311 -14 478 -14 m 407 826 q 383 831 393 826 q 363 850 374 836 l 250 1006 q 246 1022 243 1013 q 253 1038 247 1032 q 271 1044 260 1044 l 333 1044 q 378 1035 361 1044 l 485 968 l 619 1035 q 667 1044 640 1044 l 751 1044 q 765 1039 761 1044 q 768 1025 769 1033 q 757 1006 767 1015 l 576 850 q 549 831 560 836 q 522 826 538 826 l 407 826 z "},"ş":{"ha":774,"x_min":10,"x_max":754,"o":"m 247 -306 q 174 -289 204 -306 q 143 -253 143 -272 q 153 -235 143 -243 l 183 -212 q 200 -206 192 -206 q 223 -215 206 -206 q 264 -224 240 -224 q 300 -212 285 -224 q 319 -182 315 -200 q 313 -154 322 -165 q 282 -143 303 -143 q 251 -148 271 -143 q 224 -153 232 -153 q 204 -144 211 -153 l 183 -117 q 178 -104 178 -111 q 193 -72 178 -94 l 235 -8 q 106 29 157 1 q 33 92 56 57 q 10 158 10 126 q 11 172 10 168 q 25 197 13 188 q 50 207 38 207 l 211 207 q 228 201 222 207 q 258 181 243 194 q 300 153 281 163 q 350 143 319 143 q 415 158 388 143 q 447 199 442 172 q 449 214 449 204 q 416 255 449 239 q 293 289 383 271 q 94 464 94 331 q 100 511 94 489 q 160 620 113 568 q 285 704 207 672 q 464 736 364 736 q 624 709 558 736 q 722 642 689 682 q 754 564 754 601 l 753 553 q 740 528 751 539 q 715 518 728 518 l 560 518 q 544 524 550 518 q 514 544 529 531 q 476 570 494 561 q 431 579 458 579 q 368 559 392 579 q 344 510 344 539 q 376 472 344 488 q 499 439 408 456 q 664 370 613 418 q 715 256 715 322 q 711 214 715 235 q 585 49 689 111 q 317 -14 482 -12 l 278 -68 q 301 -62 288 -64 q 325 -60 314 -60 q 390 -84 367 -60 q 413 -150 413 -108 q 410 -182 413 -171 q 353 -271 397 -236 q 247 -306 310 -306 z "},"ŝ":{"ha":775,"x_min":10,"x_max":754,"o":"m 311 -14 q 138 14 206 -14 q 40 82 69 42 q 10 160 10 122 l 11 172 q 25 197 13 188 q 50 207 38 207 l 218 207 q 231 201 228 207 q 257 182 240 196 q 299 153 279 163 q 350 143 318 143 q 415 158 388 143 q 447 199 442 172 q 449 214 449 204 q 416 255 449 239 q 293 289 383 271 q 94 464 94 331 q 100 511 94 489 q 160 620 113 568 q 285 704 207 672 q 464 736 364 736 q 624 709 558 736 q 722 642 689 682 q 754 564 754 601 l 753 553 q 740 528 751 539 q 715 518 728 518 l 563 518 q 544 524 550 518 q 514 544 529 531 q 476 570 494 561 q 431 579 458 579 q 368 559 392 579 q 344 510 344 539 q 376 472 344 488 q 499 439 408 456 q 664 370 613 418 q 715 256 715 322 q 711 214 715 235 q 583 48 689 110 q 311 -14 478 -14 m 208 826 q 192 846 189 826 q 203 865 194 857 l 383 1019 q 411 1039 400 1033 q 438 1044 422 1044 l 553 1044 q 576 1039 567 1044 q 597 1019 586 1033 l 710 865 q 714 846 717 857 q 705 832 711 838 q 689 826 699 826 l 626 826 q 582 836 599 826 l 475 903 l 340 836 q 293 826 319 826 l 208 826 z "},"ș":{"ha":775,"x_min":7,"x_max":754,"o":"m 311 -14 q 138 14 206 -14 q 40 82 69 42 q 10 160 10 122 l 11 172 q 25 197 13 188 q 50 207 38 207 l 218 207 q 231 201 228 207 q 257 182 240 196 q 299 153 279 163 q 350 143 318 143 q 415 158 388 143 q 447 199 442 172 q 449 214 449 204 q 416 255 449 239 q 293 289 383 271 q 94 464 94 331 q 100 511 94 489 q 160 620 113 568 q 285 704 207 672 q 464 736 364 736 q 624 709 558 736 q 722 642 689 682 q 754 564 754 601 l 753 553 q 740 528 751 539 q 715 518 728 518 l 563 518 q 544 524 550 518 q 514 544 529 531 q 476 570 494 561 q 431 579 458 579 q 368 559 392 579 q 344 510 344 539 q 376 472 344 488 q 499 439 408 456 q 664 370 613 418 q 715 256 715 322 q 711 214 715 235 q 583 48 689 110 q 311 -14 478 -14 m 28 -329 q 10 -320 17 -329 q 8 -299 4 -311 l 74 -118 q 97 -84 81 -99 q 136 -69 113 -69 l 286 -69 q 303 -78 297 -69 q 307 -97 310 -86 q 300 -112 304 -106 l 194 -289 q 168 -318 182 -307 q 133 -329 154 -329 l 28 -329 z "},"ß":{"ha":894,"x_min":17,"x_max":893,"o":"m 47 0 q 24 10 32 0 q 19 35 17 19 l 150 651 q 292 892 181 799 q 588 986 404 985 q 819 923 744 985 q 893 767 893 861 q 888 710 893 736 q 751 522 861 588 q 849 365 849 476 q 840 293 849 333 q 772 153 825 221 q 628 43 718 86 q 418 0 538 0 l 351 0 q 324 10 332 0 q 318 35 315 19 l 342 147 q 358 173 344 163 q 390 182 372 183 l 422 182 q 531 216 486 182 q 586 304 575 250 q 589 332 589 314 q 558 400 589 375 q 469 425 528 425 l 438 425 q 413 435 419 425 q 408 461 406 444 l 429 558 q 474 593 436 593 l 501 593 q 601 622 563 594 q 650 697 640 649 q 653 721 653 714 q 625 780 653 757 q 549 803 597 803 q 450 767 490 803 q 394 656 410 731 l 263 35 q 247 10 260 21 q 219 0 235 0 l 47 0 z "},"ſ":{"ha":482,"x_min":51,"x_max":743,"o":"m 321 35 q 306 10 318 19 q 279 0 294 0 l 110 0 q 86 10 94 0 q 81 35 78 21 l 188 533 l 82 533 q 59 544 67 533 q 54 568 51 554 l 79 688 q 94 712 82 701 q 122 722 107 722 l 228 722 l 236 764 q 353 966 267 904 q 582 1028 440 1028 l 714 1028 q 735 1018 728 1028 q 740 993 743 1008 l 715 874 q 700 849 713 858 q 674 839 688 839 l 578 839 q 508 818 533 839 q 475 757 483 797 l 321 35 z "},"t":{"ha":653,"x_min":44,"x_max":669,"o":"m 381 0 q 121 194 121 0 q 131 276 121 233 l 185 533 l 76 533 q 53 544 61 533 q 49 568 44 554 l 72 688 q 88 712 75 701 q 115 722 100 722 l 225 722 l 274 951 q 289 976 276 967 q 315 986 301 986 l 486 986 q 509 976 501 986 q 514 951 517 965 l 465 722 l 639 722 q 662 713 654 722 q 667 688 669 703 l 642 568 q 626 543 639 553 q 600 533 614 533 l 425 533 l 375 297 q 369 250 369 274 q 383 211 369 224 q 428 199 396 199 l 540 199 q 563 188 556 199 q 568 163 571 178 l 540 35 q 525 10 538 19 q 499 0 513 0 l 381 0 z "},"ŧ":{"ha":658,"x_min":18,"x_max":674,"o":"m 376 0 q 188 46 251 0 q 125 190 125 92 q 135 276 125 232 l 158 386 l 49 386 q 26 397 33 386 q 22 421 18 407 l 32 475 q 49 500 36 490 q 75 510 61 510 l 185 510 l 204 599 l 94 599 q 72 608 81 599 q 65 633 63 618 l 78 688 q 93 713 81 703 q 121 722 106 722 l 229 722 l 279 951 q 294 976 282 967 q 321 986 306 986 l 490 986 q 514 976 506 986 q 519 951 522 965 l 469 722 l 644 722 q 666 713 658 722 q 671 688 674 703 l 660 633 q 644 608 657 618 q 618 599 632 599 l 444 599 l 425 510 l 599 510 q 622 499 614 510 q 626 475 631 489 l 615 421 q 600 396 613 406 q 572 386 588 386 l 399 386 l 379 297 q 374 251 374 274 q 388 212 374 225 q 433 199 401 199 l 544 199 q 567 188 560 199 q 572 163 575 178 l 544 35 q 530 10 542 19 q 503 0 518 0 l 376 0 z "},"ť":{"ha":742,"x_min":47,"x_max":932,"o":"m 381 0 q 121 194 121 0 q 131 276 121 233 l 185 533 l 76 533 q 53 544 61 533 q 49 568 44 554 l 72 688 q 88 712 75 701 q 115 722 100 722 l 225 722 l 274 951 q 289 976 276 967 q 315 986 301 986 l 486 986 q 509 976 501 986 q 514 951 517 965 l 465 722 l 639 722 q 662 713 654 722 q 667 688 669 703 l 642 568 q 626 543 639 553 q 600 533 614 533 l 425 533 l 375 297 q 369 250 369 274 q 383 211 369 224 q 428 199 396 199 l 540 199 q 563 188 556 199 q 568 163 571 178 l 540 35 q 525 10 538 19 q 499 0 513 0 l 381 0 m 653 764 q 635 773 642 764 q 633 794 629 782 l 699 975 q 722 1009 706 994 q 761 1024 738 1024 l 911 1024 q 928 1015 922 1024 q 932 996 935 1007 q 925 981 929 988 l 819 804 q 793 775 807 786 q 758 764 779 764 l 653 764 z "},"ț":{"ha":653,"x_min":-18,"x_max":668,"o":"m 381 0 q 121 194 121 0 q 131 276 121 233 l 185 533 l 76 533 q 53 544 61 533 q 49 568 44 554 l 72 688 q 88 712 75 701 q 115 722 100 722 l 225 722 l 274 951 q 289 976 276 967 q 315 986 301 986 l 486 986 q 509 976 501 986 q 514 951 517 965 l 465 722 l 639 722 q 662 713 654 722 q 667 688 669 703 l 642 568 q 626 543 639 553 q 600 533 614 533 l 425 533 l 375 297 q 369 250 369 274 q 383 211 369 224 q 428 199 396 199 l 540 199 q 563 188 556 199 q 568 163 571 178 l 540 35 q 525 10 538 19 q 499 0 513 0 l 381 0 m 3 -329 q -15 -320 -8 -329 q -17 -299 -21 -311 l 49 -118 q 72 -84 56 -99 q 111 -69 88 -69 l 261 -69 q 278 -78 272 -69 q 282 -97 285 -86 q 275 -112 279 -106 l 169 -289 q 143 -318 157 -307 q 108 -329 129 -329 l 3 -329 z "},"u":{"ha":894,"x_min":38,"x_max":876,"o":"m 268 -14 q 99 43 161 -14 q 38 207 38 100 q 49 300 38 247 l 131 688 q 146 713 133 703 q 174 722 158 722 l 358 722 q 380 713 372 722 q 385 688 388 703 l 306 308 q 299 257 299 276 q 320 199 299 218 q 388 179 342 179 q 485 213 444 179 q 539 308 525 247 l 619 688 q 635 712 622 701 q 663 722 647 722 l 846 722 q 869 713 861 722 q 874 688 876 703 l 735 35 q 720 10 732 19 q 693 0 708 0 l 524 0 q 500 10 508 0 q 494 35 492 21 l 506 88 q 404 10 457 35 q 268 -14 351 -14 z "},"ú":{"ha":894,"x_min":38,"x_max":875,"o":"m 268 -14 q 99 43 161 -14 q 38 207 38 100 q 49 300 38 247 l 131 688 q 146 713 133 703 q 174 722 158 722 l 358 722 q 380 713 372 722 q 385 688 388 703 l 306 308 q 299 257 299 276 q 320 199 299 218 q 388 179 342 179 q 485 213 444 179 q 539 308 525 247 l 619 688 q 635 712 622 701 q 663 722 647 722 l 846 722 q 869 713 861 722 q 874 688 876 703 l 735 35 q 720 10 732 19 q 693 0 708 0 l 524 0 q 500 10 508 0 q 494 35 492 21 l 506 88 q 404 10 457 35 q 268 -14 351 -14 m 435 826 q 417 843 417 826 q 428 867 417 856 l 585 1018 q 613 1040 603 1035 q 642 1044 624 1044 l 833 1044 q 850 1038 844 1044 q 854 1018 856 1031 q 843 1000 851 1007 l 624 847 q 596 831 608 836 q 567 826 583 826 l 435 826 z "},"ŭ":{"ha":894,"x_min":38,"x_max":875,"o":"m 268 -14 q 99 43 161 -14 q 38 207 38 100 q 49 300 38 247 l 131 688 q 146 713 133 703 q 174 722 158 722 l 358 722 q 380 713 372 722 q 385 688 388 703 l 306 308 q 299 257 299 276 q 320 199 299 218 q 388 179 342 179 q 485 213 444 179 q 539 308 525 247 l 619 688 q 635 712 622 701 q 663 722 647 722 l 846 722 q 869 713 861 722 q 874 688 876 703 l 735 35 q 720 10 732 19 q 693 0 708 0 l 524 0 q 500 10 508 0 q 494 35 492 21 l 506 88 q 404 10 457 35 q 268 -14 351 -14 m 524 819 q 390 864 440 819 q 339 978 339 908 q 343 1018 339 997 q 354 1037 346 1029 q 375 1044 363 1044 l 469 1044 q 488 1037 482 1044 q 490 1018 493 1029 q 486 986 486 1001 q 535 936 486 936 q 588 959 568 936 q 617 1018 608 982 q 628 1037 619 1029 q 649 1044 636 1044 l 743 1044 q 761 1037 756 1044 q 764 1018 767 1029 q 524 819 721 819 z "},"û":{"ha":894,"x_min":38,"x_max":875,"o":"m 268 -14 q 99 43 161 -14 q 38 207 38 100 q 49 300 38 247 l 131 688 q 146 713 133 703 q 174 722 158 722 l 358 722 q 380 713 372 722 q 385 688 388 703 l 306 308 q 299 257 299 276 q 320 199 299 218 q 388 179 342 179 q 485 213 444 179 q 539 308 525 247 l 619 688 q 635 712 622 701 q 663 722 647 722 l 846 722 q 869 713 861 722 q 874 688 876 703 l 735 35 q 720 10 732 19 q 693 0 708 0 l 524 0 q 500 10 508 0 q 494 35 492 21 l 506 88 q 404 10 457 35 q 268 -14 351 -14 m 265 826 q 249 846 246 826 q 260 865 251 857 l 440 1019 q 468 1039 457 1033 q 494 1044 479 1044 l 610 1044 q 633 1039 624 1044 q 654 1019 643 1033 l 767 865 q 771 846 774 857 q 762 832 768 838 q 746 826 756 826 l 683 826 q 639 836 656 826 l 532 903 l 397 836 q 350 826 376 826 l 265 826 z "},"ü":{"ha":894,"x_min":38,"x_max":875,"o":"m 268 -14 q 99 43 161 -14 q 38 207 38 100 q 49 300 38 247 l 131 688 q 146 713 133 703 q 174 722 158 722 l 358 722 q 380 713 372 722 q 385 688 388 703 l 306 308 q 299 257 299 276 q 320 199 299 218 q 388 179 342 179 q 485 213 444 179 q 539 308 525 247 l 619 688 q 635 712 622 701 q 663 722 647 722 l 846 722 q 869 713 861 722 q 874 688 876 703 l 735 35 q 720 10 732 19 q 693 0 708 0 l 524 0 q 500 10 508 0 q 494 35 492 21 l 506 88 q 404 10 457 35 q 268 -14 351 -14 m 314 842 q 293 850 300 842 q 289 872 286 858 l 317 1006 q 331 1028 319 1019 q 356 1038 342 1038 l 488 1038 q 508 1028 501 1038 q 513 1006 515 1019 l 485 872 q 471 850 482 858 q 446 842 460 842 l 314 842 m 606 842 q 585 850 592 842 q 581 872 578 858 l 610 1006 q 622 1028 611 1019 q 647 1038 633 1038 l 779 1038 q 801 1028 793 1038 q 806 1006 808 1019 l 776 872 q 763 850 774 858 q 739 842 753 842 l 606 842 z "},"ù":{"ha":894,"x_min":38,"x_max":875,"o":"m 268 -14 q 99 43 161 -14 q 38 207 38 100 q 49 300 38 247 l 131 688 q 146 713 133 703 q 174 722 158 722 l 358 722 q 380 713 372 722 q 385 688 388 703 l 306 308 q 299 257 299 276 q 320 199 299 218 q 388 179 342 179 q 485 213 444 179 q 539 308 525 247 l 619 688 q 635 712 622 701 q 663 722 647 722 l 846 722 q 869 713 861 722 q 874 688 876 703 l 735 35 q 720 10 732 19 q 693 0 708 0 l 524 0 q 500 10 508 0 q 494 35 492 21 l 506 88 q 404 10 457 35 q 268 -14 351 -14 m 457 826 q 430 831 440 826 q 408 847 419 836 l 256 999 q 251 1011 251 1006 q 260 1035 251 1025 q 282 1044 269 1044 l 483 1044 q 510 1040 501 1044 q 529 1018 519 1035 l 621 868 q 625 854 625 863 q 618 834 625 842 q 599 826 611 826 l 457 826 z "},"ű":{"ha":894,"x_min":38,"x_max":935,"o":"m 268 -14 q 99 43 161 -14 q 38 207 38 100 q 49 300 38 247 l 131 688 q 146 713 133 703 q 174 722 158 722 l 358 722 q 380 713 372 722 q 385 688 388 703 l 306 308 q 299 257 299 276 q 320 199 299 218 q 388 179 342 179 q 485 213 444 179 q 539 308 525 247 l 619 688 q 635 712 622 701 q 663 722 647 722 l 846 722 q 869 713 861 722 q 874 688 876 703 l 735 35 q 720 10 732 19 q 693 0 708 0 l 524 0 q 500 10 508 0 q 494 35 492 21 l 506 88 q 404 10 457 35 q 268 -14 351 -14 m 308 826 q 293 832 299 826 q 290 846 288 838 q 300 867 290 854 l 400 1018 q 423 1038 410 1032 q 457 1044 436 1044 l 610 1044 q 632 1025 632 1044 q 621 1000 632 1011 l 449 846 q 399 826 426 826 l 308 826 m 611 826 q 593 846 590 826 q 604 867 594 854 l 704 1018 q 761 1044 721 1044 l 913 1044 q 931 1038 925 1044 q 935 1019 938 1031 q 924 1000 935 1011 l 751 846 q 703 826 729 826 l 611 826 z "},"ū":{"ha":894,"x_min":38,"x_max":875,"o":"m 268 -14 q 99 43 161 -14 q 38 207 38 100 q 49 300 38 247 l 131 688 q 146 713 133 703 q 174 722 158 722 l 358 722 q 380 713 372 722 q 385 688 388 703 l 306 308 q 299 257 299 276 q 320 199 299 218 q 388 179 342 179 q 485 213 444 179 q 539 308 525 247 l 619 688 q 635 712 622 701 q 663 722 647 722 l 846 722 q 869 713 861 722 q 874 688 876 703 l 735 35 q 720 10 732 19 q 693 0 708 0 l 524 0 q 500 10 508 0 q 494 35 492 21 l 506 88 q 404 10 457 35 q 268 -14 351 -14 m 324 839 q 303 848 310 839 q 299 871 296 857 l 321 974 q 334 996 324 988 q 358 1004 344 1004 l 754 1004 q 774 996 768 1004 q 778 974 781 988 l 757 871 q 743 848 754 857 q 718 839 732 839 l 324 839 z "},"ų":{"ha":894,"x_min":57,"x_max":897,"o":"m 631 -306 q 503 -264 546 -306 q 460 -150 460 -222 q 467 -87 460 -125 q 531 17 476 -35 q 519 27 524 19 q 517 44 515 35 l 526 88 q 274 -14 433 -14 q 115 43 174 -14 q 57 206 57 100 q 68 300 57 244 l 150 688 q 165 712 153 701 q 193 722 178 722 l 378 722 q 401 713 393 722 q 406 688 408 703 l 325 308 q 319 264 319 275 q 413 179 319 179 q 507 213 468 179 q 560 308 546 247 l 640 688 q 656 713 643 703 q 683 722 668 722 l 867 722 q 890 712 882 722 q 894 688 897 701 l 756 35 q 741 12 753 22 q 715 0 729 1 l 699 -1 q 631 -41 654 -10 q 608 -112 608 -72 q 622 -152 608 -137 q 665 -167 636 -167 l 678 -167 q 701 -177 693 -167 q 706 -201 708 -187 l 690 -271 q 675 -295 688 -285 q 647 -306 663 -306 l 631 -306 z "},"ů":{"ha":894,"x_min":38,"x_max":875,"o":"m 268 -14 q 99 43 161 -14 q 38 207 38 100 q 49 300 38 247 l 131 688 q 146 713 133 703 q 174 722 158 722 l 358 722 q 380 713 372 722 q 385 688 388 703 l 306 308 q 299 257 299 276 q 320 199 299 218 q 388 179 342 179 q 485 213 444 179 q 539 308 525 247 l 619 688 q 635 712 622 701 q 663 722 647 722 l 846 722 q 869 713 861 722 q 874 688 876 703 l 735 35 q 720 10 732 19 q 693 0 708 0 l 524 0 q 500 10 508 0 q 494 35 492 21 l 506 88 q 404 10 457 35 q 268 -14 351 -14 m 517 819 q 439 847 469 819 q 408 917 408 874 q 411 942 408 925 q 467 1031 424 996 q 565 1065 511 1065 q 644 1038 614 1065 q 674 968 674 1011 q 651 892 674 926 q 592 839 629 858 q 517 819 556 819 m 531 900 q 568 915 551 900 q 585 951 585 931 q 576 974 585 965 q 551 983 567 983 q 515 968 531 983 q 499 932 499 953 q 508 909 499 918 q 531 900 517 900 z "},"ũ":{"ha":894,"x_min":38,"x_max":875,"o":"m 268 -14 q 99 43 161 -14 q 38 207 38 100 q 49 300 38 247 l 131 688 q 146 713 133 703 q 174 722 158 722 l 358 722 q 380 713 372 722 q 385 688 388 703 l 306 308 q 299 257 299 276 q 320 199 299 218 q 388 179 342 179 q 485 213 444 179 q 539 308 525 247 l 619 688 q 635 712 622 701 q 663 722 647 722 l 846 722 q 869 713 861 722 q 874 688 876 703 l 735 35 q 720 10 732 19 q 693 0 708 0 l 524 0 q 500 10 508 0 q 494 35 492 21 l 506 88 q 404 10 457 35 q 268 -14 351 -14 m 626 819 q 579 826 599 819 q 533 847 560 833 q 504 863 517 858 q 476 868 492 868 q 453 863 463 868 q 433 846 444 857 q 417 831 424 836 q 400 826 410 826 l 313 826 q 297 833 303 826 q 293 850 290 840 q 322 928 300 886 q 384 999 344 969 q 479 1029 424 1029 q 526 1022 507 1029 q 572 1001 546 1015 q 603 985 592 990 q 631 981 615 981 q 653 986 644 981 q 674 1004 661 992 q 706 1024 690 1024 l 792 1024 q 808 1016 803 1024 q 813 999 814 1008 q 753 878 800 936 q 626 819 706 819 z "},"v":{"ha":832,"x_min":82,"x_max":868,"o":"m 250 0 q 223 9 231 0 q 211 35 215 18 l 85 682 q 91 711 82 700 q 121 722 100 722 l 276 722 q 302 714 294 722 q 314 690 310 706 l 376 278 l 618 693 q 664 722 635 722 l 842 722 q 861 716 854 722 q 868 699 868 710 q 861 679 868 690 l 463 35 q 440 9 451 18 q 408 0 428 0 l 250 0 z "},"w":{"ha":1171,"x_min":88,"x_max":1197,"o":"m 192 0 q 154 35 157 0 l 89 682 q 99 710 88 697 q 128 722 111 722 l 274 722 q 299 714 290 722 q 310 693 308 706 l 343 308 l 543 690 q 563 713 550 703 q 593 722 575 722 l 690 722 q 717 713 708 722 q 728 690 726 703 l 768 308 l 963 693 q 981 713 968 704 q 1010 722 993 722 l 1172 722 q 1197 699 1197 722 q 1193 681 1197 689 l 857 35 q 804 0 838 0 l 671 0 q 632 35 635 0 l 576 404 l 374 35 q 321 0 357 0 l 192 0 z "},"ẃ":{"ha":1171,"x_min":89,"x_max":1197,"o":"m 192 0 q 154 35 157 0 l 89 682 q 99 710 88 697 q 128 722 111 722 l 274 722 q 299 714 290 722 q 310 693 308 706 l 343 308 l 543 690 q 563 713 550 703 q 593 722 575 722 l 690 722 q 717 713 708 722 q 728 690 726 703 l 768 308 l 963 693 q 981 713 968 704 q 1010 722 993 722 l 1172 722 q 1197 699 1197 722 q 1193 681 1197 689 l 857 35 q 804 0 838 0 l 671 0 q 632 35 635 0 l 576 404 l 374 35 q 321 0 357 0 l 192 0 m 579 826 q 561 843 561 826 q 572 867 561 856 l 729 1018 q 758 1040 747 1035 q 786 1044 768 1044 l 978 1044 q 994 1038 989 1044 q 999 1018 1000 1031 q 988 1000 996 1007 l 768 847 q 740 831 753 836 q 711 826 728 826 l 579 826 z "},"ŵ":{"ha":1171,"x_min":89,"x_max":1197,"o":"m 192 0 q 154 35 157 0 l 89 682 q 99 710 88 697 q 128 722 111 722 l 274 722 q 299 714 290 722 q 310 693 308 706 l 343 308 l 543 690 q 563 713 550 703 q 593 722 575 722 l 690 722 q 717 713 708 722 q 728 690 726 703 l 768 308 l 963 693 q 981 713 968 704 q 1010 722 993 722 l 1172 722 q 1197 699 1197 722 q 1193 681 1197 689 l 857 35 q 804 0 838 0 l 671 0 q 632 35 635 0 l 576 404 l 374 35 q 321 0 357 0 l 192 0 m 399 826 q 382 846 379 826 q 393 865 385 857 l 574 1019 q 601 1039 590 1033 q 628 1044 613 1044 l 743 1044 q 767 1039 757 1044 q 788 1019 776 1033 l 900 865 q 904 846 907 857 q 895 832 901 838 q 879 826 889 826 l 817 826 q 772 836 789 826 l 665 903 l 531 836 q 483 826 510 826 l 399 826 z "},"ẅ":{"ha":1171,"x_min":89,"x_max":1197,"o":"m 192 0 q 154 35 157 0 l 89 682 q 99 710 88 697 q 128 722 111 722 l 274 722 q 299 714 290 722 q 310 693 308 706 l 343 308 l 543 690 q 563 713 550 703 q 593 722 575 722 l 690 722 q 717 713 708 722 q 728 690 726 703 l 768 308 l 963 693 q 981 713 968 704 q 1010 722 993 722 l 1172 722 q 1197 699 1197 722 q 1193 681 1197 689 l 857 35 q 804 0 838 0 l 671 0 q 632 35 635 0 l 576 404 l 374 35 q 321 0 357 0 l 192 0 m 439 842 q 418 850 425 842 q 414 872 411 858 l 442 1006 q 456 1028 444 1019 q 481 1038 467 1038 l 613 1038 q 633 1028 626 1038 q 638 1006 640 1019 l 610 872 q 596 850 607 858 q 571 842 585 842 l 439 842 m 731 842 q 710 850 717 842 q 706 872 703 858 l 735 1006 q 747 1028 736 1019 q 772 1038 758 1038 l 904 1038 q 926 1028 918 1038 q 931 1006 933 1019 l 901 872 q 888 850 899 858 q 864 842 878 842 l 731 842 z "},"ẁ":{"ha":1171,"x_min":89,"x_max":1197,"o":"m 192 0 q 154 35 157 0 l 89 682 q 99 710 88 697 q 128 722 111 722 l 274 722 q 299 714 290 722 q 310 693 308 706 l 343 308 l 543 690 q 563 713 550 703 q 593 722 575 722 l 690 722 q 717 713 708 722 q 728 690 726 703 l 768 308 l 963 693 q 981 713 968 704 q 1010 722 993 722 l 1172 722 q 1197 699 1197 722 q 1193 681 1197 689 l 857 35 q 804 0 838 0 l 671 0 q 632 35 635 0 l 576 404 l 374 35 q 321 0 357 0 l 192 0 m 589 826 q 562 831 572 826 q 540 847 551 836 l 388 999 q 383 1011 383 1006 q 392 1035 383 1025 q 414 1044 401 1044 l 615 1044 q 642 1040 633 1044 q 661 1018 651 1035 l 753 868 q 757 854 757 863 q 750 834 757 842 q 731 826 743 826 l 589 826 z "},"x":{"ha":824,"x_min":-62,"x_max":856,"o":"m -36 0 q -56 8 -49 0 q -62 28 -62 15 q -54 50 -62 40 l 251 378 l 104 674 q 101 685 101 682 q 112 710 101 699 q 138 722 122 722 l 310 722 q 347 697 336 722 l 435 529 l 594 697 q 643 722 615 722 l 828 722 q 848 715 840 722 q 856 694 856 707 q 846 672 856 682 l 557 360 l 710 49 q 714 32 714 40 q 704 9 714 18 q 678 0 694 0 l 500 0 q 464 22 476 0 l 372 203 l 201 22 q 182 6 192 13 q 156 0 172 0 l -36 0 z "},"y":{"ha":846,"x_min":46,"x_max":886,"o":"m 71 -264 q 53 -258 60 -264 q 46 -240 46 -251 q 53 -219 46 -231 l 222 47 l 88 682 q 94 710 85 699 q 125 722 104 722 l 281 722 q 315 693 310 722 l 392 299 l 638 693 q 686 722 656 722 l 861 722 q 879 715 872 722 q 886 699 886 708 q 881 681 886 688 l 292 -235 q 272 -256 285 -247 q 243 -264 260 -264 l 71 -264 z "},"ý":{"ha":846,"x_min":46,"x_max":886,"o":"m 71 -264 q 53 -258 60 -264 q 46 -240 46 -251 q 53 -219 46 -231 l 222 47 l 88 682 q 94 710 85 699 q 125 722 104 722 l 281 722 q 315 693 310 722 l 392 299 l 638 693 q 686 722 656 722 l 861 722 q 879 715 872 722 q 886 699 886 708 q 881 681 886 688 l 292 -235 q 272 -256 285 -247 q 243 -264 260 -264 l 71 -264 m 411 826 q 393 843 393 826 q 404 867 393 856 l 561 1018 q 590 1040 579 1035 q 618 1044 600 1044 l 810 1044 q 826 1038 821 1044 q 831 1018 832 1031 q 819 1000 828 1007 l 600 847 q 572 831 585 836 q 543 826 560 826 l 411 826 z "},"ŷ":{"ha":846,"x_min":46,"x_max":886,"o":"m 71 -264 q 53 -258 60 -264 q 46 -240 46 -251 q 53 -219 46 -231 l 222 47 l 88 682 q 94 710 85 699 q 125 722 104 722 l 281 722 q 315 693 310 722 l 392 299 l 638 693 q 686 722 656 722 l 861 722 q 879 715 872 722 q 886 699 886 708 q 881 681 886 688 l 292 -235 q 272 -256 285 -247 q 243 -264 260 -264 l 71 -264 m 236 826 q 219 846 217 826 q 231 865 222 857 l 411 1019 q 439 1039 428 1033 q 465 1044 450 1044 l 581 1044 q 604 1039 594 1044 q 625 1019 614 1033 l 738 865 q 742 846 744 857 q 733 832 739 838 q 717 826 726 826 l 654 826 q 610 836 626 826 l 503 903 l 368 836 q 321 826 347 826 l 236 826 z "},"ÿ":{"ha":846,"x_min":46,"x_max":886,"o":"m 71 -264 q 53 -258 60 -264 q 46 -240 46 -251 q 53 -219 46 -231 l 222 47 l 88 682 q 94 710 85 699 q 125 722 104 722 l 281 722 q 315 693 310 722 l 392 299 l 638 693 q 686 722 656 722 l 861 722 q 879 715 872 722 q 886 699 886 708 q 881 681 886 688 l 292 -235 q 272 -256 285 -247 q 243 -264 260 -264 l 71 -264 m 282 842 q 261 850 268 842 q 257 872 254 858 l 285 1006 q 299 1028 288 1019 q 324 1038 310 1038 l 456 1038 q 476 1028 469 1038 q 481 1006 483 1019 l 453 872 q 439 850 450 858 q 414 842 428 842 l 282 842 m 574 842 q 553 850 560 842 q 549 872 546 858 l 578 1006 q 590 1028 579 1019 q 615 1038 601 1038 l 747 1038 q 769 1028 761 1038 q 774 1006 776 1019 l 744 872 q 731 850 742 858 q 707 842 721 842 l 574 842 z "},"ỳ":{"ha":846,"x_min":46,"x_max":886,"o":"m 71 -264 q 53 -258 60 -264 q 46 -240 46 -251 q 53 -219 46 -231 l 222 47 l 88 682 q 94 710 85 699 q 125 722 104 722 l 281 722 q 315 693 310 722 l 392 299 l 638 693 q 686 722 656 722 l 861 722 q 879 715 872 722 q 886 699 886 708 q 881 681 886 688 l 292 -235 q 272 -256 285 -247 q 243 -264 260 -264 l 71 -264 m 435 826 q 408 831 418 826 q 386 847 397 836 l 233 999 q 229 1011 229 1006 q 238 1035 229 1025 q 260 1044 247 1044 l 461 1044 q 488 1040 479 1044 q 507 1018 497 1035 l 599 868 q 603 854 603 863 q 596 834 603 842 q 576 826 589 826 l 435 826 z "},"z":{"ha":772,"x_min":-31,"x_max":760,"o":"m 1 0 q -22 10 -14 0 q -28 35 -31 19 l -3 150 q 22 190 3 175 l 411 536 l 125 536 q 102 547 110 536 q 97 571 94 557 l 122 688 q 138 713 125 703 q 165 722 150 722 l 729 722 q 752 713 744 722 q 757 688 760 703 l 732 563 q 707 526 726 542 l 329 186 l 644 186 q 667 176 660 186 q 672 151 675 165 l 647 35 q 632 10 644 19 q 606 0 619 0 l 1 0 z "},"ź":{"ha":772,"x_min":-29,"x_max":797,"o":"m 1 0 q -22 10 -14 0 q -28 35 -31 19 l -3 150 q 22 190 3 175 l 411 536 l 125 536 q 102 547 110 536 q 97 571 94 557 l 122 688 q 138 713 125 703 q 165 722 150 722 l 729 722 q 752 713 744 722 q 757 688 760 703 l 732 563 q 707 526 726 542 l 329 186 l 644 186 q 667 176 660 186 q 672 151 675 165 l 647 35 q 632 10 644 19 q 606 0 619 0 l 1 0 m 378 826 q 360 843 360 826 q 371 867 360 856 l 528 1018 q 556 1040 546 1035 q 585 1044 567 1044 l 776 1044 q 793 1038 788 1044 q 797 1018 799 1031 q 786 1000 794 1007 l 567 847 q 539 831 551 836 q 510 826 526 826 l 378 826 z "},"ž":{"ha":772,"x_min":-29,"x_max":768,"o":"m 1 0 q -22 10 -14 0 q -28 35 -31 19 l -3 150 q 22 190 3 175 l 411 536 l 125 536 q 102 547 110 536 q 97 571 94 557 l 122 688 q 138 713 125 703 q 165 722 150 722 l 729 722 q 752 713 744 722 q 757 688 760 703 l 732 563 q 707 526 726 542 l 329 186 l 644 186 q 667 176 660 186 q 672 151 675 165 l 647 35 q 632 10 644 19 q 606 0 619 0 l 1 0 m 407 826 q 383 831 393 826 q 363 850 374 836 l 250 1006 q 246 1022 243 1013 q 253 1038 247 1032 q 271 1044 260 1044 l 333 1044 q 378 1035 361 1044 l 485 968 l 619 1035 q 667 1044 640 1044 l 751 1044 q 765 1039 761 1044 q 768 1025 769 1033 q 757 1006 767 1015 l 576 850 q 549 831 560 836 q 522 826 538 826 l 407 826 z "},"ż":{"ha":772,"x_min":-29,"x_max":758,"o":"m 1 0 q -22 10 -14 0 q -28 35 -31 19 l -3 150 q 22 190 3 175 l 411 536 l 125 536 q 102 547 110 536 q 97 571 94 557 l 122 688 q 138 713 125 703 q 165 722 150 722 l 729 722 q 752 713 744 722 q 757 688 760 703 l 732 563 q 707 526 726 542 l 329 186 l 644 186 q 667 176 660 186 q 672 151 675 165 l 647 35 q 632 10 644 19 q 606 0 619 0 l 1 0 m 399 836 q 378 845 385 836 q 374 868 371 854 l 404 1011 q 418 1034 407 1025 q 443 1043 429 1043 l 586 1043 q 607 1034 600 1043 q 611 1011 614 1025 l 581 868 q 567 845 578 854 q 542 836 556 836 l 399 836 z "},"ﬀ":{"ha":1132,"x_min":53,"x_max":1257,"o":"m 1147 722 q 1170 712 1163 722 q 1175 688 1178 701 l 1150 568 q 1135 543 1147 553 q 1107 533 1122 533 l 940 533 l 835 35 q 819 10 832 19 q 793 0 807 0 l 622 0 q 599 10 607 0 q 594 35 592 21 l 700 533 l 429 533 l 322 35 q 307 10 319 19 q 281 0 294 0 l 111 0 q 88 10 96 0 q 82 35 79 19 l 189 533 l 83 533 q 60 544 68 533 q 56 568 53 554 l 81 688 q 96 713 83 703 q 124 722 108 722 l 228 722 l 238 764 q 354 966 268 904 q 583 1028 440 1028 l 714 1028 q 737 1018 729 1028 q 742 993 744 1008 l 717 874 q 701 849 714 858 q 674 839 689 839 l 578 839 q 476 757 493 839 l 468 722 l 740 722 l 750 764 q 866 966 779 904 q 1094 1028 953 1028 l 1226 1028 q 1249 1017 1242 1028 q 1254 993 1257 1007 l 1228 874 q 1213 849 1225 858 q 1186 839 1200 839 l 1090 839 q 989 757 1004 839 l 981 722 l 1147 722 z "},"ﬃ":{"ha":1467,"x_min":53,"x_max":1514,"o":"m 111 0 q 88 10 96 0 q 82 35 79 19 l 189 533 l 83 533 q 60 544 68 533 q 56 568 53 554 l 81 688 q 96 713 83 703 q 124 722 108 722 l 228 722 l 238 764 q 354 966 268 904 q 583 1028 440 1028 l 714 1028 q 737 1018 729 1028 q 742 993 744 1008 l 717 874 q 701 849 714 858 q 674 839 689 839 l 578 839 q 476 757 493 839 l 468 722 l 740 722 l 750 764 q 866 966 779 904 q 1094 1028 953 1028 l 1485 1028 q 1506 1018 1499 1028 q 1511 993 1514 1008 l 1486 874 q 1471 849 1483 858 q 1444 839 1458 839 l 1090 839 q 989 757 1004 839 l 981 722 l 1419 722 q 1441 713 1433 722 q 1446 688 1449 703 l 1308 35 q 1293 10 1306 19 q 1267 0 1281 0 l 1096 0 q 1073 10 1081 0 q 1068 35 1065 21 l 1172 533 l 940 533 l 835 35 q 819 10 832 19 q 793 0 807 0 l 622 0 q 599 10 607 0 q 594 35 592 21 l 700 533 l 429 533 l 322 35 q 307 10 319 19 q 281 0 294 0 l 111 0 z "},"ﬄ":{"ha":1507,"x_min":53,"x_max":1553,"o":"m 111 0 q 88 10 96 0 q 82 35 79 19 l 189 533 l 83 533 q 60 544 68 533 q 56 568 53 554 l 81 688 q 96 713 83 703 q 124 722 108 722 l 228 722 l 238 764 q 354 966 268 904 q 583 1028 440 1028 l 714 1028 q 737 1018 729 1028 q 742 993 744 1008 l 717 874 q 701 849 714 858 q 674 839 689 839 l 578 839 q 476 757 493 839 l 468 722 l 740 722 l 750 764 q 866 966 779 904 q 1094 1028 953 1028 l 1208 1028 q 1230 1018 1222 1028 q 1235 993 1238 1008 l 1210 874 q 1194 849 1207 858 q 1168 839 1182 839 l 1090 839 q 989 757 1004 839 l 981 722 l 1253 722 l 1310 993 q 1325 1018 1313 1008 q 1351 1028 1338 1028 l 1521 1028 q 1544 1018 1536 1028 q 1550 993 1553 1008 l 1346 35 q 1331 10 1343 19 q 1304 0 1319 0 l 1135 0 q 1111 10 1119 0 q 1106 35 1103 21 l 1211 533 l 940 533 l 835 35 q 819 10 832 19 q 793 0 807 0 l 622 0 q 599 10 607 0 q 594 35 592 21 l 700 533 l 429 533 l 322 35 q 307 10 319 19 q 281 0 294 0 l 111 0 z "},"ﬁ":{"ha":956,"x_min":53,"x_max":1003,"o":"m 111 0 q 88 10 96 0 q 82 35 79 19 l 189 533 l 83 533 q 60 544 68 533 q 56 568 53 554 l 81 688 q 96 713 83 703 q 124 722 108 722 l 228 722 l 238 764 q 354 966 268 904 q 583 1028 440 1028 l 972 1028 q 995 1017 988 1028 q 1000 993 1003 1007 l 974 874 q 958 849 971 858 q 932 839 946 839 l 578 839 q 476 757 493 839 l 468 722 l 907 722 q 930 712 922 722 q 935 688 938 701 l 796 35 q 781 10 793 19 q 754 0 768 0 l 585 0 q 561 10 569 0 q 556 35 553 19 l 661 533 l 429 533 l 322 35 q 307 10 319 19 q 281 0 294 0 l 111 0 z "},"ﬂ":{"ha":994,"x_min":53,"x_max":1040,"o":"m 111 0 q 88 10 96 0 q 82 35 79 19 l 189 533 l 85 533 q 61 544 69 533 q 57 568 53 554 l 81 688 q 96 712 83 701 q 124 722 108 722 l 228 722 l 238 764 q 354 966 268 904 q 583 1028 440 1028 l 696 1028 q 719 1017 711 1028 q 724 993 726 1007 l 697 874 q 682 849 694 858 q 656 839 669 839 l 578 839 q 476 757 493 839 l 468 722 l 740 722 l 797 993 q 813 1018 800 1008 q 839 1028 825 1028 l 1010 1028 q 1033 1017 1025 1028 q 1038 993 1040 1007 l 835 35 q 819 10 832 19 q 793 0 807 0 l 622 0 q 599 10 607 0 q 594 35 592 21 l 699 533 l 429 533 l 322 35 q 307 10 319 19 q 281 0 294 0 l 111 0 z "},"ª":{"ha":492,"x_min":106,"x_max":515,"o":"m 225 596 q 138 622 171 596 q 106 688 106 649 q 107 706 106 700 q 165 788 117 757 q 292 832 213 819 l 372 844 q 376 867 376 865 q 347 886 376 886 q 323 883 332 886 q 301 871 314 879 q 292 865 300 869 q 274 861 283 861 l 185 861 q 172 866 176 861 q 169 881 168 871 q 223 948 181 917 q 353 979 265 979 q 472 949 428 979 q 515 861 515 918 q 511 826 515 846 l 468 626 q 458 610 465 617 q 440 603 450 603 l 350 603 q 334 610 340 603 q 331 626 328 617 l 335 642 q 287 608 315 621 q 225 596 258 596 m 272 692 q 326 710 304 692 q 354 763 349 729 l 304 753 q 244 714 247 740 l 244 710 q 272 692 244 692 z "},"º":{"ha":488,"x_min":118,"x_max":525,"o":"m 292 596 q 165 630 211 596 q 118 726 118 664 q 119 753 118 743 q 136 822 122 774 q 208 940 157 901 q 351 979 260 979 q 476 945 426 979 q 525 849 525 911 q 522 822 525 839 q 516 788 521 807 q 507 753 511 768 q 436 634 485 672 q 292 596 388 596 m 301 699 q 340 712 326 699 q 363 757 354 725 q 376 818 374 796 q 378 840 378 826 q 369 867 378 858 q 342 876 361 876 q 302 863 317 876 q 279 818 288 849 q 265 757 268 779 q 264 735 264 749 q 272 707 264 715 q 301 699 281 699 z "},"А":{"ha":1007,"x_min":-71,"x_max":918,"o":"m -44 0 q -64 8 -57 0 q -71 26 -71 15 q -67 42 -71 33 l 446 932 q 510 972 469 972 l 735 972 q 782 932 776 972 l 917 42 q 908 11 918 22 q 883 0 899 0 l 707 0 q 664 33 669 0 l 642 165 l 279 165 l 199 31 q 146 0 179 0 l -44 0 m 381 374 l 628 374 l 579 728 l 381 374 z "},"Б":{"ha":915,"x_min":-4,"x_max":936,"o":"m 26 0 q 3 10 11 0 q -1 35 -4 21 l 190 936 q 205 962 193 951 q 232 972 217 972 l 904 972 q 928 962 919 972 q 933 936 936 951 l 903 790 q 886 765 899 775 q 860 754 874 754 l 413 754 l 379 599 l 565 599 q 793 538 714 599 q 872 371 872 478 q 865 304 872 333 q 790 148 847 217 q 643 40 733 79 q 439 0 553 0 l 26 0 m 454 188 q 558 231 517 188 q 599 332 599 275 q 574 394 599 371 q 504 418 550 418 l 340 418 l 292 188 l 454 188 z "},"В":{"ha":983,"x_min":13,"x_max":975,"o":"m 43 0 q 19 10 28 0 q 14 35 11 19 l 206 936 q 221 962 208 951 q 249 972 233 972 l 658 972 q 891 915 807 972 q 975 753 975 857 q 968 694 975 729 q 908 578 953 625 q 813 508 863 531 q 882 443 856 486 q 908 344 908 400 q 903 296 908 329 q 774 76 872 151 q 503 0 676 0 l 43 0 m 564 588 q 660 625 622 588 q 697 715 697 663 q 676 767 697 749 q 613 785 656 785 l 435 785 l 392 588 l 564 588 m 493 188 q 584 219 546 188 q 631 296 622 251 q 635 326 635 313 q 611 384 635 363 q 540 406 588 406 l 354 406 l 307 188 l 493 188 z "},"Г":{"ha":789,"x_min":-4,"x_max":868,"o":"m 26 0 q 3 10 11 0 q -1 35 -4 21 l 190 936 q 205 962 193 951 q 232 972 217 972 l 838 972 q 860 962 853 972 q 867 936 868 951 l 835 790 q 819 765 832 775 q 792 754 807 754 l 413 754 l 258 35 q 244 10 256 19 q 217 0 232 0 l 26 0 z "},"Ѓ":{"ha":792,"x_min":-3,"x_max":903,"o":"m 26 0 q 3 10 11 0 q -1 35 -4 21 l 190 936 q 205 962 193 951 q 232 972 217 972 l 838 972 q 860 962 853 972 q 867 936 868 951 l 835 790 q 819 765 832 775 q 792 754 807 754 l 413 754 l 258 35 q 244 10 256 19 q 217 0 232 0 l 26 0 m 472 1042 q 457 1047 463 1042 q 453 1063 451 1053 q 464 1081 456 1074 l 622 1233 q 651 1255 640 1250 q 679 1260 661 1260 l 882 1260 q 899 1253 893 1260 q 903 1235 904 1246 q 892 1215 900 1222 l 672 1063 q 644 1047 657 1051 q 615 1042 632 1042 l 472 1042 z "},"Ґ":{"ha":804,"x_min":11,"x_max":926,"o":"m 894 1167 q 917 1157 908 1167 q 924 1132 926 1147 l 850 790 q 835 765 847 775 q 807 754 822 754 l 428 754 l 274 35 q 259 10 271 19 q 232 0 247 0 l 42 0 q 19 10 26 0 q 14 35 11 21 l 206 936 q 221 962 208 951 q 249 972 233 972 l 629 972 l 663 1132 q 678 1157 665 1147 q 704 1167 690 1167 l 894 1167 z "},"Д":{"ha":1099,"x_min":-78,"x_max":1071,"o":"m -47 -194 q -70 -184 -62 -194 q -75 -158 -78 -174 l 1 196 q 16 222 4 211 q 43 232 28 232 l 68 232 q 181 344 131 232 q 275 657 232 457 l 333 938 q 349 963 336 953 q 376 972 361 972 l 1039 972 q 1063 962 1054 972 q 1068 936 1071 951 l 917 232 l 982 232 q 1006 222 997 232 q 1011 196 1014 211 l 935 -158 q 919 -184 932 -174 q 892 -194 907 -194 l 703 -194 q 679 -184 688 -194 q 674 -158 671 -174 l 707 0 l 219 0 l 186 -158 q 171 -184 183 -174 q 143 -194 158 -194 l -47 -194 m 657 232 l 765 740 l 543 740 l 518 624 q 374 232 458 346 l 657 232 z "},"Е":{"ha":890,"x_min":11,"x_max":935,"o":"m 43 0 q 19 10 28 0 q 14 35 11 19 l 206 936 q 221 962 208 951 q 249 972 233 972 l 904 972 q 927 962 919 972 q 932 936 935 951 l 903 799 q 888 774 900 783 q 860 764 875 764 l 421 764 l 382 588 l 792 588 q 815 577 807 588 q 819 551 822 567 l 793 425 q 778 399 790 410 q 750 389 765 389 l 340 389 l 303 208 l 753 208 q 776 198 768 208 q 781 172 783 188 l 751 35 q 736 10 749 19 q 710 0 724 0 l 43 0 z "},"Ѐ":{"ha":890,"x_min":13,"x_max":933,"o":"m 43 0 q 19 10 28 0 q 14 35 11 19 l 206 936 q 221 962 208 951 q 249 972 233 972 l 904 972 q 927 962 919 972 q 932 936 935 951 l 903 799 q 888 774 900 783 q 860 764 875 764 l 421 764 l 382 588 l 792 588 q 815 577 807 588 q 819 551 822 567 l 793 425 q 778 399 790 410 q 750 389 765 389 l 340 389 l 303 208 l 753 208 q 776 198 768 208 q 781 172 783 188 l 751 35 q 736 10 749 19 q 710 0 724 0 l 43 0 m 531 1042 q 503 1047 514 1042 q 482 1063 493 1051 l 329 1214 q 325 1226 325 1221 q 334 1250 325 1240 q 357 1260 343 1260 l 550 1260 q 577 1255 568 1260 q 596 1233 586 1250 l 689 1082 q 692 1069 692 1076 q 684 1049 692 1057 q 665 1042 676 1042 l 531 1042 z "},"Ё":{"ha":890,"x_min":13,"x_max":933,"o":"m 43 0 q 19 10 28 0 q 14 35 11 19 l 206 936 q 221 962 208 951 q 249 972 233 972 l 904 972 q 927 962 919 972 q 932 936 935 951 l 903 799 q 888 774 900 783 q 860 764 875 764 l 421 764 l 382 588 l 792 588 q 815 577 807 588 q 819 551 822 567 l 793 425 q 778 399 790 410 q 750 389 765 389 l 340 389 l 303 208 l 753 208 q 776 198 768 208 q 781 172 783 188 l 751 35 q 736 10 749 19 q 710 0 724 0 l 43 0 m 390 1092 q 369 1100 376 1092 q 365 1122 363 1108 l 393 1256 q 407 1278 396 1269 q 432 1288 418 1288 l 564 1288 q 585 1278 578 1288 q 589 1256 592 1269 l 561 1122 q 547 1100 558 1108 q 522 1092 536 1092 l 390 1092 m 682 1092 q 661 1100 668 1092 q 657 1122 654 1108 l 686 1256 q 699 1278 688 1269 q 724 1288 710 1288 l 856 1288 q 877 1278 869 1288 q 882 1256 885 1269 l 853 1122 q 840 1100 850 1108 q 815 1092 829 1092 l 682 1092 z "},"Ж":{"ha":1557,"x_min":-15,"x_max":1599,"o":"m 1572 972 q 1592 964 1585 972 q 1596 943 1599 956 q 1586 926 1593 933 l 1240 504 l 1431 47 q 1431 32 1433 40 q 1417 9 1428 18 q 1393 0 1406 0 l 1186 0 q 1142 28 1154 0 l 1001 375 l 903 375 l 829 35 q 815 10 828 19 q 788 0 803 0 l 607 0 q 584 10 592 0 q 578 35 576 19 l 651 375 l 581 375 l 296 28 q 243 0 276 0 l 11 0 q -8 9 -1 0 q -14 32 -15 18 q -7 47 -10 44 l 372 504 l 204 926 q 204 943 203 935 q 217 964 207 956 q 239 972 226 972 l 439 972 q 486 944 476 972 l 615 607 l 700 607 l 771 938 q 786 963 774 953 q 813 972 799 972 l 993 972 q 1017 963 1008 972 q 1022 938 1025 953 l 951 607 l 1028 607 l 1300 944 q 1357 972 1321 972 l 1572 972 z "},"З":{"ha":940,"x_min":10,"x_max":918,"o":"m 372 -14 q 162 21 243 -14 q 45 111 81 56 q 10 232 10 167 q 11 257 10 249 q 24 278 13 269 q 47 286 35 286 l 236 286 q 261 280 253 286 q 275 261 269 274 q 407 193 293 193 q 526 219 479 193 q 585 294 574 246 q 588 317 588 311 q 554 376 588 356 q 458 396 521 396 l 356 396 q 334 407 342 396 q 329 433 326 418 l 354 551 q 369 578 357 567 q 397 589 382 589 l 497 589 q 593 612 556 589 q 640 683 631 635 q 643 703 643 697 q 614 758 643 738 q 532 778 585 778 q 434 760 474 778 q 379 708 394 742 q 360 690 369 696 q 333 685 350 685 l 142 685 q 122 693 129 685 q 118 714 115 701 q 267 907 154 828 q 578 986 379 986 q 759 956 682 986 q 877 872 836 925 q 918 754 918 819 q 913 708 918 739 q 761 511 882 571 q 835 440 813 483 q 858 344 858 397 q 851 283 858 315 q 769 127 833 194 q 602 23 704 60 q 372 -14 500 -14 z "},"И":{"ha":1086,"x_min":11,"x_max":1106,"o":"m 43 0 q 19 10 28 0 q 14 36 11 21 l 207 936 q 221 962 208 951 q 249 972 233 972 l 439 972 q 462 962 454 972 q 467 936 469 951 l 350 388 l 853 946 q 906 972 875 972 l 1075 972 q 1098 962 1090 972 q 1104 936 1106 951 l 911 35 q 896 10 908 19 q 869 0 883 0 l 679 0 q 656 10 664 0 q 650 35 647 21 l 763 563 l 265 26 q 213 0 244 0 l 43 0 z "},"Й":{"ha":1086,"x_min":13,"x_max":1104,"o":"m 43 0 q 19 10 28 0 q 14 36 11 21 l 207 936 q 221 962 208 951 q 249 972 233 972 l 439 972 q 462 962 454 972 q 467 936 469 951 l 350 388 l 853 946 q 906 972 875 972 l 1075 972 q 1098 962 1090 972 q 1104 936 1106 951 l 911 35 q 896 10 908 19 q 869 0 883 0 l 679 0 q 656 10 664 0 q 650 35 647 21 l 763 563 l 265 26 q 213 0 244 0 l 43 0 m 681 1029 q 520 1071 572 1029 q 468 1183 468 1113 q 474 1231 468 1208 q 485 1249 476 1242 q 506 1257 493 1257 l 624 1257 q 642 1249 636 1257 q 644 1231 647 1242 q 642 1207 642 1214 q 708 1158 642 1158 q 803 1231 789 1158 q 814 1249 806 1242 q 835 1257 822 1257 l 953 1257 q 971 1249 965 1257 q 974 1231 976 1242 q 880 1085 953 1140 q 681 1029 807 1029 z "},"Ѝ":{"ha":1086,"x_min":13,"x_max":1104,"o":"m 43 0 q 19 10 28 0 q 14 36 11 21 l 207 936 q 221 962 208 951 q 249 972 233 972 l 439 972 q 462 962 454 972 q 467 936 469 951 l 350 388 l 853 946 q 906 972 875 972 l 1075 972 q 1098 962 1090 972 q 1104 936 1106 951 l 911 35 q 896 10 908 19 q 869 0 883 0 l 679 0 q 656 10 664 0 q 650 35 647 21 l 763 563 l 265 26 q 213 0 244 0 l 43 0 m 622 1042 q 595 1047 606 1042 q 574 1063 585 1051 l 421 1214 q 417 1226 417 1221 q 426 1250 417 1240 q 449 1260 435 1260 l 642 1260 q 669 1255 660 1260 q 688 1233 678 1250 l 781 1082 q 783 1069 783 1076 q 776 1049 783 1057 q 757 1042 768 1042 l 622 1042 z "},"К":{"ha":997,"x_min":11,"x_max":1043,"o":"m 1017 972 q 1036 964 1029 972 q 1040 943 1043 956 q 1031 926 1038 933 l 685 504 l 869 47 q 869 32 872 40 q 857 9 868 18 q 833 0 846 0 l 625 0 q 582 28 594 0 l 444 375 l 347 375 l 274 35 q 259 10 271 19 q 232 0 247 0 l 42 0 q 19 10 26 0 q 14 35 11 19 l 206 936 q 220 962 208 951 q 247 972 232 972 l 438 972 q 461 962 453 972 q 467 936 469 951 l 396 607 l 472 607 l 744 944 q 801 972 765 972 l 1017 972 z "}}}
